SplineFontDB: 3.2
FontName: D-DIN-PRO-Condensed-SemiBold
FullName: D-DIN-PRO-Condensed-SemiBold
FamilyName: D-DIN-PRO-Condensed
Weight: Semibold
Copyright: Copyright (c) CyberFei. All rights reserved
Version: 1.1.0
ItalicAngle: 0
UnderlinePosition: -150
UnderlineWidth: 50
Ascent: 831
Descent: 169
InvalidEm: 0
sfntRevision: 0x00010000
LayerCount: 2
Layer: 0 0 "Back" 1
Layer: 1 0 "Fore" 0
XUID: [1021 868 -1451673819 9043]
StyleMap: 0x0040
FSType: 4
OS2Version: 3
OS2_WeightWidthSlopeOnly: 0
OS2_UseTypoMetrics: 0
CreationTime: 1462909513
ModificationTime: 1778060077
PfmFamily: 17
TTFWeight: 600
TTFWidth: 3
LineGap: 86
VLineGap: 0
Panose: 2 11 5 6 3 2 2 3 2 4
OS2TypoAscent: 831
OS2TypoAOffset: 0
OS2TypoDescent: -169
OS2TypoDOffset: 0
OS2TypoLinegap: 86
OS2WinAscent: 902
OS2WinAOffset: 0
OS2WinDescent: 184
OS2WinDOffset: 0
HheadAscent: 831
HheadAOffset: 0
HheadDescent: -169
HheadDOffset: 0
OS2SubXSize: 650
OS2SubYSize: 600
OS2SubXOff: 0
OS2SubYOff: 75
OS2SupXSize: 650
OS2SupYSize: 600
OS2SupXOff: 0
OS2SupYOff: 350
OS2StrikeYSize: 50
OS2StrikeYPos: 310
OS2CapHeight: 690
OS2XHeight: 517
OS2Vendor: 'MONO'
OS2CodePages: 00000001.00000000
OS2UnicodeRanges: 8000006f.4000000a.00000000.00000000
Lookup: 1 0 0 "'rtla' Right to Left Alternates lookup 0" { "'rtla' Right to Left Alternates lookup 0 subtable"  } ['rtla' ('DFLT' <'dflt' > ) ]
Lookup: 1 0 0 "'sups' Superscript lookup 1" { "'sups' Superscript lookup 1 subtable" ("superior") } ['sups' ('DFLT' <'dflt' > ) ]
Lookup: 4 0 0 "'frac' Diagonal Fractions lookup 2" { "'frac' Diagonal Fractions lookup 2 subtable"  } ['frac' ('DFLT' <'dflt' > ) ]
Lookup: 4 0 0 "'dlig' Discretionary Ligatures in Latin lookup 3" { "'dlig' Discretionary Ligatures in Latin lookup 3 subtable"  } ['dlig' ('latn' <'dflt' > ) ]
Lookup: 4 0 1 "'liga' Standard Ligatures in Latin lookup 4" { "'liga' Standard Ligatures in Latin lookup 4 subtable"  } ['liga' ('latn' <'dflt' > ) ]

StartChar: .notdef
Encoding: 65536 -1 0
Width: 593
GlyphClass: 1
Flags: MW
HStem: 1 66.5<165.126 443.477 165.126 509.977> 624.2 66.5<165.126 443.477 165.126 165.126>
VStem: 98.626 66.5<67.5 67.5 67.5 624.2> 443.477 66.5<67.5 624.2 624.2 624.2>
LayerCount: 2
Fore
SplineSet
98.6259765625 690.700195312 m 1
 509.9765625 690.700195312 l 1
 509.9765625 1 l 1
 98.6259765625 1 l 1
 98.6259765625 690.700195312 l 1
165.125976562 67.5 m 1
 443.4765625 67.5 l 1
 443.4765625 624.200195312 l 1
 165.125976562 624.200195312 l 1
 165.125976562 67.5 l 1
EndSplineSet
EndChar

StartChar: exclam
Encoding: 33 33 3
Width: 214
GlyphClass: 2
Flags: MW
HStem: 1 126.35<62.5264 170.826 62.5264 170.826> 670.7 20G<58.2344 175.153 175.153 175.153>
VStem: 62.5264 108.3<1 127.35 1 127.35> 72.5039 87.3613<187.2 187.2>
LayerCount: 2
Fore
SplineSet
58.234375 690.700195312 m 1xd0
 175.153320312 690.700195312 l 1
 159.865234375 187.200195312 l 1
 72.50390625 187.200195312 l 1
 58.234375 690.700195312 l 1xd0
62.5263671875 127.349609375 m 1xe0
 170.826171875 127.349609375 l 1
 170.826171875 1 l 1
 62.5263671875 1 l 1
 62.5263671875 127.349609375 l 1xe0
EndSplineSet
EndChar

StartChar: quotedbl
Encoding: 34 34 4
Width: 287
GlyphClass: 2
Flags: MW
HStem: 436.1 254.601<41.626 140.426 41.626 140.426 41.626 165.126 165.126 263.926>
VStem: 41.626 98.7998<436.1 690.7 436.1 690.7> 165.126 98.7998<436.1 690.7 436.1 690.7>
LayerCount: 2
Fore
SplineSet
41.6259765625 690.700195312 m 1
 140.42578125 690.700195312 l 1
 140.42578125 436.099609375 l 1
 41.6259765625 436.099609375 l 1
 41.6259765625 690.700195312 l 1
165.125976562 690.700195312 m 1
 263.92578125 690.700195312 l 1
 263.92578125 436.099609375 l 1
 165.125976562 436.099609375 l 1
 165.125976562 690.700195312 l 1
EndSplineSet
EndChar

StartChar: numbersign
Encoding: 35 35 5
Width: 461
GlyphClass: 2
Flags: MW
HStem: 1 21G<62.4004 158.567 62.4004 62.4004 236.251 332.418 236.251 236.251> 212.85 91.2002<21.6758 86.1504 21.6758 95.6816 192.798 260.001 21.6758 182.317 366.647 437.776> 405.7 91.2002<41.626 107.055 41.626 117.47 41.626 204.171 213.714 280.905 387.563 456.776> 670.7 20G<138.37 235.563 235.563 235.563 312.22 409.414 409.414 409.414>
LayerCount: 2
Fore
SplineSet
456.776367188 496.900390625 m 1
 456.776367188 405.700195312 l 1
 378.020507812 405.700195312 l 1
 366.647460938 304.049804688 l 1
 437.776367188 304.049804688 l 1
 437.776367188 212.849609375 l 1
 356.16796875 212.849609375 l 1
 332.41796875 1 l 1
 236.250976562 1 l 1
 260.000976562 212.849609375 l 1
 182.317382812 212.849609375 l 1
 158.567382812 1 l 1
 62.400390625 1 l 1
 86.150390625 212.849609375 l 1
 21.67578125 212.849609375 l 1
 21.67578125 304.049804688 l 1
 95.681640625 304.049804688 l 1
 107.0546875 405.700195312 l 1
 41.6259765625 405.700195312 l 1
 41.6259765625 496.900390625 l 1
 117.469726562 496.900390625 l 1
 138.370117188 690.700195312 l 1
 235.563476562 690.700195312 l 1
 213.713867188 496.900390625 l 1
 291.319335938 496.900390625 l 1
 312.219726562 690.700195312 l 1
 409.4140625 690.700195312 l 1
 387.563476562 496.900390625 l 1
 456.776367188 496.900390625 l 1
269.53125 304.049804688 m 1
 280.905273438 405.700195312 l 1
 204.170898438 405.700195312 l 1
 192.797851562 304.049804688 l 1
 269.53125 304.049804688 l 1
EndSplineSet
EndChar

StartChar: dollar
Encoding: 36 36 6
Width: 375
GlyphClass: 2
Flags: MW
VStem: 29.2764 97.8506<474.029 508.955> 153.727 84.5508<-67.4014 27.6338 27.6338 27.6338 129.618 262.854> 258.227 97.8496<176.463 217.78>
LayerCount: 2
Fore
SplineSet
238.276367188 387.388671875 m 1
 323.763671875 347.837890625 356.076171875 288.420898438 356.076171875 205.25 c 0
 356.076171875 143.875976562 338.47265625 52.5185546875 238.27734375 29.564453125 c 1
 238.27734375 -67.4013671875 l 1
 153.7265625 -67.4013671875 l 1
 153.7265625 27.6337890625 l 1
 90.7861328125 37.8583984375 31.9970703125 80.6015625 27.3896484375 202.693359375 c 2
 26.7197265625 220.448242188 l 1
 126.232421875 220.448242188 l 1
 128.104492188 185.631835938 130.100585938 148.50390625 153.7265625 127.69140625 c 1
 153.7265625 310.134765625 l 1
 95.5712890625 336.568359375 29.2763671875 370.462890625 29.2763671875 483.59765625 c 0
 29.2763671875 534.3125 41.1318359375 576.302734375 66.908203125 607.524414062 c 0
 89.171875 634.493164062 118.686523438 651.642578125 153.7265625 658.73828125 c 1
 153.7265625 750.548828125 l 1
 238.276367188 750.548828125 l 1
 238.276367188 657.12890625 l 1
 295.092773438 642.603515625 342.747070312 596.18359375 349.395507812 484.629882812 c 2
 350.4765625 466.499023438 l 1
 256.905273438 466.499023438 l 1
 255.778320312 499.176757812 254.734375 529.465820312 238.276367188 550.419921875 c 1
 238.276367188 387.388671875 l 1
153.7265625 559.795898438 m 1
 141.654296875 551.399414062 127.126953125 533.006835938 127.126953125 493.09765625 c 0
 127.126953125 454.9609375 139.728515625 438.645507812 153.7265625 427.013671875 c 1
 153.7265625 559.795898438 l 1
238.27734375 129.618164062 m 1
 246.79296875 138.091796875 258.2265625 156.225585938 258.2265625 196.700195312 c 0
 258.2265625 238.859375 245.99609375 254.41015625 238.27734375 262.854492188 c 1
 238.27734375 129.618164062 l 1
74.876953125 673.599609375 m 1024
EndSplineSet
EndChar

StartChar: percent
Encoding: 37 37 7
Width: 680
GlyphClass: 2
Flags: MW
HStem: 1 21G<176.906 273.105 176.906 176.906> 677.35 21G
VStem: 34.0273 99.752<389.55 561.5> 167.978 99.749<389.551 561.5> 429.229 99.752<131.151 303.101> 563.18 99.748<131.15 131.151 131.151 303.1 303.1 303.101>
LayerCount: 2
Fore
SplineSet
150.875976562 251.799804688 m 0
 85.90625 251.799804688 34.02734375 284.643554688 34.02734375 389.549804688 c 2
 34.02734375 561.5 l 2
 34.02734375 592.303710938 35.9931640625 697.349609375 150.875976562 697.349609375 c 0
 215.532226562 697.349609375 267.7265625 665.2265625 267.7265625 561.5 c 2
 267.7265625 389.549804688 l 2
 267.7265625 345.01171875 259.947265625 251.799804688 150.875976562 251.799804688 c 0
424.798828125 690.700195312 m 1
 520.997070312 690.700195312 l 1
 273.10546875 1 l 1
 176.90625 1 l 1
 424.798828125 690.700195312 l 1
167.977539062 389.55078125 m 2
 167.977539062 561.500976562 l 2
 167.977539062 581.84765625 164.993164062 594.805664062 162.495117188 599.33203125 c 0
 160.8515625 602.310546875 159.245117188 604.250976562 150.877929688 604.250976562 c 0
 142.510742188 604.250976562 140.905273438 602.311523438 139.262695312 599.333984375 c 0
 136.762695312 594.802734375 133.779296875 581.844726562 133.779296875 561.5 c 2
 133.779296875 389.549804688 l 2
 133.779296875 368.552734375 136.749023438 355.0078125 139.377929688 350.079101562 c 0
 141.159179688 346.73828125 142.740234375 344.900390625 150.877929688 344.900390625 c 0
 159.015625 344.900390625 160.596679688 346.73828125 162.377929688 350.079101562 c 0
 165.006835938 355.0078125 167.977539062 368.5546875 167.977539062 389.55078125 c 2
546.078125 -6.5986328125 m 0
 481.107421875 -6.5986328125 429.228515625 26.2451171875 429.228515625 131.151367188 c 2
 429.228515625 303.100585938 l 2
 429.228515625 333.905273438 431.1953125 438.951171875 546.078125 438.951171875 c 0
 610.734375 438.951171875 662.927734375 406.828125 662.927734375 303.100585938 c 2
 662.927734375 131.151367188 l 2
 662.927734375 86.6123046875 655.1484375 -6.5986328125 546.078125 -6.5986328125 c 0
563.1796875 131.150390625 m 2
 563.1796875 303.099609375 l 2
 563.1796875 323.444335938 560.196289062 336.40234375 557.696289062 340.93359375 c 0
 556.047851562 343.918945312 554.44140625 345.850585938 546.080078125 345.850585938 c 0
 537.708984375 345.850585938 536.10546875 343.911132812 534.465820312 340.936523438 c 0
 531.965820312 336.404296875 528.98046875 323.444335938 528.98046875 303.100585938 c 2
 528.98046875 131.151367188 l 2
 528.98046875 110.153320312 531.951171875 96.6083984375 534.580078125 91.6796875 c 0
 536.361328125 88.3388671875 537.942382812 86.5009765625 546.080078125 86.5009765625 c 0
 554.217773438 86.5009765625 555.797851562 88.3388671875 557.580078125 91.6796875 c 0
 560.208984375 96.609375 563.1796875 110.153320312 563.1796875 131.150390625 c 2
EndSplineSet
EndChar

StartChar: ampersand
Encoding: 38 38 8
Width: 515
GlyphClass: 2
Flags: MW
HStem: -8.50098 99.751<184.738 228.06 184.738 244.395> 0.0507812 98.7988<414.212 482.427 454.876 482.422> 607.101 93.0986<231.151 255.427>
VStem: 50.1738 103.549<152.133 180.674 152.133 191.131> 91.9746 103.548<539.577 563.261 539.577 573.426> 280.072 102.601<537.74 566.302>
LayerCount: 2
Fore
SplineSet
382.672851562 551.999023438 m 0xac
 382.672851562 485.131835938 348.301757812 431.489257812 287.001953125 364.459960938 c 1
 355.279296875 248.243164062 l 1
 400.869140625 324.2265625 l 1
 480.955078125 272.319335938 l 1
 410.171875 155.676757812 l 1
 431.624023438 118.901367188 l 2
 443.419921875 98.849609375 448.62109375 98.849609375 454.875976562 98.849609375 c 2
 482.426757812 98.849609375 l 1
 482.426757812 17.150390625 l 1
 482.421875 0.05078125 l 1
 433.97265625 0.05078125 l 2x6c
 394.452148438 0.05078125 375.482421875 15.1455078125 354.643554688 51.2109375 c 2
 348.961914062 60.5849609375 l 1
 323.489257812 29.24609375 281.866210938 -8.5009765625 206.922851562 -8.5009765625 c 0
 160.155273438 -8.5009765625 120.825195312 6.73046875 92.205078125 37.8876953125 c 0
 63.806640625 68.8017578125 50.173828125 109.587890625 50.173828125 157.749023438 c 0xb4
 50.173828125 224.512695312 81.494140625 285.334960938 161.930664062 376.23828125 c 1
 107.09765625 468.837890625 91.974609375 507.270507812 91.974609375 552 c 0
 91.974609375 594.8515625 105.4765625 631.48046875 133.084960938 659.087890625 c 0
 160.513671875 686.516601562 196.139648438 700.19921875 237.323242188 700.19921875 c 0
 279.057617188 700.19921875 314.916015625 686.571289062 342.118164062 659.006835938 c 0
 369.380859375 631.379882812 382.672851562 594.793945312 382.672851562 551.999023438 c 0xac
280.072265625 553.901367188 m 0
 280.072265625 578.702148438 272.58203125 607.100585938 238.272460938 607.100585938 c 0
 224.029296875 607.100585938 214.9609375 602.7890625 207.60546875 594.135742188 c 0
 200.1015625 585.307617188 195.522460938 572.622070312 195.522460938 553.900390625 c 0
 195.522460938 525.252929688 213.012695312 491.291992188 233.212890625 456.044921875 c 1
 267.515625 497.8671875 280.072265625 521.579101562 280.072265625 553.901367188 c 0
215.541992188 286.37890625 m 1
 171.071289062 234.150390625 153.72265625 199.797851562 153.72265625 161.549804688 c 0
 153.72265625 142.716796875 156.854492188 91.25 212.622070312 91.25 c 0xb4
 243.498046875 91.25 266.703125 109.102539062 295.077148438 150.702148438 c 1
 215.541992188 286.37890625 l 1
EndSplineSet
EndChar

StartChar: quotesingle
Encoding: 39 39 9
Width: 163
GlyphClass: 2
Flags: MW
HStem: 436.1 254.601<41.626 140.426 41.626 140.426>
VStem: 41.626 98.7998<436.1 690.7 436.1 690.7>
LayerCount: 2
Fore
SplineSet
41.6259765625 690.700195312 m 1
 140.42578125 690.700195312 l 1
 140.42578125 436.099609375 l 1
 41.6259765625 436.099609375 l 1
 41.6259765625 690.700195312 l 1
EndSplineSet
EndChar

StartChar: parenleft
Encoding: 40 40 10
Width: 267
GlyphClass: 2
Flags: MW
VStem: 50.1758 99.751<287.225 361.096>
LayerCount: 2
Fore
SplineSet
50.17578125 329.69921875 m 0
 50.17578125 392.4921875 56.44921875 551.383789062 147.03515625 728.856445312 c 2
 151.803710938 738.19921875 l 1
 244.641601562 738.19921875 l 1
 233.9609375 714.16796875 l 2
 195.697265625 628.073242188 149.926757812 491.431640625 149.926757812 329.69921875 c 0
 149.926757812 244.75 163.280273438 102.657226562 233.934570312 -54.7099609375 c 2
 244.750976562 -78.7998046875 l 1
 151.754882812 -78.7998046875 l 1
 127.041015625 -29.876953125 50.17578125 122.283203125 50.17578125 329.69921875 c 0
EndSplineSet
Substitution2: "'rtla' Right to Left Alternates lookup 0 subtable" parenright
EndChar

StartChar: parenright
Encoding: 41 41 11
Width: 267
GlyphClass: 2
Flags: MW
VStem: 135.676 99.751<298.724 374.73>
LayerCount: 2
Fore
SplineSet
135.67578125 329.701171875 m 0
 135.67578125 419.759765625 120.842773438 558.465820312 51.642578125 714.169921875 c 2
 40.9619140625 738.201171875 l 1
 133.798828125 738.201171875 l 1
 158.538085938 689.732421875 235.426757812 539.094726562 235.426757812 329.701171875 c 0
 235.426757812 267.74609375 229.229492188 110.015625 138.600585938 -69.392578125 c 2
 133.848632812 -78.798828125 l 1
 40.8525390625 -78.798828125 l 1
 51.6689453125 -54.708984375 l 2
 87.7978515625 25.7607421875 135.67578125 163.690429688 135.67578125 329.701171875 c 0
EndSplineSet
Substitution2: "'rtla' Right to Left Alternates lookup 0 subtable" parenleft
EndChar

StartChar: asterisk
Encoding: 42 42 12
Width: 352
GlyphClass: 2
Flags: MW
HStem: 389.55 301.15<144.227 225.926 144.227 225.926>
VStem: 144.227 81.6992<389.55 474.841 611.109 690.7>
LayerCount: 2
Fore
SplineSet
225.92578125 389.549804688 m 1
 144.2265625 389.549804688 l 1
 144.2265625 474.840820312 l 1
 83.013671875 439.40234375 l 1
 43.7763671875 505.934570312 l 1
 107.15625 542.5 l 1
 43.9404296875 578.970703125 l 1
 82.8505859375 646.642578125 l 1
 144.2265625 611.109375 l 1
 144.2265625 690.700195312 l 1
 225.92578125 690.700195312 l 1
 225.92578125 610.159179688 l 1
 287.423828125 645.763671875 l 1
 325.140625 578.901367188 l 1
 262.209960938 542.594726562 l 1
 326.423828125 506.016601562 l 1
 287.138671875 439.40234375 l 1
 225.92578125 474.840820312 l 1
 225.92578125 389.549804688 l 1
EndSplineSet
EndChar

StartChar: plus
Encoding: 43 43 13
Width: 421
GlyphClass: 2
Flags: MW
HStem: 231.85 96.9004<40.6758 171.776 40.6758 171.776 267.727 398.826 40.6758 267.727>
VStem: 171.776 95.9502<101.7 231.85 101.7 231.85 328.75 458.9>
LayerCount: 2
Fore
SplineSet
267.7265625 328.75 m 1
 398.826171875 328.75 l 1
 398.826171875 231.849609375 l 1
 267.7265625 231.849609375 l 1
 267.7265625 101.700195312 l 1
 171.776367188 101.700195312 l 1
 171.776367188 231.849609375 l 1
 40.67578125 231.849609375 l 1
 40.67578125 328.75 l 1
 171.776367188 328.75 l 1
 171.776367188 458.900390625 l 1
 267.7265625 458.900390625 l 1
 267.7265625 328.75 l 1
EndSplineSet
EndChar

StartChar: comma
Encoding: 44 44 14
Width: 163
GlyphClass: 2
Flags: MW
HStem: -153.322 276.872<41.626 140.426>
VStem: 41.626 98.7998<-67.5986 123.55 -67.5986 123.55 -67.5986 123.55>
LayerCount: 2
Fore
SplineSet
41.6259765625 123.549804688 m 1
 140.42578125 123.549804688 l 1
 140.42578125 -67.5986328125 l 1
 41.6259765625 -153.322265625 l 1
 41.6259765625 123.549804688 l 1
EndSplineSet
EndChar

StartChar: hyphen
Encoding: 45 45 15
Width: 378
GlyphClass: 2
Flags: MW
HStem: 300.25 95.9502<50.1758 345.626 50.1758 345.626>
VStem: 50.1758 295.45<300.25 396.2 300.25 396.2>
LayerCount: 2
Fore
SplineSet
50.17578125 396.200195312 m 1
 345.625976562 396.200195312 l 1
 345.625976562 300.25 l 1
 50.17578125 300.25 l 1
 50.17578125 396.200195312 l 1
EndSplineSet
EndChar

StartChar: period
Encoding: 46 46 16
Width: 172
GlyphClass: 2
Flags: MW
HStem: 1 118.75<41.626 149.926 41.626 149.926>
VStem: 41.626 108.3<1 119.75 1 119.75>
LayerCount: 2
Fore
SplineSet
41.6259765625 119.75 m 1
 149.92578125 119.75 l 1
 149.92578125 1 l 1
 41.6259765625 1 l 1
 41.6259765625 119.75 l 1
EndSplineSet
EndChar

StartChar: slash
Encoding: 47 47 17
Width: 302
GlyphClass: 2
Flags: MW
HStem: -8.5 21G<46.6768 143.226 46.6768 46.6768> 670.7 20G<177.526 274.076 274.076 274.076>
VStem: 46.6768 227.399
LayerCount: 2
Fore
SplineSet
274.076171875 690.700195312 m 1
 143.225585938 -8.5 l 1
 46.6767578125 -8.5 l 1
 177.526367188 690.700195312 l 1
 274.076171875 690.700195312 l 1
EndSplineSet
EndChar

StartChar: zero
Encoding: 48 48 18
Width: 404
GlyphClass: 2
Flags: MW
HStem: -7.5498 95.9502<199.978 223.383 199.978 239.873> 603.298 95.9521<199.979 223.384>
VStem: 52.0762 103.55<183.4 193.849 193.849 497.849> 266.777 103.549<193.849 497.849 497.849 509.25>
LayerCount: 2
Fore
SplineSet
211.67578125 -7.5498046875 m 0
 135.879882812 -7.5498046875 52.076171875 27.6650390625 52.076171875 183.400390625 c 2
 52.076171875 509.25 l 2
 52.076171875 550.104492188 53.9990234375 699.25 211.67578125 699.25 c 0
 286.922851562 699.25 370.326171875 664.283203125 370.326171875 509.25 c 2
 370.326171875 183.400390625 l 2
 370.326171875 129.927734375 360.830078125 86.4775390625 339.604492188 53.8916015625 c 0
 312.631835938 12.482421875 268.069335938 -7.5498046875 211.67578125 -7.5498046875 c 0
266.77734375 193.848632812 m 2
 266.77734375 497.848632812 l 2
 266.77734375 541.668945312 261.013671875 570.903320312 253.328125 584.41015625 c 0
 246.579101562 596.272460938 235.091796875 603.297851562 211.676757812 603.297851562 c 0
 188.280273438 603.297851562 176.49609375 596.254882812 169.440429688 584.21875 c 0
 161.551757812 570.763671875 155.625976562 541.645507812 155.625976562 497.848632812 c 2
 155.625976562 193.848632812 l 2
 155.625976562 150.05078125 161.551757812 120.93359375 169.439453125 107.479492188 c 0
 176.495117188 95.443359375 188.279296875 88.400390625 211.67578125 88.400390625 c 0
 235.090820312 88.400390625 246.578125 95.4248046875 253.327148438 107.288085938 c 0
 261.012695312 120.794921875 266.77734375 150.029296875 266.77734375 193.848632812 c 2
EndSplineSet
EndChar

StartChar: one
Encoding: 49 49 19
Width: 282
GlyphClass: 2
Flags: MW
HStem: 1 21G<136.626 234.477 136.626 136.626> 670.7 20G<147.824 234.477 234.477 234.477>
VStem: 136.626 97.8506<1 557.709 557.709 557.709>
LayerCount: 2
Fore
SplineSet
39.7265625 481.708984375 m 1
 39.7265625 605.916992188 l 1
 147.82421875 690.700195312 l 1
 234.4765625 690.700195312 l 1
 234.4765625 1 l 1
 136.625976562 1 l 1
 136.625976562 557.708984375 l 1
 39.7265625 481.708984375 l 1
EndSplineSet
Substitution2: "'sups' Superscript lookup 1 subtable" uni00B9
EndChar

StartChar: two
Encoding: 50 50 20
Width: 394
GlyphClass: 2
Flags: MW
HStem: 1 95.9502<173.497 361.776 173.497 361.776> 603.303 95.9492<192.746 213.542>
VStem: 47.3262 102.6<479.802 534.902 479.802 541.552 479.802 564.783> 261.076 103.55<507.353 533.953 533.953 542.501 482.95 566.864>
LayerCount: 2
Fore
SplineSet
203.125976562 603.302734375 m 0
 182.365234375 603.302734375 149.92578125 593.868164062 149.92578125 534.90234375 c 2
 149.92578125 479.801757812 l 1
 47.326171875 479.801757812 l 1
 47.326171875 541.551757812 l 2
 47.326171875 588.014648438 61.310546875 627.21484375 90.3369140625 656.241210938 c 0
 119.416992188 685.321289062 158.946289062 699.251953125 205.9765625 699.251953125 c 0
 253.005859375 699.251953125 292.53515625 685.321289062 321.615234375 656.241210938 c 0
 350.586914062 627.26953125 364.625976562 588.3984375 364.625976562 542.500976562 c 2
 364.625976562 507.350585938 l 2
 364.625976562 458.548828125 354.438476562 417.90625 318.665039062 354.450195312 c 2
 173.497070312 96.9501953125 l 1
 361.776367188 96.9501953125 l 1
 361.776367188 1 l 1
 47.326171875 1 l 1
 47.326171875 77.6865234375 l 1
 231.110351562 403.8828125 l 2
 256.8515625 447.796875 261.076171875 478.647460938 261.076171875 507.352539062 c 2
 261.076171875 533.953125 l 2
 261.076171875 599.774414062 223.958984375 603.302734375 203.125976562 603.302734375 c 0
EndSplineSet
Substitution2: "'sups' Superscript lookup 1 subtable" uni00B2
EndChar

StartChar: three
Encoding: 51 51 21
Width: 406
GlyphClass: 2
Flags: MW
HStem: -7.5498 95.9492<185.551 217.464 185.551 233.174> 310.699 95.9502<160.376 205.026 160.376 205.026> 603.299 95.9492<200.641 218.432>
VStem: 47.3262 102.6<147.299 152.999 152.999 206.199 136.37 206.199> 268.676 103.551<158.699 161.55 161.55 230.9 135.729 231.849 135.729 246.632>
LayerCount: 2
Fore
SplineSet
317.029296875 362.153320312 m 1
 347.524414062 340.766601562 372.2265625 308.239257812 372.2265625 230.900390625 c 2
 372.2265625 161.549804688 l 2
 372.2265625 109.907226562 358.688476562 67.4599609375 329.4375 37.1123046875 c 0
 300.098632812 6.6728515625 258.47265625 -7.5498046875 207.875976562 -7.5498046875 c 0
 158.765625 -7.5498046875 118.331054688 5.357421875 89.5458984375 33.4033203125 c 0
 60.8427734375 61.37109375 47.326171875 100.3984375 47.326171875 147.298828125 c 2
 47.326171875 206.19921875 l 1
 149.92578125 206.19921875 l 1
 149.92578125 152.999023438 l 2
 149.92578125 119.740234375 162.275390625 88.3994140625 208.826171875 88.3994140625 c 0
 226.102539062 88.3994140625 268.67578125 90.4052734375 268.67578125 158.69921875 c 2
 268.67578125 231.848632812 l 2
 268.67578125 261.415039062 262.549804688 281.256835938 253.313476562 293.034179688 c 0
 244.91015625 303.749023438 230.487304688 310.69921875 205.026367188 310.69921875 c 2
 160.375976562 310.69921875 l 1
 160.375976562 406.649414062 l 1
 205.026367188 406.649414062 l 2
 229.956054688 406.649414062 243.665039062 413.374023438 251.356445312 423.290039062 c 0
 260.000976562 434.4375 265.826171875 453.375976562 265.826171875 481.69921875 c 2
 265.826171875 532.999023438 l 2
 265.826171875 597.764648438 228.987304688 603.298828125 207.875976562 603.298828125 c 0
 193.40625 603.298828125 151.826171875 601.700195312 151.826171875 538.69921875 c 2
 151.826171875 483.598632812 l 1
 49.2265625 483.598632812 l 1
 49.2265625 539.649414062 l 2
 49.2265625 587.713867188 62.642578125 627.702148438 91.2099609375 656.634765625 c 0
 119.944335938 685.737304688 160.528320312 699.248046875 209.776367188 699.248046875 c 0
 258.39453125 699.248046875 298.50390625 685.891601562 326.918945312 657.108398438 c 0
 355.215820312 628.444335938 368.42578125 588.606445312 368.42578125 540.59765625 c 2
 368.42578125 484.547851562 l 2
 368.42578125 415.880859375 345.697265625 383.120117188 317.029296875 362.153320312 c 1
EndSplineSet
Substitution2: "'sups' Superscript lookup 1 subtable" uni00B3
EndChar

StartChar: four
Encoding: 52 52 22
Width: 416
GlyphClass: 2
Flags: MW
HStem: 1 21G<236.376 339.926 236.376 236.376> 133.05 95.9502<144.467 236.376 144.467 236.376 339.926 397.876> 670.7 20G<178.979 284.117 284.117 284.117>
VStem: 236.376 103.55<1 133.05 1 133.05 229 400.95>
LayerCount: 2
Fore
SplineSet
339.92578125 229 m 1
 397.875976562 229 l 1
 397.875976562 133.049804688 l 1
 339.92578125 133.049804688 l 1
 339.92578125 1 l 1
 236.375976562 1 l 1
 236.375976562 133.049804688 l 1
 36.8759765625 133.049804688 l 1
 36.8759765625 214.408203125 l 1
 178.979492188 690.700195312 l 1
 284.1171875 690.700195312 l 1
 144.466796875 229 l 1
 236.375976562 229 l 1
 236.375976562 400.950195312 l 1
 339.92578125 400.950195312 l 1
 339.92578125 229 l 1
EndSplineSet
EndChar

StartChar: five
Encoding: 53 53 23
Width: 399
GlyphClass: 2
Flags: MW
HStem: -7.5498 95.9502<195.143 217.543 195.143 285.083> 360.1 95.9502<206.478 218.503> 591.9 98.7998<158.477 359.877 158.477 158.477>
VStem: 52.0762 99.75<156.8 157.75 157.75 191 125.93 191> 59.6768 98.7998<441.482 591.9 441.482 690.7> 262.026 103.55<165.35 168.2 168.2 283.15 283.15 284.1>
LayerCount: 2
Fore
SplineSet
207.875976562 -7.5498046875 m 0xec
 153.215820312 -7.5498046875 52.076171875 12.0126953125 52.076171875 156.799804688 c 2
 52.076171875 191 l 1
 151.826171875 191 l 1
 151.826171875 157.75 l 2xf4
 151.826171875 94.109375 183.360351562 88.400390625 206.92578125 88.400390625 c 0
 228.161132812 88.400390625 240.248046875 94.46875 248 104.526367188 c 0
 256.1171875 115.056640625 262.026367188 134.872070312 262.026367188 165.349609375 c 2
 262.026367188 283.150390625 l 2
 262.026367188 313.676757812 256.2421875 333.615234375 248.337890625 344.154296875 c 0
 240.927734375 354.034179688 229.130859375 360.099609375 207.875976562 360.099609375 c 0
 170.662109375 360.099609375 158.23828125 336.684570312 145.962890625 313.549804688 c 1
 59.6767578125 313.549804688 l 1
 59.6767578125 690.700195312 l 1
 359.876953125 690.700195312 l 1
 359.876953125 591.900390625 l 1
 158.4765625 591.900390625 l 1
 158.4765625 441.482421875 l 1
 171.91015625 448.491210938 191.779296875 456.049804688 221.17578125 456.049804688 c 0
 288.045898438 456.049804688 365.576171875 425.55078125 365.576171875 284.099609375 c 2
 365.576171875 168.200195312 l 2
 365.576171875 128.038085938 362.290039062 -7.5498046875 207.875976562 -7.5498046875 c 0xec
EndSplineSet
EndChar

StartChar: six
Encoding: 54 54 24
Width: 397
GlyphClass: 2
Flags: MW
HStem: -7.5498 95.9492<199.833 223.491 199.833 231.241> 331.599 95.001<215.54 229.184> 670.7 20G<201.26 307.573 307.573 307.573>
VStem: 47.3242 103.551<161.549 256.549 256.549 265.099> 263.926 103.55<158.699 159.65 159.65 261.299 261.299 267>
LayerCount: 2
Fore
SplineSet
219.274414062 426.599609375 m 0
 306.581054688 426.599609375 367.475585938 369.107421875 367.475585938 267 c 2
 367.475585938 159.650390625 l 2
 367.475585938 110.20703125 353.33984375 68.7490234375 323.731445312 38.056640625 c 0
 294.215820312 7.4609375 254.606445312 -7.5498046875 207.875976562 -7.5498046875 c 0
 159.971679688 -7.5498046875 119.765625 7.55859375 90.453125 38.6806640625 c 0
 61.2158203125 69.72265625 47.32421875 111.5703125 47.32421875 161.548828125 c 2
 47.32421875 256.548828125 l 2
 47.32421875 307.32421875 53.630859375 339.234375 79.052734375 399.96484375 c 2
 201.259765625 690.700195312 l 1
 307.573242188 690.700195312 l 1
 197.452148438 424.954101562 l 1
 204.5234375 426.057617188 211.8046875 426.599609375 219.274414062 426.599609375 c 0
207.874023438 88.3994140625 m 0
 239.108398438 88.3994140625 263.92578125 105.224609375 263.92578125 158.69921875 c 2
 263.92578125 261.298828125 l 2
 263.92578125 300.505859375 250.4921875 331.598632812 207.875976562 331.598632812 c 0
 194.704101562 331.598632812 150.875 330.491210938 150.875 265.098632812 c 2
 150.875 159.649414062 l 2
 150.875 90.3076171875 191.791992188 88.3994140625 207.874023438 88.3994140625 c 0
EndSplineSet
EndChar

StartChar: seven
Encoding: 55 55 25
Width: 364
GlyphClass: 2
Flags: MW
HStem: 1 21G<64.2568 169.332 64.2568 64.2568> 594.75 95.9502<32.126 241.907 32.126 350.376>
VStem: 32.126 318.25<609.348 690.7 609.348 690.7 609.348 690.7>
LayerCount: 2
Fore
SplineSet
350.375976562 690.700195312 m 1
 350.375976562 609.34765625 l 1
 169.33203125 1 l 1
 64.2568359375 1 l 1
 241.907226562 594.75 l 1
 32.1259765625 594.75 l 1
 32.1259765625 690.700195312 l 1
 350.375976562 690.700195312 l 1
EndSplineSet
EndChar

StartChar: eight
Encoding: 56 56 26
Width: 404
GlyphClass: 2
Flags: MW
HStem: -7.5498 93.0986<199.268 223.312 199.268 259.941> 315.449 92.1514<200.567 221.614 200.567 223.588> 606.15 93.1006<200.911 233.724 188.008 235.82>
VStem: 52.0752 97.8516<163.452 165.349 165.349 235.652 235.652 236.599 151.287 262.922> 272.477 97.8486<165.349 235.651 109.793 236.599 109.793 272.853>
LayerCount: 2
Fore
SplineSet
210.7265625 -7.5498046875 m 0
 115.063476562 -7.5498046875 52.0751953125 54.5166015625 52.0751953125 163.452148438 c 2
 52.0751953125 235.65234375 l 2
 52.0751953125 290.192382812 69.2890625 333.829101562 104.41015625 362.341796875 c 1
 87.3984375 377.0546875 55.875 413.180664062 55.875 478.8515625 c 2
 55.875 539.65234375 l 2
 55.875 586.076171875 69.654296875 625.446289062 98.1865234375 655.060546875 c 0
 126.77734375 684.737304688 165.291015625 699.250976562 210.725585938 699.250976562 c 0
 256.721679688 699.250976562 295.568359375 684.794921875 324.21484375 655.060546875 c 0
 352.745117188 625.444335938 366.525390625 586.07421875 366.525390625 539.651367188 c 2
 366.525390625 478.850585938 l 2
 366.525390625 451.904296875 360.684570312 398.081054688 318.321289062 362.071289062 c 1
 353.21875 333.553710938 370.325195312 290.01953125 370.325195312 235.651367188 c 2
 370.325195312 163.451171875 l 2
 370.325195312 56.134765625 309.15625 -7.5498046875 210.7265625 -7.5498046875 c 0
268.676757812 539.650390625 m 2
 268.676757812 565.068359375 260.9140625 606.150390625 210.7265625 606.150390625 c 0
 191.094726562 606.150390625 178.458984375 600.30078125 169.107421875 589.353515625 c 0
 159.33984375 577.916992188 153.7265625 562.081054688 153.7265625 539.650390625 c 2
 153.7265625 478.849609375 l 2
 153.7265625 453.474609375 159.517578125 436.044921875 168.87890625 424.578125 c 0
 177.825195312 413.618164062 190.409179688 407.600585938 210.725585938 407.600585938 c 0
 232.501953125 407.600585938 245.301757812 413.911132812 253.759765625 424.754882812 c 0
 263.0703125 436.692382812 268.676757812 454.1328125 268.676757812 478.849609375 c 2
 268.676757812 539.650390625 l 2
210.7265625 85.548828125 m 0
 235.896484375 85.548828125 272.4765625 91.5234375 272.4765625 165.348632812 c 2
 272.4765625 236.598632812 l 2
 272.4765625 309.107421875 236.450195312 315.44921875 210.7265625 315.44921875 c 0
 187.80859375 315.44921875 174.409179688 308.66015625 165.576171875 296.735351562 c 0
 155.821289062 283.56640625 149.926757812 264.024414062 149.926757812 236.598632812 c 2
 149.926757812 165.348632812 l 2
 149.926757812 137.224609375 155.876953125 117.357421875 165.576171875 104.262695312 c 0
 174.409179688 92.337890625 187.80859375 85.548828125 210.7265625 85.548828125 c 0
EndSplineSet
EndChar

StartChar: nine
Encoding: 57 57 27
Width: 397
GlyphClass: 2
Flags: MW
HStem: 1 21G<107.146 213.54 107.146 107.146> 265.099 95<151.873 214.502> 603.299 95.9512<201.284 226.558>
VStem: 47.3252 103.552<424.7 430.399 430.399 532.05 532.05 532.999 395.356 557.055> 263.926 103.551<426.599 435.15 435.15 530.15 409.762 532.049 409.762 555.804>
LayerCount: 2
Fore
SplineSet
207.875 699.25 m 0
 305.7734375 699.25 367.4765625 634.220703125 367.4765625 530.150390625 c 2
 367.4765625 435.150390625 l 2
 367.4765625 384.373046875 361.16796875 352.459960938 335.748046875 291.735351562 c 2
 213.540039062 1 l 1
 107.146484375 1 l 1
 218.221679688 266.853515625 l 1
 210.828125 265.6796875 203.254882812 265.098632812 195.526367188 265.098632812 c 0
 108.21875 265.098632812 47.3251953125 322.592773438 47.3251953125 424.700195312 c 2
 47.3251953125 532.049804688 l 2
 47.3251953125 582.059570312 61.4091796875 623.735351562 91.1396484375 654.19140625 c 0
 120.727539062 684.500976562 160.631835938 699.25 207.875 699.25 c 0
207.875976562 360.098632812 m 0
 221.127929688 360.098632812 263.92578125 360.938476562 263.92578125 426.598632812 c 2
 263.92578125 532.048828125 l 2
 263.92578125 579.55859375 245.240234375 603.298828125 207.875976562 603.298828125 c 0
 194.692382812 603.298828125 150.876953125 603.0859375 150.876953125 532.999023438 c 2
 150.876953125 430.399414062 l 2
 150.876953125 360.3125 194.692382812 360.098632812 207.875976562 360.098632812 c 0
EndSplineSet
EndChar

StartChar: colon
Encoding: 58 58 28
Width: 172
GlyphClass: 2
Flags: MW
HStem: 1 118.75<41.626 149.926 41.626 149.926> 322.1 118.75<41.626 149.926 41.626 149.926>
VStem: 41.626 108.3<1 119.75 1 119.75 322.1 440.85>
LayerCount: 2
Fore
SplineSet
41.6259765625 119.75 m 1
 149.92578125 119.75 l 1
 149.92578125 1 l 1
 41.6259765625 1 l 1
 41.6259765625 119.75 l 1
41.6259765625 440.849609375 m 1
 149.92578125 440.849609375 l 1
 149.92578125 322.099609375 l 1
 41.6259765625 322.099609375 l 1
 41.6259765625 440.849609375 l 1
EndSplineSet
EndChar

StartChar: semicolon
Encoding: 59 59 29
Width: 172
GlyphClass: 2
Flags: MW
HStem: -153.322 21G<49.2266 49.2266> 322.1 118.75<41.626 149.926 41.626 149.926>
VStem: 41.626 108.3<322.1 440.85 322.1 440.85> 49.2266 98.7998<-67.5986 123.55 -67.5986 123.55 -67.5986 123.55>
LayerCount: 2
Fore
SplineSet
49.2265625 123.549804688 m 1xd0
 148.026367188 123.549804688 l 1
 148.026367188 -67.5986328125 l 1
 49.2265625 -153.322265625 l 1
 49.2265625 123.549804688 l 1xd0
41.6259765625 440.849609375 m 1xe0
 149.92578125 440.849609375 l 1
 149.92578125 322.099609375 l 1
 41.6259765625 322.099609375 l 1
 41.6259765625 440.849609375 l 1xe0
EndSplineSet
EndChar

StartChar: less
Encoding: 60 60 30
Width: 421
GlyphClass: 2
Flags: W
LayerCount: 2
Fore
SplineSet
40.67578125 238.401367188 m 1
 40.67578125 322.198242188 l 1
 398.826171875 468.189453125 l 1
 398.826171875 367.552734375 l 1
 182.37109375 280.299804688 l 1
 398.826171875 193.046875 l 1
 398.826171875 92.41015625 l 1
 40.67578125 238.401367188 l 1
EndSplineSet
Substitution2: "'rtla' Right to Left Alternates lookup 0 subtable" greater
EndChar

StartChar: equal
Encoding: 61 61 31
Width: 421
GlyphClass: 2
Flags: MW
HStem: 142.55 96.9004<40.6758 398.826 40.6758 398.826> 320.2 95.9502<40.6758 398.826 40.6758 398.826>
LayerCount: 2
Fore
SplineSet
40.67578125 416.150390625 m 1
 398.826171875 416.150390625 l 1
 398.826171875 320.200195312 l 1
 40.67578125 320.200195312 l 1
 40.67578125 416.150390625 l 1
40.67578125 239.450195312 m 1
 398.826171875 239.450195312 l 1
 398.826171875 142.549804688 l 1
 40.67578125 142.549804688 l 1
 40.67578125 239.450195312 l 1
EndSplineSet
EndChar

StartChar: greater
Encoding: 62 62 32
Width: 421
GlyphClass: 2
Flags: W
LayerCount: 2
Fore
SplineSet
40.67578125 367.552734375 m 1
 40.67578125 468.189453125 l 1
 398.826171875 322.198242188 l 1
 398.826171875 238.401367188 l 1
 40.67578125 92.41015625 l 1
 40.67578125 193.046875 l 1
 257.130859375 280.299804688 l 1
 40.67578125 367.552734375 l 1
EndSplineSet
Substitution2: "'rtla' Right to Left Alternates lookup 0 subtable" less
EndChar

StartChar: question
Encoding: 63 63 33
Width: 366
GlyphClass: 2
Flags: MW
HStem: 0.998047 126.351<134.727 243.026 134.727 243.026> 604.249 95.9512<178.119 199.172>
VStem: 31.1758 103.551<487.4 504.5> 134.727 108.3<0.998047 127.349 0.998047 127.349> 243.026 103.55<514.695 555.319 506.651 565.868>
LayerCount: 2
Fore
SplineSet
243.026367188 530.149414062 m 0xe8
 243.026367188 601.586914062 208.518554688 604.249023438 189.826171875 604.249023438 c 0
 166.411132812 604.249023438 154.924804688 597.224609375 148.174804688 585.361328125 c 0
 140.313476562 571.543945312 134.7265625 544.374023438 134.7265625 504.5 c 2
 134.7265625 487.400390625 l 1
 31.17578125 487.400390625 l 1
 31.17578125 504.5 l 2
 31.17578125 559.315429688 40.5751953125 603.736328125 61.568359375 637.071289062 c 0
 88.263671875 679.458007812 132.635742188 700.200195312 188.875976562 700.200195312 c 0
 237.875976562 700.200195312 278.237304688 685.200195312 306.192382812 653.565429688 c 0
 333.71484375 622.421875 346.576171875 580.487304688 346.576171875 530.150390625 c 0
 346.576171875 483.15234375 336.497070312 452.625976562 297.786132812 384.8828125 c 2
 262.498046875 325.750976562 l 2
 245.321289062 296.765625 241.125976562 282.1953125 241.125976562 247.049804688 c 2
 241.125976562 170.099609375 l 1
 137.576171875 170.099609375 l 1
 137.576171875 251.799804688 l 2
 137.576171875 299.079101562 145.883789062 323.514648438 173.115234375 370.548828125 c 2
 213.112304688 437.209960938 l 2
 238.387695312 479.778320312 243.026367188 499.240234375 243.026367188 530.149414062 c 0xe8
134.7265625 127.348632812 m 1xd0
 243.026367188 127.348632812 l 1
 243.026367188 0.998046875 l 1
 134.7265625 0.998046875 l 1
 134.7265625 127.348632812 l 1xd0
EndSplineSet
EndChar

StartChar: at
Encoding: 64 64 34
Width: 721
GlyphClass: 2
Flags: MW
HStem: -120.6 92.1494<331.563 399.857 331.563 425.18> 54.2002 91.2002<542.771 557.267 542.771 569.248> 415.2 93.0996<357.162 358.891 301.499 375.858> 600.451 92.1484<331.503 403.12>
VStem: 50.1748 96.9014<215.7 216.651 216.651 362 362 362.001> 224.025 99.749<212.85 213.8 213.8 351.55> 411.173 98.8037<214.75 350.6 350.6 362.954> 590.727 95.9473<216.651 223.3 223.3 369.601 369.601 370.55>
LayerCount: 2
Fore
SplineSet
367.4765625 -120.599609375 m 0
 177.421875 -120.599609375 50.1748046875 5.7451171875 50.1748046875 215.700195312 c 2
 50.1748046875 362 l 2
 50.1748046875 559.622070312 173.123046875 692.599609375 367.475585938 692.599609375 c 0
 557.283203125 692.599609375 686.673828125 562.334960938 686.673828125 370.549804688 c 2
 686.673828125 223.299804688 l 2
 686.673828125 171.025390625 675.747070312 128.888671875 650.930664062 98.88671875 c 0
 626.123046875 68.89453125 590.520507812 54.2001953125 547.974609375 54.2001953125 c 0
 521.881835938 54.2001953125 477.258789062 60.5205078125 446.758789062 98.8955078125 c 1
 424.834960938 68.625 393.609375 54.2001953125 348.475585938 54.2001953125 c 0
 305.817382812 54.2001953125 224.025390625 68.0146484375 224.025390625 212.849609375 c 2
 224.025390625 352.5 l 2
 224.025390625 444.380859375 256.422851562 508.299804688 346.575195312 508.299804688 c 0
 371.20703125 508.299804688 393.090820312 502.125 411.17578125 489.99609375 c 1
 411.17578125 500.700195312 l 1
 509.9765625 500.700195312 l 1
 509.9765625 194.799804688 l 2
 509.9765625 175.907226562 514.5390625 164.168945312 521.158203125 156.948242188 c 0
 528.333007812 149.12109375 536.616210938 145.400390625 548.92578125 145.400390625 c 0
 565.608398438 145.400390625 573.821289062 150.403320312 579.487304688 159.5859375 c 0
 586.080078125 170.26953125 590.7265625 189.1796875 590.7265625 216.651367188 c 2
 590.7265625 369.600585938 l 2
 590.7265625 442.380859375 570.508789062 497.85546875 531.349609375 538.754882812 c 0
 492.33203125 579.506835938 438.762695312 600.451171875 367.4765625 600.451171875 c 0
 295.530273438 600.451171875 242.44140625 579.345703125 204.770507812 538.51171875 c 0
 166.950195312 497.515625 147.076171875 439.5546875 147.076171875 362.000976562 c 2
 147.076171875 216.651367188 l 2
 147.076171875 137.122070312 167.015625 77.4697265625 204.930664062 35.212890625 c 0
 242.654296875 -6.830078125 295.650390625 -28.4501953125 367.4765625 -28.4501953125 c 0
 432.23828125 -28.4501953125 477.799804688 -15.021484375 524.008789062 16.96875 c 2
 538.571289062 27.05078125 l 1
 587.487304688 -49.380859375 l 1
 544.294921875 -78.787109375 482.8828125 -120.599609375 367.4765625 -120.599609375 c 0
411.172851562 214.75 m 2
 411.172851562 350.599609375 l 2
 411.172851562 375.307617188 406.512695312 392.0625 399.884765625 401.784179688 c 0
 394.353515625 409.896484375 385.193359375 415.200195312 366.5234375 415.200195312 c 0
 347.799804688 415.200195312 339.294921875 409.911132812 334.412109375 402.237304688 c 0
 328.131835938 392.369140625 323.774414062 375.686523438 323.774414062 351.549804688 c 2
 323.774414062 213.799804688 l 2
 323.774414062 188.35546875 328.333984375 170.905273438 334.833007812 160.8203125 c 0
 340.228515625 152.44921875 348.762695312 147.299804688 366.525390625 147.299804688 c 0
 385.66796875 147.299804688 394.59375 152.827148438 399.936523438 161.486328125 c 0
 406.719726562 172.479492188 411.172851562 190.025390625 411.172851562 214.75 c 2
EndSplineSet
EndChar

StartChar: A
Encoding: 65 65 35
Width: 460
GlyphClass: 2
Flags: MW
HStem: 1 21G<5.94043 5.94043 5.94043 113.881 362.672 362.672 362.672 471.562> 168.2 94.0498<179.415 297.137 179.415 320.871 155.681 297.137> 670.7 20G<193.858 283.644 283.644 283.644>
LayerCount: 2
Fore
SplineSet
5.9404296875 1 m 1
 193.858398438 690.700195312 l 1
 283.643554688 690.700195312 l 1
 471.5625 1 l 1
 362.671875 1 l 1
 320.87109375 168.200195312 l 1
 155.680664062 168.200195312 l 1
 113.880859375 1 l 1
 5.9404296875 1 l 1
179.415039062 262.25 m 1
 297.13671875 262.25 l 1
 238.276367188 498.38671875 l 1
 179.415039062 262.25 l 1
EndSplineSet
EndChar

StartChar: B
Encoding: 66 66 36
Width: 469
GlyphClass: 2
Flags: MW
HStem: 1.00098 95.9502<163.227 239.227 239.227 244.926> 309.751 95.9502<163.227 238.276 238.276 239.227 163.227 238.276> 594.751 95.9502<163.227 239.227 163.227 163.227>
VStem: 59.6758 103.551<96.9512 309.751 405.701 594.751> 330.426 103.551<183.501 225.625 138.901 248.929>
LayerCount: 2
Fore
SplineSet
363.665039062 359.661132812 m 1
 423.438476562 323.563476562 433.9765625 252.650390625 433.9765625 198.599609375 c 0
 433.9765625 79.203125 381.75 1.0009765625 244.92578125 1.0009765625 c 2
 59.67578125 1.0009765625 l 1
 59.67578125 690.701171875 l 1
 243.9765625 690.701171875 l 2
 335.838867188 690.701171875 427.326171875 658.456054688 427.326171875 502.599609375 c 0
 427.326171875 455.264648438 416.568359375 396.043945312 363.665039062 359.661132812 c 1
238.276367188 405.701171875 m 2
 285.321289062 405.701171875 323.776367188 423.203125 323.776367188 498.80078125 c 0
 323.776367188 537.439453125 315.651367188 561.66015625 304.111328125 574.104492188 c 0
 292.510742188 586.615234375 272.1640625 594.750976562 239.2265625 594.750976562 c 2
 163.2265625 594.750976562 l 1
 163.2265625 405.701171875 l 1
 238.276367188 405.701171875 l 2
330.42578125 203.350585938 m 0
 330.42578125 294.506835938 283.774414062 309.750976562 239.2265625 309.750976562 c 2
 163.2265625 309.750976562 l 1
 163.2265625 96.951171875 l 1
 239.2265625 96.951171875 l 2
 274.419921875 96.951171875 296.102539062 106.216796875 308.801757812 121.268554688 c 0
 322.057617188 136.977539062 330.42578125 163.651367188 330.42578125 203.350585938 c 0
EndSplineSet
EndChar

StartChar: C
Encoding: 67 67 37
Width: 476
GlyphClass: 2
Flags: MW
HStem: -6.59961 96.8994<228.729 274.896 228.729 276.168> 602.35 96.9004<223.617 262.968>
VStem: 52.0762 103.551<209.05 476> 338.027 101.649<200.5 226.15 166.513 226.15>
LayerCount: 2
Fore
SplineSet
248.7265625 90.2998046875 m 0
 301.064453125 90.2998046875 338.02734375 119.110351562 338.02734375 200.5 c 2
 338.02734375 226.150390625 l 1
 439.676757812 226.150390625 l 1
 439.676757812 199.549804688 l 2
 439.676757812 133.475585938 422.763671875 80.90625 386.033203125 45.255859375 c 0
 350.25 10.525390625 303.609375 -6.599609375 248.7265625 -6.599609375 c 0
 191.276367188 -6.599609375 142.897460938 11.5244140625 106.428710938 48.34375 c 0
 69.255859375 85.8740234375 52.076171875 140.490234375 52.076171875 209.049804688 c 2
 52.076171875 482.650390625 l 2
 52.076171875 551.772460938 69.033203125 606.66796875 105.895507812 644.24609375 c 0
 142.068359375 681.122070312 190.329101562 699.25 247.776367188 699.25 c 0
 303.28515625 699.25 350.5234375 681.9765625 386.924804688 646.975585938 c 0
 424.31640625 611.021484375 441.577148438 557.938476562 441.577148438 491.200195312 c 2
 441.577148438 465.549804688 l 1
 338.02734375 465.549804688 l 1
 338.02734375 489.299804688 l 2
 338.02734375 532.096679688 328.59375 560.268554688 313.592773438 576.5 c 0
 297.784179688 593.604492188 277.208984375 602.349609375 248.7265625 602.349609375 c 0
 198.506835938 602.349609375 155.626953125 580.919921875 155.626953125 476 c 2
 155.626953125 208.099609375 l 2
 155.626953125 102.465820312 208.731445312 90.2998046875 248.7265625 90.2998046875 c 0
EndSplineSet
EndChar

StartChar: D
Encoding: 68 68 38
Width: 475
GlyphClass: 2
Flags: MW
HStem: 1 95.9502<163.227 246.826 163.227 246.826> 594.75 95.9502<163.227 246.826 163.227 163.227>
VStem: 59.6758 103.551<96.9502 594.75 96.9502 690.7 96.9502 690.7> 337.076 103.55<215.7 216.65 216.65 468.4 468.4 475.05>
LayerCount: 2
Fore
SplineSet
59.67578125 690.700195312 m 1
 246.826171875 690.700195312 l 2
 303.650390625 690.700195312 351.434570312 672.72265625 387.283203125 636.169921875 c 0
 423.864257812 598.87109375 440.625976562 544.1328125 440.625976562 475.049804688 c 2
 440.625976562 216.650390625 l 2
 440.625976562 148.15234375 423.821289062 93.6171875 387.340820312 56.0634765625 c 0
 351.505859375 19.1748046875 303.692382812 1 246.826171875 1 c 2
 59.67578125 1 l 1
 59.67578125 690.700195312 l 1
337.076171875 468.400390625 m 2
 337.076171875 582.146484375 283.08984375 594.75 246.826171875 594.75 c 2
 163.2265625 594.75 l 1
 163.2265625 96.9501953125 l 1
 246.826171875 96.9501953125 l 2
 279.291015625 96.9501953125 337.076171875 107.299804688 337.076171875 215.700195312 c 2
 337.076171875 468.400390625 l 2
EndSplineSet
EndChar

StartChar: E
Encoding: 69 69 39
Width: 404
GlyphClass: 2
Flags: MW
HStem: 1 95.9502<162.276 385.526 162.276 385.526> 303.1 96.9004<162.276 354.176 162.276 354.176> 594.75 95.9502<162.276 385.526 162.276 162.276>
VStem: 59.6758 102.601<96.9502 96.9502 96.9502 303.1 400 594.75>
LayerCount: 2
Fore
SplineSet
162.276367188 96.9501953125 m 1
 385.526367188 96.9501953125 l 1
 385.526367188 1 l 1
 59.67578125 1 l 1
 59.67578125 690.700195312 l 1
 385.526367188 690.700195312 l 1
 385.526367188 594.75 l 1
 162.276367188 594.75 l 1
 162.276367188 400 l 1
 354.17578125 400 l 1
 354.17578125 303.099609375 l 1
 162.276367188 303.099609375 l 1
 162.276367188 96.9501953125 l 1
EndSplineSet
EndChar

StartChar: F
Encoding: 70 70 40
Width: 398
GlyphClass: 2
Flags: MW
HStem: 1 21G<59.6758 163.227 59.6758 59.6758> 300.25 96.9004<163.227 355.126 163.227 355.126> 594.75 95.9502<163.227 385.526 163.227 163.227>
VStem: 59.6758 103.551<1 300.25 1 397.15 397.15 594.75>
LayerCount: 2
Fore
SplineSet
163.2265625 300.25 m 1
 163.2265625 1 l 1
 59.67578125 1 l 1
 59.67578125 690.700195312 l 1
 385.526367188 690.700195312 l 1
 385.526367188 594.75 l 1
 163.2265625 594.75 l 1
 163.2265625 397.150390625 l 1
 355.125976562 397.150390625 l 1
 355.125976562 300.25 l 1
 163.2265625 300.25 l 1
EndSplineSet
EndChar

StartChar: G
Encoding: 71 71 41
Width: 476
GlyphClass: 2
Flags: MW
HStem: -6.59961 96.8994<228.292 269.945 228.292 276.188> 279.35 92.1504<229.727 338.026 229.727 441.576> 602.35 96.9004<230.234 262.417>
VStem: 52.0771 103.549<209.05 476> 338.026 103.55<205.25 208.1 208.1 279.35 279.35 279.35 472.2 500.7>
LayerCount: 2
Fore
SplineSet
247.776367188 90.2998046875 m 0
 292.114257812 90.2998046875 338.026367188 108.798828125 338.026367188 205.25 c 2
 338.026367188 279.349609375 l 1
 229.7265625 279.349609375 l 1
 229.7265625 371.5 l 1
 441.576171875 371.5 l 1
 441.576171875 208.099609375 l 2
 441.576171875 139.612304688 424.778320312 85.1923828125 388.233398438 47.9296875 c 0
 352.383789062 11.3779296875 304.600585938 -6.599609375 247.776367188 -6.599609375 c 0
 190.329101562 -6.599609375 142.068359375 11.52734375 105.895507812 48.4033203125 c 0
 69.068359375 85.9453125 52.0771484375 140.521484375 52.0771484375 209.049804688 c 2
 52.0771484375 482.650390625 l 2
 52.0771484375 551.772460938 69.0341796875 606.66796875 105.896484375 644.24609375 c 0
 142.069335938 681.122070312 190.330078125 699.25 247.77734375 699.25 c 0
 303.819335938 699.25 351.233398438 682.211914062 387.396484375 647.453125 c 0
 424.141601562 612.134765625 441.576171875 562.11328125 441.576171875 500.700195312 c 2
 441.576171875 472.200195312 l 1
 338.026367188 472.200195312 l 1
 338.026367188 500.700195312 l 2
 338.026367188 535.892578125 329.17578125 560.368164062 313.681640625 576.87890625 c 0
 297.970703125 593.620117188 277.056640625 602.349609375 247.776367188 602.349609375 c 0
 212.69140625 602.349609375 155.625976562 593.216796875 155.625976562 476 c 2
 155.625976562 208.099609375 l 2
 155.625976562 101.913085938 208.80859375 90.2998046875 247.776367188 90.2998046875 c 0
EndSplineSet
EndChar

StartChar: H
Encoding: 72 72 42
Width: 476
GlyphClass: 2
Flags: MW
HStem: 1 21G<59.6758 163.227 59.6758 59.6758 330.426 433.977 330.426 330.426> 304.05 95.9502<163.227 330.426 163.227 330.426> 670.7 20G<59.6758 163.227 163.227 163.227 330.426 433.977 433.977 433.977>
VStem: 59.6758 103.551<1 304.05 1 400 400 690.7> 330.426 103.551<1 304.05 304.05 304.05 400 690.7 1 690.7>
LayerCount: 2
Fore
SplineSet
433.9765625 690.700195312 m 1
 433.9765625 1 l 1
 330.42578125 1 l 1
 330.42578125 304.049804688 l 1
 163.2265625 304.049804688 l 1
 163.2265625 1 l 1
 59.67578125 1 l 1
 59.67578125 690.700195312 l 1
 163.2265625 690.700195312 l 1
 163.2265625 400 l 1
 330.42578125 400 l 1
 330.42578125 690.700195312 l 1
 433.9765625 690.700195312 l 1
EndSplineSet
EndChar

StartChar: I
Encoding: 73 73 43
Width: 214
GlyphClass: 2
Flags: MW
HStem: 1 21G<65.376 167.977 65.376 65.376> 670.7 20G<65.376 167.977 167.977 167.977>
VStem: 65.376 102.601<1 690.7 1 690.7>
LayerCount: 2
Fore
SplineSet
65.3759765625 690.700195312 m 1
 167.9765625 690.700195312 l 1
 167.9765625 1 l 1
 65.3759765625 1 l 1
 65.3759765625 690.700195312 l 1
EndSplineSet
EndChar

StartChar: J
Encoding: 74 74 44
Width: 271
GlyphClass: 2
Flags: MW
HStem: 1 95.9502<25.4766 70.127 70.127 75.8262 25.4766 70.127> 670.7 20G<120.477 224.027 224.027 224.027>
VStem: 120.477 103.551<155.85 690.7>
LayerCount: 2
Fore
SplineSet
70.126953125 96.9501953125 m 2
 90.921875 96.9501953125 120.4765625 102.296875 120.4765625 155.849609375 c 2
 120.4765625 690.700195312 l 1
 224.02734375 690.700195312 l 1
 224.02734375 148.25 l 2
 224.02734375 102.895507812 211.865234375 65.458984375 185.204101562 39.1748046875 c 0
 158.619140625 12.96484375 121.141601562 1 75.826171875 1 c 2
 25.4765625 1 l 1
 25.4765625 96.9501953125 l 1
 70.126953125 96.9501953125 l 2
EndSplineSet
EndChar

StartChar: K
Encoding: 75 75 45
Width: 460
GlyphClass: 2
Flags: MW
HStem: 1 21G<59.6758 163.227 59.6758 59.6758 365.064 478.827 365.064 365.064> 670.7 20G<59.6758 163.227 163.227 163.227 346.188 459.188 459.188 459.188>
VStem: 59.6758 103.551<1 189.204 372.794 690.7>
LayerCount: 2
Fore
SplineSet
365.064453125 1 m 1
 227.8828125 299.4140625 l 1
 163.2265625 189.204101562 l 1
 163.2265625 1 l 1
 59.67578125 1 l 1
 59.67578125 690.700195312 l 1
 163.2265625 690.700195312 l 1
 163.2265625 372.793945312 l 1
 346.1875 690.700195312 l 1
 459.188476562 690.700195312 l 1
 290.825195312 405.69921875 l 1
 478.827148438 1 l 1
 365.064453125 1 l 1
EndSplineSet
EndChar

StartChar: L
Encoding: 76 76 46
Width: 393
GlyphClass: 2
Flags: MW
HStem: 1 95.9502<163.227 385.526 163.227 385.526> 670.7 20G<59.6758 163.227 163.227 163.227>
VStem: 59.6758 103.551<96.9502 690.7 96.9502 690.7 96.9502 690.7>
LayerCount: 2
Fore
SplineSet
59.67578125 690.700195312 m 1
 163.2265625 690.700195312 l 1
 163.2265625 96.9501953125 l 1
 385.526367188 96.9501953125 l 1
 385.526367188 1 l 1
 59.67578125 1 l 1
 59.67578125 690.700195312 l 1
EndSplineSet
EndChar

StartChar: M
Encoding: 77 77 47
Width: 591
GlyphClass: 2
Flags: MW
HStem: 1 21G<59.6758 163.227 59.6758 59.6758 444.426 547.977 444.426 444.426> 670.7 20G<59.6758 157.793 157.793 157.793 449.809 547.977 547.977 547.977>
VStem: 59.6758 103.551<1 427.159 1 690.7> 444.426 103.551<1 429.311 429.311 429.311>
LayerCount: 2
Fore
SplineSet
547.9765625 690.700195312 m 1
 547.9765625 1 l 1
 444.42578125 1 l 1
 444.42578125 429.310546875 l 1
 338.3828125 153 l 1
 326.625976562 153 l 1
 281.026367188 153 l 1
 269.303710938 153 l 1
 163.2265625 427.159179688 l 1
 163.2265625 1 l 1
 59.67578125 1 l 1
 59.67578125 690.700195312 l 1
 157.79296875 690.700195312 l 1
 304.6796875 316.004882812 l 1
 449.80859375 690.700195312 l 1
 547.9765625 690.700195312 l 1
EndSplineSet
EndChar

StartChar: N
Encoding: 78 78 48
Width: 499
GlyphClass: 2
Flags: MW
HStem: 1 21G<59.6758 163.227 59.6758 59.6758 359.22 456.776 359.22 359.22> 670.7 20G<59.6758 157.241 157.241 157.241 353.227 456.776 456.776 456.776>
VStem: 59.6758 103.551<1 441.154 1 690.7> 353.227 103.55<249.734 690.7 1 690.7>
LayerCount: 2
Fore
SplineSet
456.776367188 690.700195312 m 1
 456.776367188 1 l 1
 359.219726562 1 l 1
 163.2265625 441.154296875 l 1
 163.2265625 1 l 1
 59.67578125 1 l 1
 59.67578125 690.700195312 l 1
 157.241210938 690.700195312 l 1
 353.2265625 249.734375 l 1
 353.2265625 690.700195312 l 1
 456.776367188 690.700195312 l 1
EndSplineSet
EndChar

StartChar: O
Encoding: 79 79 49
Width: 476
GlyphClass: 2
Flags: MW
HStem: -6.59961 96.9004<228.292 267.009 228.292 275.261> 602.351 96.9004<225.675 265.908>
VStem: 52.0762 103.55<209.051 476.001> 338.026 103.55<208.101 209.05 209.05 476.001 476.001 482.65>
LayerCount: 2
Fore
SplineSet
52.076171875 209.05078125 m 2
 52.076171875 482.651367188 l 2
 52.076171875 552.328125 68.8017578125 607.38671875 105.418945312 644.720703125 c 0
 141.311523438 681.317382812 189.423828125 699.250976562 246.826171875 699.250976562 c 0
 304.228515625 699.250976562 352.340820312 681.317382812 388.233398438 644.720703125 c 0
 424.849609375 607.385742188 441.576171875 552.327148438 441.576171875 482.650390625 c 2
 441.576171875 209.049804688 l 2
 441.576171875 140.521484375 424.583007812 85.9453125 387.756835938 48.4033203125 c 0
 351.626953125 11.572265625 303.6953125 -6.599609375 246.826171875 -6.599609375 c 0
 189.3828125 -6.599609375 141.239257812 11.5302734375 105.361328125 48.4638671875 c 0
 68.880859375 86.017578125 52.076171875 140.553710938 52.076171875 209.05078125 c 2
247.776367188 90.30078125 m 0
 286.2421875 90.30078125 338.026367188 105.444335938 338.026367188 208.100585938 c 2
 338.026367188 476.000976562 l 2
 338.026367188 589.747070312 284.040039062 602.350585938 247.776367188 602.350585938 c 0
 203.57421875 602.350585938 155.625976562 586.370117188 155.625976562 476.000976562 c 2
 155.625976562 208.100585938 l 2
 155.625976562 101.9140625 208.80859375 90.30078125 247.776367188 90.30078125 c 0
EndSplineSet
EndChar

StartChar: P
Encoding: 80 80 50
Width: 440
GlyphClass: 2
Flags: MW
HStem: 1 21G<59.6768 163.227 59.6768 59.6768> 278.4 95.9502<163.227 243.027 243.027 246.827 163.227 243.027> 594.751 95.9492<163.227 243.027 163.227 163.227>
VStem: 59.6768 103.55<1 278.4 1 374.351 374.351 594.751> 329.477 102.601<461.4 504.56>
LayerCount: 2
Fore
SplineSet
246.827148438 690.700195312 m 2
 331.940429688 690.700195312 432.077148438 658.958984375 432.077148438 482.650390625 c 0
 432.077148438 428.274414062 424.575195312 278.400390625 246.827148438 278.400390625 c 2
 163.2265625 278.400390625 l 1
 163.2265625 1 l 1
 59.6767578125 1 l 1
 59.6767578125 690.700195312 l 1
 246.827148438 690.700195312 l 2
329.4765625 482.651367188 m 0
 329.4765625 526.46875 320.958984375 555.180664062 308.2265625 570.5546875 c 0
 295.603515625 585.796875 275.362304688 594.750976562 243.02734375 594.750976562 c 2
 163.2265625 594.750976562 l 1
 163.2265625 374.350585938 l 1
 243.02734375 374.350585938 l 2
 275.493164062 374.350585938 295.8515625 383.124023438 308.399414062 397.802734375 c 0
 320.995117188 412.537109375 329.4765625 440.1484375 329.4765625 482.651367188 c 0
EndSplineSet
EndChar

StartChar: Q
Encoding: 81 81 51
Width: 476
GlyphClass: 2
Flags: MW
HStem: -6.59863 96.8994<228.292 251.161> 602.351 96.9004<225.675 265.908>
VStem: 52.0762 103.55<209.051 476.001> 338.026 103.55<208.101 209.05 209.05 476.001 476.001 482.65>
LayerCount: 2
Fore
SplineSet
441.576171875 209.049804688 m 2
 441.576171875 145.541015625 426.021484375 69.8486328125 362.265625 26.373046875 c 1
 416.510742188 -104.395507812 l 1
 327.725585938 -139.91015625 l 1
 272.142578125 -5.3408203125 l 1
 263.934570312 -6.1826171875 255.495117188 -6.5986328125 246.826171875 -6.5986328125 c 0
 189.3828125 -6.5986328125 141.239257812 11.53125 105.361328125 48.46484375 c 0
 68.880859375 86.017578125 52.076171875 140.553710938 52.076171875 209.05078125 c 2
 52.076171875 482.651367188 l 2
 52.076171875 552.328125 68.8017578125 607.38671875 105.418945312 644.720703125 c 0
 141.311523438 681.317382812 189.423828125 699.250976562 246.826171875 699.250976562 c 0
 304.228515625 699.250976562 352.340820312 681.317382812 388.233398438 644.720703125 c 0
 424.849609375 607.385742188 441.576171875 552.327148438 441.576171875 482.650390625 c 2
 441.576171875 209.049804688 l 2
247.776367188 90.30078125 m 0
 286.2421875 90.30078125 338.026367188 105.444335938 338.026367188 208.100585938 c 2
 338.026367188 476.000976562 l 2
 338.026367188 589.747070312 284.040039062 602.350585938 247.776367188 602.350585938 c 0
 203.57421875 602.350585938 155.625976562 586.370117188 155.625976562 476.000976562 c 2
 155.625976562 208.100585938 l 2
 155.625976562 101.9140625 208.80859375 90.30078125 247.776367188 90.30078125 c 0
EndSplineSet
EndChar

StartChar: R
Encoding: 82 82 52
Width: 465
GlyphClass: 2
Flags: MW
HStem: 1 21G<59.6748 163.226 59.6748 59.6748 348.05 458.997 348.05 348.05> 287.9 94.999<163.226 239.75 163.226 248.728> 594.75 95.9502<163.226 163.226 163.226 248.726>
VStem: 59.6748 103.551<1 287.9 1 382.899 382.899 594.75> 328.526 103.55<469.084 507.995>
LayerCount: 2
Fore
SplineSet
432.076171875 488.349609375 m 0
 432.076171875 437.5 423.814453125 344.57421875 340.180664062 305.834960938 c 1
 458.997070312 1 l 1
 348.049804688 1 l 1
 239.75 287.900390625 l 1
 163.225585938 287.900390625 l 1
 163.225585938 1 l 1
 59.6748046875 1 l 1
 59.6748046875 690.700195312 l 1
 249.674804688 690.700195312 l 2
 367.491210938 690.700195312 432.076171875 630.700195312 432.076171875 488.349609375 c 0
163.225585938 594.75 m 1
 163.225585938 382.899414062 l 1
 248.727539062 382.899414062 l 2
 278.864257812 382.899414062 297.170898438 391.674804688 308.688476562 406.953125 c 0
 320.90234375 423.15625 328.526367188 449.818359375 328.526367188 488.349609375 c 0
 328.526367188 527.640625 321.123046875 554.806640625 309.435546875 570.970703125 c 0
 298.725585938 585.782226562 280.369140625 594.75 248.725585938 594.75 c 2
 163.225585938 594.75 l 1
EndSplineSet
EndChar

StartChar: S
Encoding: 83 83 53
Width: 427
GlyphClass: 2
Flags: MW
HStem: -5.65039 95.9502<195.008 242.973 176.96 246.164> 604.251 95.9502<206.863 234.906>
VStem: 27.3779 100.93<197.288 214.75> 34.0234 103.552<497.915 536.524> 303.824 103.551<161.702 207.291>
LayerCount: 2
Fore
SplineSet
219.275390625 604.250976562 m 0xd8
 194.451171875 604.250976562 137.575195312 600.600585938 137.575195312 512.100585938 c 0xd8
 137.575195312 483.729492188 144.333984375 463.716796875 155.903320312 449.932617188 c 0
 167.841796875 435.708007812 190.77734375 420.78125 225.482421875 407.38671875 c 2
 264.447265625 392.180664062 l 2
 310.09375 374.319335938 345.842773438 350.322265625 370.4140625 319.432617188 c 0
 395.803710938 287.514648438 407.375 244.40625 407.375 191.950195312 c 0
 407.375 131.453125 391.633789062 82.1005859375 358.025390625 46.705078125 c 0
 324.240234375 11.1220703125 275.901367188 -5.650390625 216.42578125 -5.650390625 c 0
 173.58984375 -5.650390625 31.4755859375 0.5654296875 27.3779296875 197.288085938 c 2
 27.0146484375 214.75 l 1
 128.307617188 214.75 l 1xe8
 130.803710938 156.509765625 134.645507812 90.2998046875 219.274414062 90.2998046875 c 0
 266.670898438 90.2998046875 303.82421875 108.78125 303.82421875 191 c 0
 303.82421875 223.581054688 296.708007812 245.508789062 285.49609375 258.8671875 c 0
 273.624023438 273.012695312 249.395507812 288.983398438 211.982421875 304.317382812 c 0
 211.849609375 304.37109375 174.022460938 319.500976562 174.022460938 319.500976562 c 2
 129.118164062 337.331054688 94.0908203125 360.600585938 70.126953125 390.203125 c 0
 45.490234375 420.635742188 34.0234375 460.65234375 34.0234375 508.30078125 c 0
 34.0234375 564.748046875 50.2412109375 611.99609375 83.8505859375 647.374023438 c 0
 117.65234375 682.953125 164.174804688 700.201171875 220.223632812 700.201171875 c 0
 273.651367188 700.201171875 318.280273438 684.154296875 351.12890625 650.94921875 c 0
 399.475585938 602.077148438 402.39453125 534.213867188 404.327148438 489.30078125 c 1
 304.78515625 489.30078125 l 1
 302.9921875 520.301757812 301.184570312 551.545898438 283.668945312 575.905273438 c 0
 270.348632812 594.431640625 250.536132812 604.250976562 219.275390625 604.250976562 c 0xd8
EndSplineSet
EndChar

StartChar: T
Encoding: 84 84 54
Width: 371
GlyphClass: 2
Flags: MW
HStem: 1 21G<143.276 245.876 143.276 143.276> 594.75 95.9502<8.37598 143.276 8.37598 380.776 245.876 245.876 245.876 380.776>
VStem: 143.276 102.6<1 594.75 1 594.75>
LayerCount: 2
Fore
SplineSet
143.276367188 594.75 m 1
 8.3759765625 594.75 l 1
 8.3759765625 690.700195312 l 1
 380.776367188 690.700195312 l 1
 380.776367188 594.75 l 1
 245.875976562 594.75 l 1
 245.875976562 1 l 1
 143.276367188 1 l 1
 143.276367188 594.75 l 1
EndSplineSet
EndChar

StartChar: U
Encoding: 85 85 55
Width: 478
GlyphClass: 2
Flags: MW
HStem: -6.59961 96.8994<207.079 263.765 207.079 274.969> 670.7 20G<59.6748 163.226 163.226 163.226 332.325 435.875 435.875 435.875>
VStem: 59.6748 103.551<185.3 189.1 189.1 690.7> 332.325 103.55<189.1 690.7>
LayerCount: 2
Fore
SplineSet
247.776367188 -6.599609375 m 0
 137.922851562 -6.599609375 59.6748046875 71.6552734375 59.6748046875 185.299804688 c 2
 59.6748046875 690.700195312 l 1
 163.225585938 690.700195312 l 1
 163.225585938 189.099609375 l 2
 163.225585938 164.809570312 166.381835938 90.2998046875 247.775390625 90.2998046875 c 0
 279.754882812 90.2998046875 332.325195312 103.341796875 332.325195312 189.099609375 c 2
 332.325195312 690.700195312 l 1
 435.875 690.700195312 l 1
 435.875 185.299804688 l 2
 435.875 129.223632812 418.637695312 82.0126953125 383.424804688 46.4462890625 c 0
 348.301757812 10.9716796875 302.162109375 -6.599609375 247.776367188 -6.599609375 c 0
EndSplineSet
EndChar

StartChar: V
Encoding: 86 86 56
Width: 424
GlyphClass: 2
Flags: MW
HStem: 1 21G<174.486 267.885 174.486 174.486> 670.7 20G<6.55957 116.216 116.216 116.216 325.163 434.812 434.812 434.812>
LayerCount: 2
Fore
SplineSet
6.5595703125 690.700195312 m 1
 116.215820312 690.700195312 l 1
 221.109375 207.353515625 l 1
 325.163085938 690.700195312 l 1
 434.811523438 690.700195312 l 1
 267.884765625 1 l 1
 174.486328125 1 l 1
 6.5595703125 690.700195312 l 1
EndSplineSet
EndChar

StartChar: W
Encoding: 87 87 57
Width: 646
GlyphClass: 2
Flags: MW
HStem: 1 21G<143.465 245.92 143.465 143.465 417.807 520.277 417.807 417.807> 670.7 20G<7.52441 114.933 114.933 114.933 273.196 393.331 393.331 393.331 550.621 654.219 654.219 654.219>
LayerCount: 2
Fore
SplineSet
417.806640625 1 m 1
 331.456054688 475.115234375 l 1
 245.919921875 1 l 1
 143.46484375 1 l 1
 7.5244140625 690.700195312 l 1
 114.932617188 690.700195312 l 1
 195.26953125 224.74609375 l 1
 273.196289062 690.700195312 l 1
 393.331054688 690.700195312 l 1
 471.9765625 225.251953125 l 1
 550.62109375 690.700195312 l 1
 654.21875 690.700195312 l 1
 520.27734375 1 l 1
 417.806640625 1 l 1
EndSplineSet
EndChar

StartChar: X
Encoding: 88 88 58
Width: 416
GlyphClass: 2
Flags: MW
HStem: 1 21G<2.15234 2.15234 2.15234 117.709 316.056 316.056 316.056 432.638> 670.7 20G<14.6172 130.099 130.099 130.099 304.571 420.238 420.238 420.238>
LayerCount: 2
Fore
SplineSet
2.15234375 1 m 1
 158.818359375 358.237304688 l 1
 14.6171875 690.700195312 l 1
 130.098632812 690.700195312 l 1
 218.173828125 473.448242188 l 1
 304.571289062 690.700195312 l 1
 420.23828125 690.700195312 l 1
 275.004882812 359.166015625 l 1
 432.637695312 1 l 1
 316.055664062 1 l 1
 217.30859375 244.463867188 l 1
 117.708984375 1 l 1
 2.15234375 1 l 1
EndSplineSet
EndChar

StartChar: Y
Encoding: 89 89 59
Width: 394
GlyphClass: 2
Flags: MW
HStem: 1 21G<154.676 257.276 154.676 154.676> 670.7 20G<3.6543 116.593 116.593 116.593 295.359 408.298 408.298 408.298>
VStem: 154.676 102.601<1 287.643 1 287.643>
LayerCount: 2
Fore
SplineSet
408.297851562 690.700195312 m 1
 257.276367188 287.642578125 l 1
 257.276367188 1 l 1
 154.67578125 1 l 1
 154.67578125 287.642578125 l 1
 3.654296875 690.700195312 l 1
 116.592773438 690.700195312 l 1
 205.9765625 426.727539062 l 1
 295.359375 690.700195312 l 1
 408.297851562 690.700195312 l 1
EndSplineSet
EndChar

StartChar: Z
Encoding: 90 90 60
Width: 387
GlyphClass: 2
Flags: MW
HStem: 1 95.9502<142.089 376.977 142.089 376.977> 594.75 95.9502<41.626 258.506 41.626 370.326>
LayerCount: 2
Fore
SplineSet
376.9765625 96.9501953125 m 1
 376.9765625 1 l 1
 31.17578125 1 l 1
 31.17578125 83.486328125 l 1
 258.505859375 594.75 l 1
 41.6259765625 594.75 l 1
 41.6259765625 690.700195312 l 1
 370.326171875 690.700195312 l 1
 370.326171875 608.201171875 l 1
 142.088867188 96.9501953125 l 1
 376.9765625 96.9501953125 l 1
EndSplineSet
EndChar

StartChar: bracketleft
Encoding: 91 91 61
Width: 262
GlyphClass: 2
Flags: MW
HStem: -78.7998 95.9502<159.426 229.727 159.426 229.727> 642.25 95.9502<159.426 229.727 159.426 159.426>
VStem: 59.6758 99.75<17.1504 642.25 17.1504 738.2 17.1504 738.2> 59.6758 170.051<-78.7998 17.1504 642.25 738.2>
LayerCount: 2
Fore
SplineSet
59.67578125 738.200195312 m 1xd0
 229.7265625 738.200195312 l 1
 229.7265625 642.25 l 1xd0
 159.42578125 642.25 l 1
 159.42578125 17.150390625 l 1xe0
 229.7265625 17.150390625 l 1
 229.7265625 -78.7998046875 l 1
 59.67578125 -78.7998046875 l 1
 59.67578125 738.200195312 l 1xd0
EndSplineSet
Substitution2: "'rtla' Right to Left Alternates lookup 0 subtable" bracketright
EndChar

StartChar: backslash
Encoding: 92 92 62
Width: 302
GlyphClass: 2
Flags: MW
HStem: -8.5 21G<177.526 274.076 177.526 177.526> 670.7 20G<46.6768 143.226 143.226 143.226>
VStem: 46.6768 227.399
LayerCount: 2
Fore
SplineSet
46.6767578125 690.700195312 m 1
 143.225585938 690.700195312 l 1
 274.076171875 -8.5 l 1
 177.526367188 -8.5 l 1
 46.6767578125 690.700195312 l 1
EndSplineSet
EndChar

StartChar: bracketright
Encoding: 93 93 63
Width: 261
GlyphClass: 2
Flags: MW
HStem: -78.7998 95.9502<50.1758 119.526 50.1758 219.276 50.1758 119.526> 642.25 95.9502<50.1758 119.526 50.1758 219.276>
VStem: 50.1758 169.101<-78.7998 17.1504 17.1504 17.1504 642.25 738.2 -78.7998 738.2> 119.526 99.75<17.1504 642.25 642.25 642.25>
LayerCount: 2
Fore
SplineSet
119.526367188 642.25 m 1xd0
 50.17578125 642.25 l 1
 50.17578125 738.200195312 l 1
 219.276367188 738.200195312 l 1
 219.276367188 -78.7998046875 l 1
 50.17578125 -78.7998046875 l 1
 50.17578125 17.150390625 l 1xe0
 119.526367188 17.150390625 l 1
 119.526367188 642.25 l 1xd0
EndSplineSet
Substitution2: "'rtla' Right to Left Alternates lookup 0 subtable" bracketleft
EndChar

StartChar: asciicircum
Encoding: 94 94 64
Width: 421
GlyphClass: 2
Flags: MW
HStem: 670.7 20G<175.721 261.854 261.854 261.854>
LayerCount: 2
Fore
SplineSet
175.720703125 690.700195312 m 1
 261.853515625 690.700195312 l 1
 408.598632812 267 l 1
 309.596679688 267 l 1
 219.201171875 534.836914062 l 1
 127.969726562 267 l 1
 30.0087890625 267 l 1
 175.720703125 690.700195312 l 1
EndSplineSet
EndChar

StartChar: underscore
Encoding: 95 95 65
Width: 416
GlyphClass: 2
Flags: MW
HStem: -97.7998 81.7002<2.67578 432.076 2.67578 432.076>
LayerCount: 2
Fore
SplineSet
2.67578125 -16.099609375 m 1
 432.076171875 -16.099609375 l 1
 432.076171875 -97.7998046875 l 1
 2.67578125 -97.7998046875 l 1
 2.67578125 -16.099609375 l 1
EndSplineSet
EndChar

StartChar: grave
Encoding: 96 96 66
Width: 498
GlyphClass: 2
Flags: MW
HStem: 548.2 156.75<134.944 361.514 134.944 267.392>
VStem: 134.944 226.569<548.2 704.95>
LayerCount: 2
Fore
SplineSet
134.944335938 704.950195312 m 1
 250.9375 704.950195312 l 1
 361.513671875 548.200195312 l 1
 267.391601562 548.200195312 l 1
 134.944335938 704.950195312 l 1
EndSplineSet
EndChar

StartChar: a
Encoding: 97 97 67
Width: 402
GlyphClass: 2
Flags: MW
HStem: -6.59961 90.249<185.771 199.206> 1 21G<265.826 361.776 265.826 265.826> 232.799 82.6514<204.075 210.727 210.727 262.976 204.075 262.977> 442.75 91.2002<191.906 219.877>
VStem: 40.6748 98.8018<132.405 180.571> 53.0254 95<362.95 387.65 362.95 388.6 362.95 434.563> 262.977 98.7998<158.699 232.799 232.799 232.799>
LayerCount: 2
Fore
SplineSet
53.025390625 388.599609375 m 2xb6
 53.025390625 480.526367188 115.795898438 533.950195312 204.076171875 533.950195312 c 0
 252.732421875 533.950195312 292.790039062 520.39453125 320.8984375 491.17578125 c 0
 348.762695312 462.211914062 361.776367188 422.3203125 361.776367188 374.349609375 c 2
 361.776367188 1 l 1
 265.826171875 1 l 1x76
 265.826171875 19.4736328125 l 1
 243.225585938 2.208984375 215.236328125 -6.599609375 183.17578125 -6.599609375 c 0
 138.977539062 -6.599609375 102.258789062 7.8720703125 76.9736328125 37.990234375 c 0
 52.03515625 67.6962890625 40.6748046875 108.009765625 40.6748046875 156.799804688 c 0xba
 40.6748046875 204.342773438 54.34765625 244.05078125 83.2109375 272.9140625 c 0
 112.333984375 302.037109375 153.668945312 315.450195312 204.075195312 315.450195312 c 2
 262.975585938 315.450195312 l 1
 262.975585938 377.200195312 l 2
 262.975585938 432.194335938 235.6796875 442.75 204.075195312 442.75 c 0
 179.736328125 442.75 148.025390625 435.084960938 148.025390625 387.650390625 c 2
 148.025390625 362.950195312 l 1
 53.025390625 362.950195312 l 1
 53.025390625 388.599609375 l 2xb6
198.375976562 83.6494140625 m 0xba
 228.985351562 83.6494140625 262.9765625 97.44140625 262.9765625 158.69921875 c 2
 262.9765625 232.798828125 l 1
 210.7265625 232.798828125 l 2
 168.805664062 232.798828125 139.4765625 216.921875 139.4765625 157.749023438 c 0
 139.4765625 89.9912109375 173.165039062 83.6494140625 198.375976562 83.6494140625 c 0xba
EndSplineSet
EndChar

StartChar: b
Encoding: 98 98 68
Width: 413
GlyphClass: 2
Flags: MW
HStem: -6.59961 92.1494<219.665 232.657 211.063 255.946> 1 21G<58.7256 157.525 58.7256 58.7256> 441.8 92.1504<218.876 233.683> 670.7 20G<58.7256 157.525 157.525 157.525>
VStem: 58.7256 98.7998<1 18.0996 18.0996 18.2002 508.09 690.7> 281.975 98.8018<185.3 342.05 342.05 349.65>
LayerCount: 2
Fore
SplineSet
380.776367188 349.650390625 m 2x7c
 380.776367188 177.700195312 l 2
 380.776367188 119.155273438 368.65234375 72.73828125 341.006835938 40.6689453125 c 0
 313.989257812 9.328125 277.415039062 -6.599609375 234.4765625 -6.599609375 c 0xbc
 204.853515625 -6.599609375 178.828125 1.859375 157.525390625 18.2001953125 c 1
 157.525390625 18.099609375 l 1
 157.525390625 1 l 1
 58.7255859375 1 l 1
 58.7255859375 690.700195312 l 1
 157.525390625 690.700195312 l 1
 157.525390625 508.08984375 l 1
 178.553710938 525.041992188 204.225585938 533.950195312 233.526367188 533.950195312 c 0
 277.010742188 533.950195312 313.9296875 518.090820312 341.006835938 486.681640625 c 0
 368.65234375 454.612304688 380.776367188 408.194335938 380.776367188 349.650390625 c 2x7c
222.124023438 441.799804688 m 0
 207.375 441.799804688 157.524414062 441.799804688 157.524414062 341.099609375 c 2
 157.524414062 184.349609375 l 2
 157.524414062 148.28125 164.389648438 123.125 175.278320312 107.780273438 c 0
 185.868164062 92.8583984375 200.001953125 85.5498046875 222.124023438 85.5498046875 c 0
 243.189453125 85.5498046875 256.192382812 92.2646484375 265.708984375 105.495117188 c 0
 275.125976562 118.5859375 281.974609375 144.984375 281.974609375 185.299804688 c 2
 281.974609375 342.049804688 l 2
 281.974609375 375.071289062 276.920898438 399.34375 268.735351562 414.8828125 c 0
 258.9296875 433.494140625 245.2421875 441.799804688 222.124023438 441.799804688 c 0
EndSplineSet
EndChar

StartChar: c
Encoding: 99 99 69
Width: 410
GlyphClass: 2
Flags: MW
HStem: -6.59961 92.1494<203.757 228.622 203.757 240.868> 441.801 92.1494<204.329 229.024>
VStem: 50.1758 98.8008<177.7 185.301 185.301 342.051> 279.126 98.7998<167.25 168.2 168.2 197.65 140.633 197.65 329.701 360.101>
LayerCount: 2
Fore
SplineSet
215.4765625 85.5498046875 m 0
 241.766601562 85.5498046875 279.125976562 92.04296875 279.125976562 167.25 c 2
 279.125976562 197.650390625 l 1
 377.92578125 197.650390625 l 1
 377.92578125 168.200195312 l 2
 377.92578125 113.06640625 364.662109375 68.6943359375 335.137695312 38.0625 c 0
 305.952148438 7.7822265625 265.309570312 -6.599609375 216.42578125 -6.599609375 c 0
 165.720703125 -6.599609375 123.799804688 8.033203125 93.919921875 39.0068359375 c 0
 63.5068359375 70.533203125 50.17578125 117.765625 50.17578125 177.700195312 c 2
 50.17578125 349.650390625 l 2
 50.17578125 409.583984375 63.5068359375 456.817382812 93.919921875 488.34375 c 0
 123.75 519.264648438 165.341796875 533.950195312 215.475585938 533.950195312 c 0
 275.877929688 533.950195312 377.92578125 511.540039062 377.92578125 360.100585938 c 2
 377.92578125 329.701171875 l 1
 279.125976562 329.701171875 l 1
 279.125976562 360.100585938 l 2
 279.125976562 435.919921875 241.622070312 441.80078125 216.42578125 441.80078125 c 0
 192.231445312 441.80078125 177.047851562 434.620117188 166.586914062 421.6015625 c 0
 156.458984375 408.997070312 148.9765625 382.931640625 148.9765625 342.05078125 c 2
 148.9765625 185.30078125 l 2
 148.9765625 144.418945312 156.458984375 118.353515625 166.586914062 105.749023438 c 0
 177.134765625 92.6220703125 192.038085938 85.5498046875 215.4765625 85.5498046875 c 0
EndSplineSet
EndChar

StartChar: d
Encoding: 100 100 70
Width: 413
GlyphClass: 2
Flags: MW
HStem: -6.59961 92.1494<198.294 211.288> 1 21G<273.426 372.227 273.426 273.426> 441.8 92.1504<200.834 211.334 175.007 218.247> 670.7 20G<273.426 372.227 372.227 372.227>
VStem: 50.1758 98.8008<177.7 185.3 185.3 342.05> 273.426 98.8008<1 18.1992 18.1992 18.1992 184.35 341.1 341.1 390.816 507.986 690.7 1 690.7>
LayerCount: 2
Fore
SplineSet
50.17578125 177.700195312 m 2xbc
 50.17578125 349.650390625 l 2
 50.17578125 408.194335938 62.2998046875 454.612304688 89.9453125 486.681640625 c 0
 116.962890625 518.021484375 153.537109375 533.950195312 196.4765625 533.950195312 c 0
 226.19140625 533.950195312 252.196289062 525.028320312 273.42578125 507.986328125 c 1
 273.42578125 690.700195312 l 1
 372.2265625 690.700195312 l 1
 372.2265625 1 l 1
 273.42578125 1 l 1x7c
 273.42578125 18.19921875 l 1
 252.123046875 1.859375 226.098632812 -6.599609375 196.4765625 -6.599609375 c 0
 153.537109375 -6.599609375 116.962890625 9.328125 89.9453125 40.6689453125 c 0
 62.2998046875 72.73828125 50.17578125 119.155273438 50.17578125 177.700195312 c 2xbc
208.826171875 85.5498046875 m 0xbc
 223.676757812 85.5498046875 273.42578125 85.5498046875 273.42578125 184.349609375 c 2
 273.42578125 341.099609375 l 2
 273.42578125 440.533203125 227.666992188 441.799804688 208.826171875 441.799804688 c 0
 192.841796875 441.799804688 148.9765625 441.799804688 148.9765625 342.049804688 c 2
 148.9765625 185.299804688 l 2
 148.9765625 144.985351562 155.825195312 118.5859375 165.2421875 105.495117188 c 0
 174.758789062 92.2646484375 187.76171875 85.5498046875 208.826171875 85.5498046875 c 0xbc
EndSplineSet
EndChar

StartChar: e
Encoding: 101 101 71
Width: 409
GlyphClass: 2
Flags: MW
HStem: -6.59961 90.25<205.755 229.158 205.755 239.89> 227.1 83.5996<148.977 279.126 148.977 376.977 148.977 279.126> 441.799 92.1514<202.28 232.705>
VStem: 50.1758 98.8008<185.3 186.249 186.249 227.1 310.699 342.049> 279.126 97.8506<310.699 343.949 343.949 343.95 227.1 383.364>
LayerCount: 2
Fore
SplineSet
215.4765625 -6.599609375 m 0
 136.817382812 -6.599609375 50.17578125 28.8984375 50.17578125 185.299804688 c 2
 50.17578125 343.950195312 l 2
 50.17578125 403.340820312 63.4423828125 450.96875 92.9130859375 484.44140625 c 0
 122.205078125 517.7109375 163.290039062 533.950195312 212.625976562 533.950195312 c 0
 261.971679688 533.950195312 303.267578125 517.719726562 333.149414062 484.59765625 c 0
 363.334960938 451.139648438 376.9765625 403.408203125 376.9765625 343.950195312 c 2
 376.9765625 227.099609375 l 1
 148.9765625 227.099609375 l 1
 148.9765625 186.249023438 l 2
 148.9765625 144.8046875 156.703125 118.168945312 167.4921875 104.854492188 c 0
 178.81640625 90.8798828125 194.133789062 83.650390625 217.375976562 83.650390625 c 0
 240.940429688 83.650390625 278.17578125 88.669921875 278.17578125 164.400390625 c 2
 278.17578125 185.299804688 l 1
 376.026367188 185.299804688 l 1
 376.026367188 165.349609375 l 2
 376.026367188 111.434570312 362.875976562 67.8583984375 333.71484375 37.58984375 c 0
 304.80078125 7.5771484375 264.303710938 -6.599609375 215.4765625 -6.599609375 c 0
279.125976562 343.94921875 m 2
 279.125976562 422.778320312 251.833007812 441.798828125 213.576171875 441.798828125 c 0
 190.983398438 441.798828125 176.662109375 434.786132812 166.319335938 421.388671875 c 0
 156.2421875 408.333984375 148.9765625 382.266601562 148.9765625 342.048828125 c 2
 148.9765625 310.69921875 l 1
 279.125976562 310.69921875 l 1
 279.125976562 343.94921875 l 2
EndSplineSet
EndChar

StartChar: f
Encoding: 102 102 72
Width: 295
GlyphClass: 2
Flags: MW
HStem: 1 21G<98.627 197.427 98.627 98.627> 441.8 84.5498<39.7266 98.627 39.7266 98.627 197.427 281.977> 605.2 85.5<240.177 245.877 245.877 281.977>
VStem: 98.627 98.7998<1 441.8 1 441.8 526.35 545.35 545.35 553.9>
LayerCount: 2
Fore
SplineSet
197.426757812 553.900390625 m 2
 197.426757812 526.349609375 l 1
 281.9765625 526.349609375 l 1
 281.9765625 441.799804688 l 1
 197.426757812 441.799804688 l 1
 197.426757812 1 l 1
 98.626953125 1 l 1
 98.626953125 441.799804688 l 1
 39.7265625 441.799804688 l 1
 39.7265625 526.349609375 l 1
 98.626953125 526.349609375 l 1
 98.626953125 545.349609375 l 2
 98.626953125 589.923828125 110.018554688 626.712890625 135.28515625 652.733398438 c 0
 160.588867188 678.793945312 196.658203125 690.700195312 240.176757812 690.700195312 c 2
 281.9765625 690.700195312 l 1
 281.9765625 605.200195312 l 1
 245.876953125 605.200195312 l 2
 224.705078125 605.200195312 213.336914062 600.127929688 207.979492188 594.436523438 c 0
 202.364257812 588.46875 197.426757812 575.890625 197.426757812 553.900390625 c 2
EndSplineSet
EndChar

StartChar: g
Encoding: 103 103 73
Width: 413
GlyphClass: 2
Flags: MW
HStem: -152.9 90.25<200.865 222.859 200.865 289.477> 31.4004 92.1494<198.244 211.333> 441.8 92.1504<191.989 211.393 175.007 218.41>
VStem: 50.1758 98.8008<214.75 222.35 222.35 343> 273.426 98.8008<27.5996 33.2998 33.2998 55.4824 55.4824 55.4824 222.35 342.05 342.05 391.173 508.332 526.35>
LayerCount: 2
Fore
SplineSet
372.2265625 33.2998046875 m 2
 372.2265625 -1.83203125 368.227539062 -152.900390625 210.7265625 -152.900390625 c 0
 164.797851562 -152.900390625 126.600585938 -140.961914062 98.8388671875 -115.051757812 c 0
 71.298828125 -89.34765625 57.2646484375 -53.9765625 55.88671875 -11.9189453125 c 2
 55.3076171875 5.75 l 1
 150.823242188 5.75 l 1
 152.510742188 -22.1083984375 153.282226562 -34.833984375 168.20703125 -48.693359375 c 0
 177.69921875 -57.5068359375 191.00390625 -62.650390625 210.7265625 -62.650390625 c 0
 234.9921875 -62.650390625 248.833984375 -55.5029296875 257.6015625 -43.2265625 c 0
 267.071289062 -29.9697265625 273.42578125 -6.6943359375 273.42578125 27.599609375 c 2
 273.42578125 55.482421875 l 1
 252.241210938 39.5654296875 226.189453125 31.400390625 196.4765625 31.400390625 c 0
 153.537109375 31.400390625 116.962890625 47.328125 89.9453125 78.6689453125 c 0
 62.3369140625 110.6953125 50.17578125 156.798828125 50.17578125 214.75 c 2
 50.17578125 350.599609375 l 2
 50.17578125 408.55078125 62.3369140625 454.655273438 89.9453125 486.681640625 c 0
 116.962890625 518.021484375 153.537109375 533.950195312 196.4765625 533.950195312 c 0
 226.30859375 533.950195312 252.3359375 525.173828125 273.42578125 508.33203125 c 1
 273.42578125 526.349609375 l 1
 372.2265625 526.349609375 l 1
 372.2265625 33.2998046875 l 2
208.827148438 123.549804688 m 0
 223.6796875 123.549804688 273.42578125 123.549804688 273.42578125 222.349609375 c 2
 273.42578125 342.049804688 l 2
 273.42578125 440.296875 227.993164062 441.799804688 208.826171875 441.799804688 c 0
 175.15234375 441.799804688 148.9765625 422.733398438 148.9765625 343 c 2
 148.9765625 222.349609375 l 2
 148.9765625 182.014648438 155.861328125 155.833007812 165.157226562 143.13671875 c 0
 174.620117188 130.211914062 187.661132812 123.549804688 208.827148438 123.549804688 c 0
EndSplineSet
EndChar

StartChar: h
Encoding: 104 104 74
Width: 416
GlyphClass: 2
Flags: MW
HStem: 1 21G<58.7266 157.526 58.7266 58.7266 277.227 277.227 277.227 376.027> 441.8 92.1504<217.266 247.212> 670.7 20G<58.7266 157.526 157.526 157.526>
VStem: 58.7266 98.7998<1 370.55 509.163 690.7> 277.227 98.8008<1 370.55 370.55 373.4 1 376.985>
LayerCount: 2
Fore
SplineSet
277.2265625 370.549804688 m 2
 277.2265625 383.419921875 277.047851562 441.799804688 217.375976562 441.799804688 c 0
 198.545898438 441.799804688 185.15625 436.014648438 174.276367188 424.41015625 c 0
 163.900390625 413.341796875 157.526367188 396.309570312 157.526367188 370.549804688 c 2
 157.526367188 1 l 1
 58.7265625 1 l 1
 58.7265625 690.700195312 l 1
 157.526367188 690.700195312 l 1
 157.526367188 509.163085938 l 1
 172.887695312 520.310546875 199.104492188 533.950195312 235.426757812 533.950195312 c 0
 278.405273438 533.950195312 314.369140625 519.772460938 339.590820312 490.471679688 c 0
 364.642578125 461.368164062 376.02734375 421.587890625 376.02734375 373.400390625 c 2
 376.02734375 1 l 1
 277.2265625 1 l 1
 277.2265625 370.549804688 l 2
EndSplineSet
EndChar

StartChar: i
Encoding: 105 105 75
Width: 209
GlyphClass: 2
Flags: MW
HStem: 1 21G<64.4258 163.227 64.4258 64.4258> 570.05 119.7<64.4258 164.176 64.4258 164.176>
VStem: 64.4258 98.8008<1 526.35 1 526.35 1 689.75>
LayerCount: 2
Fore
SplineSet
64.42578125 526.349609375 m 1
 163.2265625 526.349609375 l 1
 163.2265625 1 l 1
 64.42578125 1 l 1
 64.42578125 526.349609375 l 1
64.42578125 689.75 m 1
 164.17578125 689.75 l 1
 164.17578125 570.049804688 l 1
 64.42578125 570.049804688 l 1
 64.42578125 689.75 l 1
EndSplineSet
EndChar

StartChar: j
Encoding: 106 106 76
Width: 206
GlyphClass: 2
Flags: MW
HStem: -143.4 92.1504<-21.0742 10.2773 10.2773 12.1758 -21.0742 10.2773> 570.05 119.7<60.626 160.376 60.626 160.376>
VStem: 60.627 99.75<6.7002 526.35>
LayerCount: 2
Fore
SplineSet
60.6259765625 689.75 m 1
 160.375976562 689.75 l 1
 160.375976562 570.049804688 l 1
 60.6259765625 570.049804688 l 1
 60.6259765625 689.75 l 1
10.27734375 -51.25 m 2
 35.869140625 -51.25 60.626953125 -43.6162109375 60.626953125 6.7001953125 c 2
 60.626953125 526.349609375 l 1
 160.376953125 526.349609375 l 1
 160.376953125 3.849609375 l 2
 160.376953125 -41.50390625 148.21484375 -78.94140625 121.5546875 -105.225585938 c 0
 94.96875 -131.435546875 57.4921875 -143.400390625 12.17578125 -143.400390625 c 2
 -21.07421875 -143.400390625 l 1
 -21.07421875 -51.25 l 1
 10.27734375 -51.25 l 2
EndSplineSet
EndChar

StartChar: k
Encoding: 107 107 77
Width: 410
GlyphClass: 2
Flags: MW
HStem: 1 21G<58.7266 157.526 58.7266 58.7266 309.065 421.437 309.065 309.065> 670.7 20G<58.7266 157.526 157.526 157.526>
VStem: 58.7266 98.7998<1 158.191 311.9 690.7>
LayerCount: 2
Fore
SplineSet
421.436523438 1 m 1
 309.065429688 1 l 1
 204.124023438 226.756835938 l 1
 157.526367188 158.19140625 l 1
 157.526367188 1 l 1
 58.7265625 1 l 1
 58.7265625 690.700195312 l 1
 157.526367188 690.700195312 l 1
 157.526367188 311.900390625 l 1
 295.443359375 526.349609375 l 1
 408.422851562 526.349609375 l 1
 266.552734375 318.760742188 l 1
 421.436523438 1 l 1
EndSplineSet
EndChar

StartChar: l
Encoding: 108 108 78
Width: 243
GlyphClass: 2
Flags: MW
HStem: 1 92.1504<184.269 240.177 208.827 240.177 208.827 240.177> 670.7 20G<58.7266 158.477 158.477 158.477>
VStem: 58.7266 99.75<148.25 151.1 151.1 690.7>
LayerCount: 2
Fore
SplineSet
158.4765625 151.099609375 m 2
 158.4765625 100.78515625 183.233398438 93.150390625 208.827148438 93.150390625 c 2
 240.176757812 93.150390625 l 1
 240.176757812 1 l 1
 206.926757812 1 l 2
 161.611328125 1 124.133789062 12.96484375 97.548828125 39.1748046875 c 0
 70.8876953125 65.458984375 58.7265625 102.896484375 58.7265625 148.25 c 2
 58.7265625 690.700195312 l 1
 158.4765625 690.700195312 l 1
 158.4765625 151.099609375 l 2
EndSplineSet
EndChar

StartChar: m
Encoding: 109 109 79
Width: 637
GlyphClass: 2
Flags: MW
HStem: 0.999023 21G<277.227 376.027 277.227 277.227 494.777 494.777 494.777 594.527> 441.799 92.1504<218.785 227.13 427.076 465.656>
VStem: 58.7266 99.75<1 370.55 1 526.351> 277.227 98.8008<0.999023 370.549 370.549 371.499 0.999023 383.096> 494.777 99.75<0.999023 370.549 370.549 373.399 0.999023 377.016>
CounterMasks: 1 38
LayerCount: 2
Fore
SplineSet
494.77734375 370.548828125 m 2
 494.77734375 383.482421875 494.485351562 441.798828125 436.827148438 441.798828125 c 0
 417.325195312 441.798828125 403.713867188 435.840820312 392.897460938 424.063476562 c 0
 382.234375 412.452148438 376.02734375 395.791992188 376.02734375 371.499023438 c 2
 376.02734375 0.9990234375 l 1
 277.2265625 0.9990234375 l 1
 277.2265625 370.548828125 l 2
 277.2265625 395.642578125 271.037109375 412.697265625 260.702148438 424.206054688 c 0
 250.2421875 435.853515625 236.884765625 441.798828125 217.375976562 441.798828125 c 0
 198.641601562 441.798828125 185.561523438 435.965820312 175.000976562 424.206054688 c 0
 164.666015625 412.697265625 158.4765625 395.642578125 158.4765625 370.549804688 c 2
 158.4765625 1 l 1
 58.7265625 1 l 1
 58.7265625 526.350585938 l 1
 156.577148438 526.350585938 l 1
 156.577148438 508.422851562 l 1
 176.314453125 523.153320312 202.142578125 533.94921875 235.426757812 533.94921875 c 0
 262.813476562 533.94921875 307.41015625 526.48046875 342.189453125 484.594726562 c 1
 355.34375 499.903320312 389.845703125 533.94921875 450.126953125 533.94921875 c 0
 495.3203125 533.94921875 532.6328125 520.046875 558.090820312 490.470703125 c 0
 583.142578125 461.3671875 594.52734375 421.586914062 594.52734375 373.399414062 c 2
 594.52734375 0.9990234375 l 1
 494.77734375 0.9990234375 l 1
 494.77734375 370.548828125 l 2
EndSplineSet
EndChar

StartChar: n
Encoding: 110 110 80
Width: 416
GlyphClass: 2
Flags: MW
HStem: 0.999023 21G<277.227 376.027 277.227 277.227> 441.799 92.1504<217.837 247.212>
VStem: 58.7266 98.7998<1 370.55 1 526.351> 277.227 98.8008<0.999023 370.549 370.549 373.399 0.999023 376.984>
LayerCount: 2
Fore
SplineSet
277.2265625 370.548828125 m 2
 277.2265625 383.418945312 277.047851562 441.798828125 217.375976562 441.798828125 c 0
 198.646484375 441.798828125 185.313476562 435.950195312 174.397460938 424.063476562 c 0
 163.811523438 412.537109375 157.526367188 395.569335938 157.526367188 370.549804688 c 2
 157.526367188 1 l 1
 58.7265625 1 l 1
 58.7265625 526.350585938 l 1
 155.626953125 526.350585938 l 1
 155.626953125 508.228515625 l 1
 174.004882812 521.833007812 200.247070312 533.94921875 235.426757812 533.94921875 c 0
 278.46484375 533.94921875 314.466796875 519.553710938 339.66015625 489.9140625 c 0
 364.58984375 460.5859375 376.02734375 421.014648438 376.02734375 373.399414062 c 2
 376.02734375 0.9990234375 l 1
 277.2265625 0.9990234375 l 1
 277.2265625 370.548828125 l 2
EndSplineSet
EndChar

StartChar: o
Encoding: 111 111 81
Width: 410
GlyphClass: 2
Flags: MW
HStem: -6.59961 92.1494<203.188 225.823 203.188 239.994> 441.801 92.1494<203.188 225.823>
VStem: 50.1758 98.8008<177.7 185.301 185.301 342.051> 279.126 98.7988<185.301 342.051 342.051 349.65>
LayerCount: 2
Fore
SplineSet
50.17578125 177.700195312 m 2
 50.17578125 349.650390625 l 2
 50.17578125 409.583984375 63.5068359375 456.817382812 93.919921875 488.34375 c 0
 123.75 519.264648438 165.341796875 533.950195312 215.475585938 533.950195312 c 0
 264.51171875 533.950195312 305.380859375 518.953125 334.798828125 487.71875 c 0
 364.73046875 455.939453125 377.924804688 408.97265625 377.924804688 349.650390625 c 2
 377.924804688 177.700195312 l 2
 377.924804688 118.377929688 364.73046875 71.4111328125 334.798828125 39.630859375 c 0
 305.380859375 8.396484375 264.51171875 -6.599609375 215.475585938 -6.599609375 c 0
 165.341796875 -6.599609375 123.75 8.0859375 93.919921875 39.0068359375 c 0
 63.5068359375 70.533203125 50.17578125 117.765625 50.17578125 177.700195312 c 2
279.125976562 185.30078125 m 2
 279.125976562 342.05078125 l 2
 279.125976562 382.268554688 271.860351562 408.3359375 261.782226562 421.390625 c 0
 251.440429688 434.788085938 237.119140625 441.80078125 214.526367188 441.80078125 c 0
 191.849609375 441.80078125 177.223632812 434.838867188 166.586914062 421.6015625 c 0
 156.458984375 408.997070312 148.9765625 382.931640625 148.9765625 342.05078125 c 2
 148.9765625 185.30078125 l 2
 148.9765625 144.418945312 156.458984375 118.353515625 166.586914062 105.749023438 c 0
 177.223632812 92.51171875 191.849609375 85.5498046875 214.526367188 85.5498046875 c 0
 237.119140625 85.5498046875 251.440429688 92.5625 261.782226562 105.9609375 c 0
 271.860351562 119.015625 279.125976562 145.083984375 279.125976562 185.30078125 c 2
EndSplineSet
EndChar

StartChar: p
Encoding: 112 112 82
Width: 413
GlyphClass: 2
Flags: MW
HStem: -6.59961 92.1494<219.68 232.657 211.063 255.946> 441.8 92.1504<218.876 233.683>
VStem: 58.7266 98.7998<-143.4 17.8086 -143.4 526.35> 281.975 98.8018<185.3 342.05 342.05 349.65>
LayerCount: 2
Fore
SplineSet
58.7265625 526.349609375 m 1
 157.525390625 526.349609375 l 1
 157.525390625 508.08984375 l 1
 178.553710938 525.041992188 204.225585938 533.950195312 233.526367188 533.950195312 c 0
 277.010742188 533.950195312 313.9296875 518.090820312 341.006835938 486.681640625 c 0
 368.65234375 454.612304688 380.776367188 408.194335938 380.776367188 349.650390625 c 2
 380.776367188 177.700195312 l 2
 380.776367188 119.155273438 368.65234375 72.73828125 341.006835938 40.6689453125 c 0
 313.989257812 9.328125 277.415039062 -6.599609375 234.4765625 -6.599609375 c 0
 204.8828125 -6.599609375 178.852539062 1.705078125 157.526367188 17.80859375 c 1
 157.526367188 -143.400390625 l 1
 58.7265625 -143.400390625 l 1
 58.7265625 526.349609375 l 1
222.124023438 441.799804688 m 0
 207.375 441.799804688 157.524414062 441.799804688 157.524414062 341.099609375 c 2
 157.524414062 184.349609375 l 2
 157.524414062 148.28125 164.389648438 123.125 175.278320312 107.780273438 c 0
 185.868164062 92.8583984375 200.001953125 85.5498046875 222.124023438 85.5498046875 c 0
 243.189453125 85.5498046875 256.192382812 92.2646484375 265.708984375 105.495117188 c 0
 275.125976562 118.5859375 281.974609375 144.984375 281.974609375 185.299804688 c 2
 281.974609375 342.049804688 l 2
 281.974609375 375.071289062 276.920898438 399.34375 268.735351562 414.8828125 c 0
 258.9296875 433.494140625 245.2421875 441.799804688 222.124023438 441.799804688 c 0
EndSplineSet
EndChar

StartChar: q
Encoding: 113 113 83
Width: 413
GlyphClass: 2
Flags: MW
HStem: -6.59961 92.1494<198.292 211.272> 441.8 92.1504<200.832 212.075 175.683 218.245>
VStem: 50.1748 98.7998<177.7 185.3 185.3 342.05> 273.426 98.8008<-143.4 17.8086 17.8086 17.8086 508.09 526.35 -143.4 526.35>
LayerCount: 2
Fore
SplineSet
273.42578125 508.08984375 m 1
 273.42578125 526.349609375 l 1
 372.2265625 526.349609375 l 1
 372.2265625 -143.400390625 l 1
 273.42578125 -143.400390625 l 1
 273.42578125 17.80859375 l 1
 252.098632812 1.705078125 226.068359375 -6.599609375 196.475585938 -6.599609375 c 0
 153.536132812 -6.599609375 116.961914062 9.328125 89.9443359375 40.6689453125 c 0
 62.298828125 72.73828125 50.1748046875 119.155273438 50.1748046875 177.700195312 c 2
 50.1748046875 349.650390625 l 2
 50.1748046875 408.194335938 62.298828125 454.612304688 89.9443359375 486.681640625 c 0
 117.021484375 518.090820312 153.940429688 533.950195312 197.424804688 533.950195312 c 0
 226.725585938 533.950195312 252.397460938 525.041992188 273.42578125 508.08984375 c 1
208.825195312 85.5498046875 m 0
 223.677734375 85.5498046875 273.423828125 85.5498046875 273.423828125 184.349609375 c 2
 273.423828125 341.099609375 l 2
 273.423828125 440.533203125 227.665039062 441.799804688 208.82421875 441.799804688 c 0
 192.83984375 441.799804688 148.974609375 441.799804688 148.974609375 342.049804688 c 2
 148.974609375 185.299804688 l 2
 148.974609375 144.985351562 155.823242188 118.5859375 165.240234375 105.495117188 c 0
 174.756835938 92.2646484375 187.759765625 85.5498046875 208.825195312 85.5498046875 c 0
EndSplineSet
EndChar

StartChar: r
Encoding: 114 114 84
Width: 297
GlyphClass: 2
Flags: MW
HStem: 1 21G<58.7266 157.526 58.7266 58.7266> 441.8 92.1504<217.665 238.309>
VStem: 58.7266 98.7998<1 366.75 1 526.35>
LayerCount: 2
Fore
SplineSet
155.625976562 506.849609375 m 1
 165.481445312 514.540039062 193.572265625 533.950195312 241.125976562 533.950195312 c 0
 263.196289062 533.950195312 272.157226562 531.709960938 293.375976562 526.404296875 c 1
 293.375976562 426.62109375 l 1
 258.403320312 438.279296875 247.840820312 441.799804688 228.776367188 441.799804688 c 0
 206.552734375 441.799804688 190.263671875 435.159179688 177.21484375 422.111328125 c 0
 164.5078125 409.403320312 157.526367188 391.934570312 157.526367188 366.75 c 2
 157.526367188 1 l 1
 58.7265625 1 l 1
 58.7265625 526.349609375 l 1
 155.625976562 526.349609375 l 1
 155.625976562 506.849609375 l 1
EndSplineSet
EndChar

StartChar: s
Encoding: 115 115 85
Width: 384
GlyphClass: 2
Flags: MW
HStem: -6.59961 91.1992<175.318 213.984 175.318 225.849> 443.701 90.25<192.09 226.633>
VStem: 40.6787 94.0498<150.15 172.95 134.454 172.95> 45.4287 98.7988<372.235 405.026> 267.729 98.7988<134.585 155.449>
LayerCount: 2
Fore
SplineSet
201.2265625 -6.599609375 m 0xd8
 101.702148438 -6.599609375 40.6787109375 55.3505859375 40.6787109375 150.150390625 c 2
 40.6787109375 172.950195312 l 1
 134.728515625 172.950195312 l 1
 134.728515625 150.150390625 l 2xe8
 134.728515625 118.7578125 147.5078125 84.599609375 203.12890625 84.599609375 c 0
 224.838867188 84.599609375 240.125 90.1416015625 251.271484375 99.8642578125 c 0
 261.385742188 108.6875 267.728515625 122.8203125 267.728515625 146.349609375 c 0
 267.728515625 164.548828125 263.376953125 176.630859375 256.543945312 184.745117188 c 0
 249.166015625 193.506835938 234.51953125 203.626953125 211.780273438 213.200195312 c 0
 211.705078125 213.232421875 150.046875 238.84375 150.046875 238.84375 c 2
 115.655273438 253.086914062 45.4287109375 289.67578125 45.4287109375 382.900390625 c 0
 45.4287109375 427.151367188 59.859375 464.751953125 89.2265625 492.668945312 c 0
 118.5859375 520.578125 157.760742188 533.951171875 204.079101562 533.951171875 c 0
 301.819335938 533.951171875 360.828125 471.565429688 360.828125 380.05078125 c 2
 360.828125 350.600585938 l 1
 266.778320312 350.600585938 l 1
 266.778320312 373.401367188 l 2
 266.778320312 414.6015625 250.137695312 443.701171875 203.127929688 443.701171875 c 0
 181.052734375 443.701171875 144.227539062 436.395507812 144.227539062 387.651367188 c 0
 144.227539062 356.818359375 160.354492188 339.787109375 193.615234375 325.512695312 c 2
 255.271484375 299.901367188 l 2
 290.458007812 285.295898438 318.077148438 267.28515625 337.25390625 244.8515625 c 0
 357.505859375 221.161132812 366.52734375 189.166992188 366.52734375 151.099609375 c 0
 366.52734375 103.366210938 352.034179688 63.587890625 321.70703125 35.0888671875 c 0
 291.532226562 6.7314453125 250.470703125 -6.599609375 201.2265625 -6.599609375 c 0xd8
EndSplineSet
EndChar

StartChar: t
Encoding: 116 116 86
Width: 302
GlyphClass: 2
Flags: MW
HStem: 1 91.2002<208.541 276.276 245.876 276.276 245.876 276.276> 441.8 84.5498<28.3262 91.0264 28.3262 91.0264 189.826 283.876>
VStem: 91.0264 98.7998<147.3 150.15 150.15 441.8 526.35 622.85 622.85 622.85>
LayerCount: 2
Fore
SplineSet
243.026367188 1 m 2
 174.0546875 1 91.0263671875 26.1572265625 91.0263671875 147.299804688 c 2
 91.0263671875 441.799804688 l 1
 28.326171875 441.799804688 l 1
 28.326171875 526.349609375 l 1
 91.0263671875 526.349609375 l 1
 91.0263671875 622.849609375 l 1
 189.826171875 667.890625 l 1
 189.826171875 526.349609375 l 1
 283.875976562 526.349609375 l 1
 283.875976562 441.799804688 l 1
 189.826171875 441.799804688 l 1
 189.826171875 150.150390625 l 2
 189.826171875 107.321289062 207.939453125 92.2001953125 245.875976562 92.2001953125 c 2
 276.276367188 92.2001953125 l 1
 276.276367188 1 l 1
 243.026367188 1 l 2
EndSplineSet
EndChar

StartChar: u
Encoding: 117 117 87
Width: 416
GlyphClass: 2
Flags: MW
HStem: -6.59961 92.1494<204.875 238.779 204.875 277.397>
VStem: 58.7266 98.8008<187.417 212.85 212.85 526.35> 277.227 98.7998<212.85 526.35>
LayerCount: 2
Fore
SplineSet
217.375976562 -6.599609375 m 0
 128.106445312 -6.599609375 58.7265625 36.173828125 58.7265625 169.150390625 c 2
 58.7265625 526.349609375 l 1
 157.52734375 526.349609375 l 1
 157.52734375 212.849609375 l 2
 157.52734375 161.985351562 163.16796875 126.81640625 171.579101562 108.9765625 c 0
 178.66796875 93.9384765625 191.423828125 85.5498046875 218.327148438 85.5498046875 c 0
 259.231445312 85.5498046875 277.2265625 99.9833984375 277.2265625 212.849609375 c 2
 277.2265625 526.349609375 l 1
 376.026367188 526.349609375 l 1
 376.026367188 169.150390625 l 2
 376.026367188 70.2666015625 337.418945312 -6.599609375 217.375976562 -6.599609375 c 0
EndSplineSet
EndChar

StartChar: v
Encoding: 118 118 88
Width: 374
GlyphClass: 2
Flags: MW
HStem: 1 21G<150.039 240.988 150.039 150.039>
LayerCount: 2
Fore
SplineSet
11.8427734375 526.349609375 m 1
 117.84765625 526.349609375 l 1
 196.389648438 195.178710938 l 1
 274.122070312 526.349609375 l 1
 380.201171875 526.349609375 l 1
 240.98828125 1 l 1
 150.0390625 1 l 1
 11.8427734375 526.349609375 l 1
EndSplineSet
EndChar

StartChar: w
Encoding: 119 119 89
Width: 570
GlyphClass: 2
Flags: MW
HStem: 1 21G<131.511 221.524 131.511 131.511 365.296 454.24 365.296 365.296>
VStem: 251.174 82.4385<526.35 526.35>
LayerCount: 2
Fore
SplineSet
12.62109375 526.349609375 m 1
 118.462890625 526.349609375 l 1
 179.713867188 206.743164062 l 1
 251.173828125 526.349609375 l 1
 333.612304688 526.349609375 l 1
 406.857421875 205.803710938 l 1
 468.2890625 526.349609375 l 1
 575.162109375 526.349609375 l 1
 454.240234375 1 l 1
 365.295898438 1 l 1
 292.611328125 313.303710938 l 1
 221.524414062 1 l 1
 131.510742188 1 l 1
 12.62109375 526.349609375 l 1
EndSplineSet
EndChar

StartChar: x
Encoding: 120 120 90
Width: 353
GlyphClass: 2
Flags: MW
HStem: 1 21G<7.40234 113.506 7.40234 7.40234 256.751 363.716 256.751 256.751>
LayerCount: 2
Fore
SplineSet
256.750976562 1 m 1
 184.305664062 159.0625 l 1
 113.505859375 1 l 1
 7.40234375 1 l 1
 132.0625 273.630859375 l 1
 15.8935546875 526.349609375 l 1
 122.865234375 526.349609375 l 1
 186.571289062 388.455078125 l 1
 247.05078125 526.349609375 l 1
 354.541992188 526.349609375 l 1
 237.18359375 277.345703125 l 1
 363.715820312 1 l 1
 256.750976562 1 l 1
EndSplineSet
EndChar

StartChar: y
Encoding: 121 121 91
Width: 374
GlyphClass: 2
Flags: MW
HStem: -145.3 92.1494<45.4258 72.0264 45.4258 78.6758>
LayerCount: 2
Fore
SplineSet
72.0263671875 -145.299804688 m 2
 45.42578125 -145.299804688 l 1
 45.42578125 -53.150390625 l 1
 78.67578125 -53.150390625 l 2
 131.401367188 -53.150390625 140.184570312 -30.1484375 146.635742188 -4.3447265625 c 2
 149.366210938 6.578125 l 1
 11.80859375 526.349609375 l 1
 117.705078125 526.349609375 l 1
 197.16796875 206.067382812 l 1
 274.198242188 526.349609375 l 1
 380.239257812 526.349609375 l 1
 231.083007812 -32.7373046875 l 2
 212.926757812 -102.944335938 171.327148438 -145.299804688 72.0263671875 -145.299804688 c 2
EndSplineSet
EndChar

StartChar: z
Encoding: 122 122 92
Width: 378
GlyphClass: 2
Flags: MW
HStem: 1 93.0996<164.707 346.576 164.707 346.576> 433.25 93.0996<50.1758 346.576 50.1758 232.045>
VStem: 50.1758 296.4<1 81.1582 81.1582 81.1582 446.191 526.35>
LayerCount: 2
Fore
SplineSet
50.17578125 433.25 m 1
 50.17578125 526.349609375 l 1
 346.576171875 526.349609375 l 1
 346.576171875 446.19140625 l 1
 164.70703125 94.099609375 l 1
 346.576171875 94.099609375 l 1
 346.576171875 1 l 1
 50.17578125 1 l 1
 50.17578125 81.158203125 l 1
 232.044921875 433.25 l 1
 50.17578125 433.25 l 1
EndSplineSet
EndChar

StartChar: braceleft
Encoding: 123 123 93
Width: 313
GlyphClass: 2
Flags: MW
HStem: -78.7998 95.9502<197.957 281.027 240.177 281.027 240.177 281.027> 285.504 93.1387<50.1748 50.1748> 642.249 95.9502<233.887 240.177 240.177 281.027>
VStem: 112.876 102.601<45.6465 46.5996 46.5996 212.85 436.099 451.299 451.299 612.799>
LayerCount: 2
Fore
SplineSet
226.876953125 -78.7998046875 m 2
 169.036132812 -78.7998046875 112.875976562 -53.3173828125 112.875976562 45.646484375 c 2
 112.875976562 229.946289062 l 2
 112.875976562 253.544921875 108.108398438 267.541992188 103.028320312 273.672851562 c 0
 94.2119140625 284.313476562 76.9375 284.780273438 50.1748046875 285.50390625 c 1
 50.1748046875 378.642578125 l 1
 76.9375 379.366210938 94.2119140625 379.833007812 103.028320312 390.473632812 c 0
 107.952148438 396.416015625 112.875976562 411.087890625 112.875976562 436.098632812 c 2
 112.875976562 613.749023438 l 2
 112.875976562 652.193359375 120.099609375 738.19921875 226.876953125 738.19921875 c 2
 281.02734375 738.19921875 l 1
 281.02734375 642.249023438 l 1
 240.176757812 642.249023438 l 2
 227.59765625 642.249023438 215.4765625 639.971679688 215.4765625 612.798828125 c 2
 215.4765625 451.298828125 l 2
 215.4765625 379.659179688 203.860351562 351.66015625 178.35546875 331.971679688 c 1
 204.506835938 310.986328125 215.4765625 283.081054688 215.4765625 212.849609375 c 2
 215.4765625 46.599609375 l 2
 215.4765625 19.4267578125 227.598632812 17.150390625 240.176757812 17.150390625 c 2
 281.02734375 17.150390625 l 1
 281.02734375 -78.7998046875 l 1
 226.876953125 -78.7998046875 l 2
EndSplineSet
Substitution2: "'rtla' Right to Left Alternates lookup 0 subtable" braceright
EndChar

StartChar: bar
Encoding: 124 124 94
Width: 274
GlyphClass: 2
Flags: MW
VStem: 97.6758 96.9004<-77.8496 738.2 -77.8496 738.2>
LayerCount: 2
Fore
SplineSet
97.67578125 738.200195312 m 1
 194.576171875 738.200195312 l 1
 194.576171875 -77.849609375 l 1
 97.67578125 -77.849609375 l 1
 97.67578125 738.200195312 l 1
EndSplineSet
EndChar

StartChar: braceright
Encoding: 125 125 95
Width: 313
GlyphClass: 2
Flags: MW
HStem: -78.7998 95.9482<50.1758 90.0762 90.0762 96.3662 50.1758 104.326 50.1758 90.0762> 285.507 93.1396<281.028 281.028> 642.252 95.9502<50.1758 90.0762 50.1758 104.326>
VStem: 114.776 103.551<46.6016 212.852 212.852 229.95 451.302 612.802 612.802 613.752>
LayerCount: 2
Fore
SplineSet
90.076171875 17.1484375 m 2
 102.65625 17.1484375 114.776367188 19.4326171875 114.776367188 46.6015625 c 2
 114.776367188 212.8515625 l 2
 114.776367188 284.030273438 126.088867188 311.41796875 152.204101562 331.971679688 c 1
 126.71484375 351.275390625 114.776367188 378.75390625 114.776367188 451.301757812 c 2
 114.776367188 612.801757812 l 2
 114.776367188 639.974609375 102.654296875 642.251953125 90.076171875 642.251953125 c 2
 50.17578125 642.251953125 l 1
 50.17578125 738.202148438 l 1
 104.326171875 738.202148438 l 2
 162.169921875 738.202148438 218.327148438 712.71875 218.327148438 613.751953125 c 2
 218.327148438 436.1015625 l 2
 218.327148438 411.090820312 223.251953125 396.416992188 228.17578125 390.474609375 c 0
 236.991210938 379.83203125 254.260742188 379.3671875 281.028320312 378.646484375 c 1
 281.028320312 285.506835938 l 1
 254.265625 284.783203125 236.991210938 284.31640625 228.174804688 273.676757812 c 0
 223.094726562 267.545898438 218.327148438 253.548828125 218.327148438 229.950195312 c 2
 218.327148438 45.650390625 l 2
 218.327148438 7.205078125 211.103515625 -78.7998046875 104.326171875 -78.7998046875 c 2
 50.17578125 -78.7998046875 l 1
 50.17578125 17.1484375 l 1
 90.076171875 17.1484375 l 2
EndSplineSet
Substitution2: "'rtla' Right to Left Alternates lookup 0 subtable" braceleft
EndChar

StartChar: asciitilde
Encoding: 126 126 96
Width: 421
GlyphClass: 2
Flags: MW
HStem: 206.2 98.7988<276 283.446 276 322.029> 254.648 99.751<155.536 165.708>
LayerCount: 2
Fore
SplineSet
159.42578125 254.6484375 m 0x40
 151.646484375 254.6484375 145.827148438 252.545898438 140.291992188 248.036132812 c 0
 130.336914062 239.923828125 119.791992188 221.506835938 105.788085938 196.612304688 c 1
 26.189453125 245.255859375 l 1
 40.30859375 274.776367188 55.466796875 306.470703125 85.224609375 329.8515625 c 0
 105.778320312 346.000976562 129.723632812 354.399414062 155.626953125 354.399414062 c 0x40
 180.68359375 354.399414062 200.059570312 348.547851562 238.943359375 323.202148438 c 0
 266.84375 305.58984375 272.875 304.999023438 279.125 304.999023438 c 0
 287.766601562 304.999023438 293.563476562 307.239257812 298.491210938 311.408203125 c 0
 307.8984375 319.368164062 318.409179688 338.155273438 332.564453125 364.107421875 c 1
 412.252929688 315.409179688 l 1
 392.272460938 272.723632812 361.1328125 206.200195312 282.92578125 206.200195312 c 0x80
 259.180664062 206.200195312 238.900390625 211.443359375 199.509765625 236.508789062 c 0
 197.059570312 238.142578125 171.990234375 254.6484375 159.42578125 254.6484375 c 0x40
EndSplineSet
EndChar

StartChar: exclamdown
Encoding: 161 161 98
Width: 214
GlyphClass: 2
Flags: MW
HStem: 400 126.35<66.3262 174.626 66.3262 174.626>
VStem: 60.0059 122.878<-143.4 -143.4> 66.3262 108.3<400 526.35 400 526.35> 77.374 87.1191<343.95 343.95>
LayerCount: 2
Fore
SplineSet
66.326171875 526.349609375 m 1xa0
 174.625976562 526.349609375 l 1
 174.625976562 400 l 1
 66.326171875 400 l 1
 66.326171875 526.349609375 l 1xa0
164.493164062 343.950195312 m 1x90
 182.883789062 -143.400390625 l 1
 60.005859375 -143.400390625 l 1xc0
 77.3740234375 343.950195312 l 1
 164.493164062 343.950195312 l 1x90
EndSplineSet
EndChar

StartChar: cent
Encoding: 162 162 99
Width: 410
GlyphClass: 2
Flags: MW
VStem: 50.1758 98.8008<177.7 185.297 185.297 342.047> 175.576 84.5498<-94 -3.25977 -3.25977 -3.25977 101.114 427.091 530.826 616.6> 279.126 98.7998<167.248 168.198 168.198 197.648 143.567 197.648 329.7 360.098 360.098 360.1>
LayerCount: 2
Fore
SplineSet
260.125976562 529.299804688 m 1
 311.48046875 518.140625 377.92578125 480.44921875 377.92578125 360.099609375 c 2
 377.92578125 329.700195312 l 1
 279.125976562 329.700195312 l 1
 279.125976562 360.09765625 l 2
 279.125976562 383.0234375 275.583007812 411.58203125 260.125976562 427.090820312 c 1
 260.125976562 101.114257812 l 1
 268.03515625 109.251953125 279.125976562 127.038085938 279.125976562 167.248046875 c 2
 279.125976562 197.6484375 l 1
 377.92578125 197.6484375 l 1
 377.92578125 168.198242188 l 2
 377.92578125 118.936523438 367.168945312 78.3759765625 343.358398438 48.3388671875 c 0
 322.689453125 22.265625 294.318359375 5.5224609375 260.125976562 -1.9423828125 c 1
 260.125976562 -94 l 1
 175.576171875 -94 l 1
 175.576171875 -3.259765625 l 1
 110.77734375 9 50.17578125 53.630859375 50.17578125 177.700195312 c 2
 50.17578125 349.650390625 l 2
 50.17578125 404.418945312 61.39453125 448.489257812 86.70703125 480.0390625 c 0
 108.702148438 507.453125 139.028320312 524.329101562 175.576171875 530.826171875 c 1
 175.576171875 616.599609375 l 1
 260.125976562 616.599609375 l 1
 260.125976562 529.299804688 l 1
175.576171875 430.508789062 m 1
 164.7890625 421.671875 148.9765625 401.594726562 148.9765625 342.046875 c 2
 148.9765625 185.296875 l 2
 148.9765625 125.743164062 164.79296875 105.668945312 175.576171875 96.8349609375 c 1
 175.576171875 430.508789062 l 1
EndSplineSet
EndChar

StartChar: sterling
Encoding: 163 163 100
Width: 385
GlyphClass: 2
Flags: MW
HStem: 1.00098 96.8994<172.908 376.025 172.908 376.025> 288.85 95.9502<27.377 85.3271 27.377 85.3271 189.826 300.977> 518.75 21G<267.727 368.426 267.727 267.727> 604.25 95.9502<222.665 236.731>
VStem: 85.3271 104.499<173.9 288.85 384.8 533.95 533.95 549.15> 267.727 100.699<518.75 535.85 518.75 550.317>
LayerCount: 2
Fore
SplineSet
189.826171875 172.950195312 m 2
 189.826171875 135.53125 181.37109375 112.665039062 172.908203125 97.900390625 c 1
 376.025390625 97.900390625 l 1
 376.025390625 1.0009765625 l 1
 43.52734375 1.0009765625 l 1
 43.52734375 93.462890625 l 1
 61.44140625 102.061523438 71.0703125 106.68359375 77.58984375 122.467773438 c 0
 82.3583984375 134.013671875 85.3271484375 151.243164062 85.3271484375 173.900390625 c 2
 85.3271484375 288.849609375 l 1
 27.376953125 288.849609375 l 1
 27.376953125 384.799804688 l 1
 85.3271484375 384.799804688 l 1
 85.3271484375 533.950195312 l 2
 85.3271484375 583.301757812 96.474609375 624.094726562 120.940429688 654.404296875 c 0
 145.927734375 685.359375 182.967773438 700.200195312 227.826171875 700.200195312 c 0
 272.008789062 700.200195312 308.545898438 685.719726562 333.23828125 655.415039062 c 0
 357.489257812 625.65234375 368.42578125 585.142578125 368.42578125 535.849609375 c 2
 368.42578125 518.75 l 1
 267.7265625 518.75 l 1
 267.7265625 535.849609375 l 2
 267.7265625 564.78515625 262.786132812 583.27734375 256.969726562 591.700195312 c 0
 251.215820312 600.033203125 243.736328125 604.25 229.7265625 604.25 c 0
 215.603515625 604.25 189.826171875 602.98046875 189.826171875 549.150390625 c 2
 189.826171875 384.799804688 l 1
 300.9765625 384.799804688 l 1
 300.9765625 288.849609375 l 1
 189.826171875 288.849609375 l 1
 189.826171875 172.950195312 l 2
EndSplineSet
EndChar

StartChar: currency
Encoding: 164 164 101
Width: 577
GlyphClass: 2
Flags: MW
HStem: 121.312 100.088<296.732 299.379> 435.15 99.75<281.409 312.581>
VStem: 91.0264 101.648<312.566 344.576 312.566 348.494> 401.675 101.651<312.956 344.545>
LayerCount: 2
Fore
SplineSet
91.0263671875 328.75 m 0
 91.0263671875 368.23828125 100.372070312 403.706054688 119.333007812 434.110351562 c 1
 52.685546875 501.73828125 l 1
 124.366210938 573.41796875 l 1
 190.40234375 506.396484375 l 1
 222.521484375 525.362304688 258.38671875 534.900390625 297.17578125 534.900390625 c 0
 335.48046875 534.900390625 371.055664062 525.323242188 403.094726562 506.34765625 c 1
 470.076171875 573.328125 l 1
 541.754882812 501.650390625 l 1
 474.7734375 434.668945312 l 1
 493.75 402.629882812 503.326171875 367.0546875 503.326171875 328.75 c 0
 503.326171875 289.666015625 494.169921875 254.060546875 475.73828125 222.81640625 c 1
 542.584960938 155.96875 l 1
 471.146484375 83.1015625 l 1
 403.903320312 150.344726562 l 1
 373.87109375 133.010742188 302.025390625 121.3125 296.732421875 121.3125 c 1
 296.84765625 121.350585938 296.995117188 121.6015625 297.17578125 121.650390625 c 1
 258.743164062 121.650390625 222.859375 131.284179688 190.291015625 150.329101562 c 1
 123.116210938 84.142578125 l 1
 51.6787109375 157.008789062 l 1
 118.560546875 222.907226562 l 1
 100.165039062 254.129882812 91.0263671875 289.704101562 91.0263671875 328.75 c 0
401.674804688 328.75 m 0
 401.674804688 360.33984375 391.799804688 384.94921875 371.928710938 405.09375 c 0
 352.047851562 425.247070312 327.986328125 435.150390625 297.174804688 435.150390625 c 0
 265.642578125 435.150390625 241.500976562 425.190429688 222.030273438 405.178710938 c 0
 202.447265625 385.051757812 192.674804688 360.40234375 192.674804688 328.75 c 0
 192.674804688 296.3828125 202.508789062 271.434570312 222.030273438 251.37109375 c 0
 241.500976562 231.359375 265.642578125 221.400390625 297.174804688 221.400390625 c 0
 327.921875 221.400390625 351.946289062 231.40234375 371.84765625 251.848632812 c 0
 391.791992188 272.33984375 401.674804688 297.162109375 401.674804688 328.75 c 0
EndSplineSet
EndChar

StartChar: yen
Encoding: 165 165 102
Width: 391
GlyphClass: 2
Flags: MW
HStem: 1 21G<152.776 256.326 152.776 152.776> 140.65 90.25<37.8262 152.776 37.8262 152.776 256.326 371.276> 260.35 91.2002<37.8262 130.875 37.8262 152.776 37.8262 130.875 278.228 371.276> 670.7 20G<2.625 118.555 118.555 118.555 292.41 406.478 406.478 406.478>
VStem: 152.776 103.55<1 140.65 1 140.65 230.9 260.35>
LayerCount: 2
Fore
SplineSet
256.326171875 140.650390625 m 1
 256.326171875 1 l 1
 152.776367188 1 l 1
 152.776367188 140.650390625 l 1
 37.826171875 140.650390625 l 1
 37.826171875 230.900390625 l 1
 152.776367188 230.900390625 l 1
 152.776367188 260.349609375 l 1
 37.826171875 260.349609375 l 1
 37.826171875 351.549804688 l 1
 130.875 351.549804688 l 1
 2.625 690.700195312 l 1
 118.5546875 690.700195312 l 1
 205.8984375 428.66796875 l 1
 292.41015625 690.700195312 l 1
 406.477539062 690.700195312 l 1
 278.227539062 351.549804688 l 1
 371.276367188 351.549804688 l 1
 371.276367188 260.349609375 l 1
 256.326171875 260.349609375 l 1
 256.326171875 230.900390625 l 1
 371.276367188 230.900390625 l 1
 371.276367188 140.650390625 l 1
 256.326171875 140.650390625 l 1
EndSplineSet
EndChar

StartChar: brokenbar
Encoding: 166 166 103
Width: 274
GlyphClass: 2
Flags: MW
VStem: 97.6758 96.9004<-77.8496 292.65 -77.8496 292.65 369.6 738.2>
LayerCount: 2
Fore
SplineSet
97.67578125 738.200195312 m 1
 194.576171875 738.200195312 l 1
 194.576171875 369.599609375 l 1
 97.67578125 369.599609375 l 1
 97.67578125 738.200195312 l 1
97.67578125 292.650390625 m 1
 194.576171875 292.650390625 l 1
 194.576171875 -77.849609375 l 1
 97.67578125 -77.849609375 l 1
 97.67578125 292.650390625 l 1
EndSplineSet
EndChar

StartChar: section
Encoding: 167 167 104
Width: 429
GlyphClass: 2
Flags: MW
HStem: -158.6 95<210.94 232.266 210.94 245.18> 618.5 95.9502<215.685 236.315>
VStem: 59.6738 102.601<262.18 296.85 262.18 304.201> 72.0254 99.75<12.4004 29.5 -3.33691 29.5> 75.8242 103.551<542.726 568.773 542.726 581.791> 271.525 103.55<-12.8149 22.0957> 283.873 102.603<262.179 297.213>
LayerCount: 2
Fore
SplineSet
221.17578125 -158.599609375 m 0xc4
 130.444335938 -158.599609375 72.025390625 -116.06640625 72.025390625 12.400390625 c 2
 72.025390625 29.5 l 1
 171.775390625 29.5 l 1
 171.775390625 12.400390625 l 2xd4
 171.775390625 -19.07421875 177.018554688 -39.5576171875 183.590820312 -49.310546875 c 0
 189.094726562 -57.478515625 199.755859375 -63.599609375 222.125 -63.599609375 c 0
 242.407226562 -63.599609375 253.115234375 -58.0361328125 259.376953125 -49.8779296875 c 0
 266.551757812 -40.529296875 271.525390625 -24.728515625 271.525390625 -0.9013671875 c 0
 271.525390625 45.0927734375 258.946289062 58.904296875 241.37109375 69.4501953125 c 0
 229.26953125 76.7109375 209.677734375 84.521484375 183.291992188 91.8857421875 c 0
 104.932617188 113.923828125 59.673828125 164.872070312 59.673828125 279.348632812 c 0xe4
 59.673828125 329.053710938 69.5263671875 394.221679688 124.194335938 430.495117188 c 1
 109.165039062 442.02734375 75.82421875 471.32421875 75.82421875 556.75 c 0
 75.82421875 606.831054688 91.3681640625 714.450195312 224.974609375 714.450195312 c 0
 274.231445312 714.450195312 313.643554688 700.176757812 337.877929688 668.25 c 0
 361.025390625 637.75390625 371.274414062 595.958984375 371.274414062 544.400390625 c 2
 371.274414062 527.299804688 l 1
 271.524414062 527.299804688 l 1
 271.524414062 544.400390625 l 2
 271.524414062 573.95703125 266.883789062 594.033203125 260.622070312 604.541992188 c 0
 255.791992188 612.649414062 246.706054688 618.5 225.924804688 618.5 c 0
 205.444335938 618.5 195.612304688 612.955078125 190.44921875 605.7265625 c 0
 184.038085938 596.751953125 179.375 580.796875 179.375 556.75 c 0
 179.375 528.702148438 185.9453125 511.395507812 195.400390625 501.7265625 c 0
 205.615234375 491.279296875 228.612304688 479.145507812 264.696289062 468.732421875 c 0
 307.951171875 457.208984375 340.936523438 435.776367188 359.913085938 403.404296875 c 0
 378.313476562 372.015625 386.475585938 330.528320312 386.475585938 279.349609375 c 0xca
 386.475585938 229.846679688 376.772460938 166.157226562 324.174804688 131.036132812 c 1
 339.1484375 119.814453125 375.075195312 90.0810546875 375.075195312 1 c 0
 375.075195312 -47.3984375 362.716796875 -87.353515625 335.786132812 -116.12890625 c 0
 308.572265625 -145.20703125 269.18359375 -158.599609375 221.17578125 -158.599609375 c 0xc4
283.873046875 279.348632812 m 0xe2
 283.873046875 315.077148438 277.923828125 339.967773438 268.900390625 354.357421875 c 0
 260.92578125 367.07421875 248.053710938 374.348632812 224.024414062 374.348632812 c 0
 199.331054688 374.348632812 185.952148438 366.876953125 177.681640625 353.817382812 c 0
 168.299804688 339.004882812 162.274414062 314.350585938 162.274414062 279.348632812 c 0
 162.274414062 245.010742188 168.284179688 220.896484375 177.611328125 206.416015625 c 0
 185.8203125 193.669921875 199.236328125 186.249023438 224.024414062 186.249023438 c 0
 247.26171875 186.249023438 260.158203125 193.405273438 268.538085938 206.416015625 c 0
 277.864257812 220.895507812 283.873046875 245.009765625 283.873046875 279.348632812 c 0xe2
106.223632812 673.598632812 m 1024
EndSplineSet
EndChar

StartChar: dieresis
Encoding: 168 168 105
Width: 498
GlyphClass: 2
Flags: MW
HStem: 551.05 115.9<132.826 238.276 132.826 238.276 132.826 277.227 277.227 382.676>
VStem: 132.826 105.45<551.05 666.95 551.05 666.95> 277.227 105.449<551.05 666.95 551.05 666.95>
LayerCount: 2
Fore
SplineSet
132.826171875 666.950195312 m 1
 238.276367188 666.950195312 l 1
 238.276367188 551.049804688 l 1
 132.826171875 551.049804688 l 1
 132.826171875 666.950195312 l 1
277.2265625 666.950195312 m 1
 382.67578125 666.950195312 l 1
 382.67578125 551.049804688 l 1
 277.2265625 551.049804688 l 1
 277.2265625 666.950195312 l 1
EndSplineSet
EndChar

StartChar: copyright
Encoding: 169 169 106
Width: 732
GlyphClass: 2
Flags: MW
HStem: -8.5 80.749<341.221 407.017> 138.749 78.8496<368.756 384.309 368.756 394.764> 467.45 78.8486<368.696 384.307> 609.949 80.752<335.046 407.333 275.245 413.216>
VStem: 52.0762 86.4492<297.145 384.732 297.145 449.319> 247.775 84.5498<281.249 286.949 286.949 399.049> 417.825 84.5498<273.649 301.199 252.7 301.199 384.8 411.4 411.4 412.35> 610.675 85.501<318.805 385.053>
LayerCount: 2
Fore
SplineSet
52.076171875 341.100585938 m 0
 52.076171875 557.538085938 176.36328125 690.701171875 374.125976562 690.701171875 c 0
 440.5390625 690.701171875 498.54296875 676.517578125 547.225585938 647.442382812 c 0
 640.76953125 591.575195312 696.17578125 486.079101562 696.17578125 341.099609375 c 0
 696.17578125 296.509765625 693.780273438 120.473632812 546.630859375 34.2119140625 c 0
 497.69921875 5.5283203125 439.907226562 -8.5 374.125976562 -8.5 c 0
 308.315429688 -8.5 250.489257812 5.703125 201.545898438 34.7314453125 c 0
 171.63671875 52.470703125 52.076171875 126.700195312 52.076171875 341.100585938 c 0
610.674804688 341.098632812 m 0
 610.674804688 429.0078125 589.501953125 494.779296875 549.342773438 540.758789062 c 0
 509.456054688 586.42578125 452.307617188 609.94921875 374.125 609.94921875 c 0
 295.967773438 609.94921875 239.030273438 586.296875 199.458007812 540.37109375 c 0
 159.53125 494.033203125 138.525390625 428.366210938 138.525390625 341.098632812 c 0
 138.525390625 253.190429688 159.698242188 187.418945312 199.857421875 141.439453125 c 0
 239.7734375 95.73828125 296.616210938 72.2490234375 374.125 72.2490234375 c 0
 452.279296875 72.2490234375 509.407226562 95.90234375 549.307617188 141.874023438 c 0
 589.528320312 188.215820312 610.674804688 253.854492188 610.674804688 341.098632812 c 0
376.025390625 138.749023438 m 0
 319.37109375 138.749023438 247.775390625 162.284179688 247.775390625 281.249023438 c 2
 247.775390625 404.749023438 l 2
 247.775390625 467.194335938 268.9140625 546.298828125 376.025390625 546.298828125 c 0
 421.2578125 546.298828125 502.375 529.911132812 502.375 412.349609375 c 2
 502.375 384.799804688 l 1
 417.825195312 384.799804688 l 1
 417.825195312 411.400390625 l 2
 417.825195312 465.936523438 391.638671875 467.450195312 376.975585938 467.450195312 c 0
 360.416992188 467.450195312 350.916015625 462.674804688 344.227539062 454.365234375 c 0
 337.90234375 446.506835938 332.325195312 428.525390625 332.325195312 399.048828125 c 2
 332.325195312 286.94921875 l 2
 332.325195312 257.50390625 337.854492188 239.272460938 344.353515625 231.000976562 c 0
 351.104492188 222.408203125 360.537109375 217.598632812 376.975585938 217.598632812 c 0
 391.642578125 217.598632812 417.825195312 219.116210938 417.825195312 273.649414062 c 2
 417.825195312 301.19921875 l 1
 502.375 301.19921875 l 1
 502.375 273.649414062 l 2
 502.375 231.750976562 492.059570312 197.267578125 468.48828125 173.309570312 c 0
 445.350585938 149.791992188 413.501953125 138.749023438 376.025390625 138.749023438 c 0
EndSplineSet
EndChar

StartChar: ordfeminine
Encoding: 170 170 107
Width: 301
GlyphClass: 2
Flags: MW
HStem: 404.75 88.3486<120.642 155.434> 539.649 77.9004<154.813 161.326 161.326 175.576> 658.4 87.3994<147.503 161.773>
VStem: 36.876 95.9502<505.162 521.839 505.162 543.932> 45.4258 91.2002<619.45 639.4 639.4 641.3 619.45 674.42> 175.576 95.9502<520.649 539.649 539.649 539.649 617.55 631.799 409.499 636.55 409.499 646.109>
LayerCount: 2
Fore
SplineSet
45.42578125 639.400390625 m 2xec
 45.42578125 709.439453125 93.6953125 745.799804688 156.576171875 745.799804688 c 0
 190.712890625 745.799804688 219.829101562 736.174804688 240.865234375 715.138671875 c 0
 261.82421875 694.180664062 271.526367188 665.393554688 271.526367188 631.798828125 c 2
 271.526367188 409.499023438 l 1
 178.42578125 409.499023438 l 1
 178.42578125 414.640625 l 1
 166.71484375 407.928710938 152.569335938 404.75 135.67578125 404.75 c 0
 105.608398438 404.75 79.7255859375 414.282226562 61.9248046875 434.9140625 c 0
 44.4990234375 455.111328125 36.8759765625 482.233398438 36.8759765625 514 c 0xf4
 36.8759765625 573.864257812 76.4677734375 617.549804688 152.776367188 617.549804688 c 2
 175.576171875 617.549804688 l 1
 175.576171875 636.549804688 l 2
 175.576171875 655.66796875 167.920898438 658.400390625 155.625976562 658.400390625 c 0
 139.379882812 658.400390625 136.625976562 650.565429688 136.625976562 641.299804688 c 2
 136.625976562 619.450195312 l 1
 45.42578125 619.450195312 l 1
 45.42578125 639.400390625 l 2xec
151.826171875 493.098632812 m 0
 159.041992188 493.098632812 175.576171875 494.150390625 175.576171875 520.649414062 c 2
 175.576171875 539.649414062 l 1
 161.326171875 539.649414062 l 2
 148.299804688 539.649414062 141.21875 536.737304688 138.063476562 534.107421875 c 0
 135.868164062 532.278320312 132.826171875 527.779296875 132.826171875 515.899414062 c 0
 132.826171875 494.424804688 141.837890625 493.098632812 151.826171875 493.098632812 c 0
149.92578125 822.749023438 m 1024
EndSplineSet
EndChar

StartChar: guillemotleft
Encoding: 171 171 108
Width: 423
GlyphClass: 2
Flags: W
LayerCount: 2
Fore
SplineSet
225.92578125 484.681640625 m 1
 225.92578125 363.61328125 l 1
 133.868164062 268.900390625 l 1
 225.92578125 174.186523438 l 1
 225.92578125 53.1181640625 l 1
 14.8603515625 268.900390625 l 1
 225.92578125 484.681640625 l 1
381.7265625 484.850585938 m 1
 381.7265625 363.662109375 l 1
 290.506835938 268.900390625 l 1
 381.7265625 174.138671875 l 1
 381.7265625 52.94921875 l 1
 171.67578125 268.900390625 l 1
 381.7265625 484.850585938 l 1
EndSplineSet
EndChar

StartChar: logicalnot
Encoding: 172 172 109
Width: 421
GlyphClass: 2
Flags: MW
HStem: 251.8 92.1504<42.5762 298.126 42.5762 396.926>
VStem: 298.126 98.7998<148.25 251.8 251.8 251.8>
LayerCount: 2
Fore
SplineSet
298.125976562 251.799804688 m 1
 42.576171875 251.799804688 l 1
 42.576171875 343.950195312 l 1
 396.92578125 343.950195312 l 1
 396.92578125 148.25 l 1
 298.125976562 148.25 l 1
 298.125976562 251.799804688 l 1
EndSplineSet
EndChar

StartChar: uni00AD
Encoding: 173 173 110
Width: 378
GlyphClass: 2
Flags: MW
HStem: 300.25 95.9502<50.1758 345.626 50.1758 345.626>
VStem: 50.1758 295.45<300.25 396.2 300.25 396.2>
LayerCount: 2
Fore
SplineSet
50.17578125 396.200195312 m 1
 345.625976562 396.200195312 l 1
 345.625976562 300.25 l 1
 50.17578125 300.25 l 1
 50.17578125 396.200195312 l 1
EndSplineSet
EndChar

StartChar: registered
Encoding: 174 174 111
Width: 471
GlyphClass: 2
Flags: MW
HStem: 292.65 64.5986<224.579 263.317 224.579 271.514> 625.149 64.6006<224.606 263.015>
VStem: 59.6758 67.4482<469.425 513.842 469.425 521.276> 172.726 68.3994<375.299 440.091 523.499 546.299> 256.325 68.4004<532.5 538.495> 360.825 67.4512<470.118 514.167>
LayerCount: 2
Fore
SplineSet
59.67578125 492.150390625 m 0
 59.67578125 550.401367188 75.9697265625 599.010742188 109.866210938 635.37890625 c 0
 143.776367188 671.760742188 189.514648438 689.75 243.9765625 689.75 c 0
 299.575195312 689.75 345.750976562 671.8515625 379.158203125 635.245117188 c 0
 412.365234375 598.859375 428.276367188 550.325195312 428.276367188 492.150390625 c 0
 428.276367188 433.344726562 412.2109375 384.33203125 378.677734375 347.624023438 c 0
 345.036132812 310.794921875 299.05078125 292.650390625 243.9765625 292.650390625 c 0
 188.901367188 292.650390625 142.916015625 310.794921875 109.274414062 347.624023438 c 0
 75.7412109375 384.333007812 59.67578125 433.344726562 59.67578125 492.150390625 c 0
360.825195312 492.149414062 m 0
 360.825195312 536.184570312 349.7734375 568.30859375 329.541992188 590.967773438 c 0
 309.423828125 613.5 282.053710938 625.149414062 243.975585938 625.149414062 c 0
 205.236328125 625.149414062 177.822265625 613.336914062 158.075195312 590.654296875 c 0
 138.004882812 567.6015625 127.124023438 535.534179688 127.124023438 492.149414062 c 0
 127.124023438 446.700195312 138.140625 413.896484375 158.008789062 391.344726562 c 0
 177.73046875 368.95703125 205.181640625 357.249023438 243.975585938 357.249023438 c 0
 282.659179688 357.249023438 310.038085938 369.165039062 329.810546875 392.143554688 c 0
 349.908203125 415.5 360.825195312 448.0859375 360.825195312 492.149414062 c 0
248.725585938 610.899414062 m 2
 275.362304688 610.899414062 324.725585938 601.865234375 324.725585938 534.899414062 c 0
 324.725585938 511.146484375 316.771484375 490.43359375 300.645507812 476.287109375 c 1
 337.852539062 375.298828125 l 1
 313.325195312 375.298828125 l 1
 276.275390625 375.298828125 l 1
 264.211914062 375.298828125 l 1
 241.125 440.090820312 l 1
 241.125 375.298828125 l 1
 172.725585938 375.298828125 l 1
 172.725585938 610.899414062 l 1
 248.725585938 610.899414062 l 2
241.125 523.499023438 m 1
 245.875 523.499023438 l 2
 251.099609375 523.499023438 253.911132812 524.439453125 254.709960938 524.776367188 c 0
 255.078125 525.661132812 256.325195312 529.151367188 256.325195312 535.848632812 c 0
 256.325195312 541.140625 255.42578125 544.161132812 255.0625 545.098632812 c 0
 254.23828125 545.46484375 251.720703125 546.298828125 245.875 546.298828125 c 2
 241.125 546.298828125 l 1
 241.125 523.499023438 l 1
EndSplineSet
EndChar

StartChar: macron
Encoding: 175 175 112
Width: 498
GlyphClass: 2
Flags: MW
HStem: 562.45 92.1494<130.926 384.576 130.926 384.576>
VStem: 130.926 253.65<562.45 654.6 562.45 654.6>
LayerCount: 2
Fore
SplineSet
130.92578125 654.599609375 m 1
 384.576171875 654.599609375 l 1
 384.576171875 562.450195312 l 1
 130.92578125 562.450195312 l 1
 130.92578125 654.599609375 l 1
EndSplineSet
EndChar

StartChar: degree
Encoding: 176 176 113
Width: 356
GlyphClass: 2
Flags: MW
HStem: 431.35 81.7002<179.128 194.824 179.128 205.729> 618.5 81.6992<179.186 194.767>
VStem: 52.0762 84.5498<557.008 573.588 557.008 584.084> 237.326 84.5498<557.008 573.588>
LayerCount: 2
Fore
SplineSet
52.076171875 565.298828125 m 0
 52.076171875 602.869140625 65.1064453125 635.756835938 90.8115234375 661.462890625 c 0
 116.517578125 687.168945312 149.40625 700.19921875 186.9765625 700.19921875 c 0
 224.545898438 700.19921875 257.434570312 687.168945312 283.140625 661.462890625 c 0
 308.845703125 635.756835938 321.875976562 602.869140625 321.875976562 565.298828125 c 0
 321.875976562 527.73046875 308.8359375 494.943359375 283.053710938 469.524414062 c 0
 257.328125 444.163085938 224.48046875 431.349609375 186.9765625 431.349609375 c 0
 149.471679688 431.349609375 116.624023438 444.163085938 90.8984375 469.524414062 c 0
 65.1162109375 494.943359375 52.076171875 527.73046875 52.076171875 565.298828125 c 0
237.326171875 565.299804688 m 0
 237.326171875 581.875976562 232.513671875 593.91796875 223.04296875 603.861328125 c 0
 213.659179688 613.71484375 202.557617188 618.5 186.9765625 618.5 c 0
 171.39453125 618.5 160.29296875 613.71484375 150.909179688 603.861328125 c 0
 141.438476562 593.91796875 136.625976562 581.875976562 136.625976562 565.299804688 c 0
 136.625976562 548.716796875 141.428710938 536.932617188 150.764648438 527.362304688 c 0
 160.110351562 517.783203125 171.280273438 513.049804688 186.9765625 513.049804688 c 0
 202.671875 513.049804688 213.841796875 517.783203125 223.1875 527.362304688 c 0
 232.5234375 536.932617188 237.326171875 548.716796875 237.326171875 565.299804688 c 0
EndSplineSet
EndChar

StartChar: plusminus
Encoding: 177 177 114
Width: 421
GlyphClass: 2
Flags: MW
HStem: 23.7998 96.9004<40.6758 398.826 40.6758 398.826> 269.85 96.9004<40.6758 171.776 40.6758 171.776 267.727 398.826 40.6758 267.727>
VStem: 171.776 95.9502<139.7 269.85 139.7 269.85 366.75 496.9>
LayerCount: 2
Fore
SplineSet
398.826171875 366.75 m 1
 398.826171875 269.849609375 l 1
 267.7265625 269.849609375 l 1
 267.7265625 139.700195312 l 1
 171.776367188 139.700195312 l 1
 171.776367188 269.849609375 l 1
 40.67578125 269.849609375 l 1
 40.67578125 366.75 l 1
 171.776367188 366.75 l 1
 171.776367188 496.900390625 l 1
 267.7265625 496.900390625 l 1
 267.7265625 366.75 l 1
 398.826171875 366.75 l 1
40.67578125 120.700195312 m 1
 398.826171875 120.700195312 l 1
 398.826171875 23.7998046875 l 1
 40.67578125 23.7998046875 l 1
 40.67578125 120.700195312 l 1
EndSplineSet
EndChar

StartChar: uni00B2
Encoding: 178 178 115
Width: 279
GlyphClass: 2
Flags: MW
HStem: 409.5 93.0996<157.458 262.977 157.458 262.977>
VStem: 34.9766 97.8496<690.7 728.7 690.7 736.3 690.7 769.052> 163.227 99.75<714.45 733.45 733.45 735.35>
LayerCount: 2
Fore
SplineSet
149.92578125 847.450195312 m 0
 218.971679688 847.450195312 262.9765625 800.87890625 262.9765625 735.349609375 c 2
 262.9765625 712.549804688 l 2
 262.9765625 681.751953125 256.034179688 655.489257812 228.930664062 614.036132812 c 0
 228.872070312 613.9453125 183.084960938 542.556640625 157.458007812 502.599609375 c 1
 262.9765625 502.599609375 l 1
 262.9765625 409.5 l 1
 33.076171875 409.5 l 1
 33.076171875 488.641601562 l 1
 144.95703125 661.813476562 l 2
 160.662109375 686.6796875 163.2265625 698.672851562 163.2265625 714.450195312 c 2
 163.2265625 733.450195312 l 2
 163.2265625 755.299804688 153.259765625 755.299804688 148.026367188 755.299804688 c 0
 140.626953125 755.299804688 138.838867188 753.61328125 136.836914062 750.227539062 c 0
 134.8671875 746.896484375 132.826171875 739.864257812 132.826171875 728.700195312 c 2
 132.826171875 690.700195312 l 1
 34.9765625 690.700195312 l 1
 34.9765625 736.299804688 l 2
 34.9765625 801.803710938 79.564453125 847.450195312 149.92578125 847.450195312 c 0
EndSplineSet
EndChar

StartChar: uni00B3
Encoding: 179 179 116
Width: 276
GlyphClass: 2
Flags: MW
HStem: 403.8 92.1514<141.382 147.683 141.382 178.852> 585.251 92.1504<106.228 140.428 106.228 140.428>
VStem: 31.1777 96.9004<514.951 516.851 516.851 555.801 506.401 555.801> 161.328 99.749<522.551 552.95 483.572 556.751 483.572 563.728>
LayerCount: 2
Fore
SplineSet
261.077148438 519.700195312 m 2
 261.077148438 447.444335938 212.526367188 403.799804688 145.176757812 403.799804688 c 0
 111.122070312 403.799804688 82.1513671875 413.196289062 61.3623046875 433.986328125 c 0
 40.8076171875 454.540039062 31.177734375 482.516601562 31.177734375 514.951171875 c 2
 31.177734375 555.80078125 l 1
 128.078125 555.80078125 l 1
 128.078125 516.850585938 l 2
 128.078125 495.951171875 138.536132812 495.951171875 144.227539062 495.951171875 c 0
 151.137695312 495.951171875 161.328125 495.951171875 161.328125 522.55078125 c 2
 161.328125 556.750976562 l 2
 161.328125 570.705078125 158.291992188 578.03125 156.213867188 580.546875 c 0
 154.52734375 582.588867188 150.813476562 585.250976562 140.427734375 585.250976562 c 2
 106.227539062 585.250976562 l 1
 106.227539062 677.401367188 l 1
 140.427734375 677.401367188 l 2
 148.836914062 677.401367188 159.427734375 677.666992188 159.427734375 702.100585938 c 2
 159.427734375 730.600585938 l 2
 159.427734375 741.123046875 157.424804688 747.561523438 155.591796875 750.526367188 c 0
 153.756835938 753.494140625 151.911132812 755.30078125 144.227539062 755.30078125 c 0
 138.34375 755.30078125 129.028320312 755.30078125 129.028320312 734.401367188 c 2
 129.028320312 695.451171875 l 1
 31.177734375 695.451171875 l 1
 31.177734375 737.250976562 l 2
 31.177734375 802.606445312 74.7021484375 847.451171875 145.176757812 847.451171875 c 0
 178.772460938 847.451171875 207.557617188 837.749023438 228.516601562 816.790039062 c 0
 249.474609375 795.831054688 259.176757812 767.045898438 259.176757812 733.451171875 c 2
 259.176757812 710.651367188 l 2
 259.176757812 669.782226562 245.342773438 648.313476562 231.6484375 635.43359375 c 1
 245.571289062 623.556640625 261.077148438 602.87109375 261.077148438 552.950195312 c 2
 261.077148438 519.700195312 l 2
EndSplineSet
EndChar

StartChar: acute
Encoding: 180 180 117
Width: 498
GlyphClass: 2
Flags: MW
HStem: 548.2 156.75<153.988 380.559 153.988 380.559>
VStem: 153.988 226.57<548.2 704.95>
LayerCount: 2
Fore
SplineSet
264.564453125 704.950195312 m 1
 380.55859375 704.950195312 l 1
 248.110351562 548.200195312 l 1
 153.98828125 548.200195312 l 1
 264.564453125 704.950195312 l 1
EndSplineSet
EndChar

StartChar: uni00B5
Encoding: 181 181 118
Width: 414
GlyphClass: 2
Flags: MW
HStem: -6.59961 91.1992<206.009 221.779> 1 21G<277.227 373.176 277.227 277.227>
VStem: 58.7266 97.8496<141.976 154.9 154.9 526.35> 274.376 98.7998<154.9 526.35 1 526.35>
LayerCount: 2
Fore
SplineSet
277.2265625 17.07421875 m 1x70
 264.091796875 7.158203125 239.482421875 -6.599609375 204.076171875 -6.599609375 c 0
 187.166992188 -6.599609375 171.473632812 -3.546875 157.526367188 2.6826171875 c 1
 157.526367188 -145.299804688 l 1
 58.7265625 -145.299804688 l 1
 58.7265625 526.349609375 l 1
 156.576171875 526.349609375 l 1
 156.576171875 154.900390625 l 2
 156.576171875 129.051757812 162.870117188 112.176757812 172.860351562 101.505859375 c 0
 183.34375 90.3076171875 196.541015625 84.599609375 215.4765625 84.599609375 c 0xb0
 233.428710938 84.599609375 246.487304688 90.337890625 257.504882812 102.334960938 c 0
 268.168945312 113.947265625 274.375976562 130.606445312 274.375976562 154.900390625 c 2
 274.375976562 526.349609375 l 1
 373.17578125 526.349609375 l 1
 373.17578125 1 l 1
 277.2265625 1 l 1
 277.2265625 17.07421875 l 1x70
EndSplineSet
EndChar

StartChar: paragraph
Encoding: 182 182 119
Width: 516
GlyphClass: 2
Flags: MW
HStem: 670.7 20G<264.876 445.376 445.376 445.376>
VStem: 59.6758 254.601<445.332 532.963> 217.376 96.9004<-143.4 258.672 258.672 258.672> 348.477 96.8994<-143.4 594.75 594.75 594.75>
LayerCount: 2
Fore
SplineSet
59.67578125 474.099609375 m 0xd0
 59.67578125 591.826171875 136.458007812 690.700195312 264.875976562 690.700195312 c 2
 445.375976562 690.700195312 l 1
 445.375976562 -143.400390625 l 1
 348.4765625 -143.400390625 l 1
 348.4765625 594.75 l 1
 314.276367188 594.75 l 1
 314.276367188 -143.400390625 l 1
 217.375976562 -143.400390625 l 1
 217.375976562 258.671875 l 1xb0
 172.448242188 266.41015625 134.829101562 289.125 106.452148438 325.920898438 c 0
 75.0732421875 366.612304688 59.67578125 416.563476562 59.67578125 474.099609375 c 0xd0
EndSplineSet
EndChar

StartChar: periodcentered
Encoding: 183 183 120
Width: 172
GlyphClass: 2
Flags: MW
HStem: 215.7 118.75<41.626 149.926 41.626 149.926>
VStem: 41.626 108.3<215.7 334.45 215.7 334.45>
LayerCount: 2
Fore
SplineSet
41.6259765625 334.450195312 m 1
 149.92578125 334.450195312 l 1
 149.92578125 215.700195312 l 1
 41.6259765625 215.700195312 l 1
 41.6259765625 334.450195312 l 1
EndSplineSet
EndChar

StartChar: cedilla
Encoding: 184 184 121
Width: 498
GlyphClass: 2
Flags: MW
HStem: -143.4 190<248.766 278.87 168.827 346.065>
VStem: 168.827 177.238
LayerCount: 2
Fore
SplineSet
346.065429688 46.599609375 m 1
 278.870117188 -143.400390625 l 1
 168.827148438 -143.400390625 l 1
 248.765625 46.599609375 l 1
 346.065429688 46.599609375 l 1
EndSplineSet
EndChar

StartChar: uni00B9
Encoding: 185 185 122
Width: 209
GlyphClass: 2
Flags: MW
VStem: 81.5264 101.649<409.5 713.846 713.846 713.846>
LayerCount: 2
Fore
SplineSet
22.6259765625 666.345703125 m 1
 22.6259765625 785.427734375 l 1
 92.6884765625 840.799804688 l 1
 183.17578125 840.799804688 l 1
 183.17578125 409.5 l 1
 81.5263671875 409.5 l 1
 81.5263671875 713.845703125 l 1
 22.6259765625 666.345703125 l 1
EndSplineSet
EndChar

StartChar: ordmasculine
Encoding: 186 186 123
Width: 302
GlyphClass: 2
Flags: MW
HStem: 404.75 90.25<155.455 165.035 155.455 178.363> 656.5 89.2998<155.455 165.035>
VStem: 41.626 95.9502<535.85 615.65 615.65 616.6 527.303 636.678> 182.227 95.9492<534.9 535.85 535.85 615.65 514.834 616.6 514.834 624.216>
LayerCount: 2
Fore
SplineSet
160.375976562 404.75 m 0
 109.2109375 404.75 41.6259765625 425.614257812 41.6259765625 535.849609375 c 2
 41.6259765625 615.650390625 l 2
 41.6259765625 657.706054688 50.5400390625 691.563476562 72.65234375 714.079101562 c 0
 94.134765625 735.952148438 124.454101562 745.799804688 160.375976562 745.799804688 c 0
 196.284179688 745.799804688 226.526367188 735.959960938 247.734375 713.965820312 c 0
 269.465820312 691.428710938 278.17578125 657.659179688 278.17578125 615.650390625 c 2
 278.17578125 535.849609375 l 2
 278.17578125 493.818359375 269.44140625 459.971679688 247.83984375 437.168945312 c 0
 226.66015625 414.813476562 196.349609375 404.75 160.375976562 404.75 c 0
182.2265625 534.900390625 m 2
 182.2265625 616.599609375 l 2
 182.2265625 631.83203125 179.694335938 642.194335938 176.6171875 647.823242188 c 0
 173.213867188 654.047851562 169.694335938 656.5 160.375976562 656.5 c 0
 150.534179688 656.5 146.752929688 653.856445312 143.288085938 647.670898438 c 0
 140.15625 642.077148438 137.576171875 631.793945312 137.576171875 616.599609375 c 2
 137.576171875 534.900390625 l 2
 137.576171875 519.706054688 140.15625 509.422851562 143.288085938 503.829101562 c 0
 146.752929688 497.643554688 150.534179688 495 160.375976562 495 c 0
 169.694335938 495 173.213867188 497.452148438 176.6171875 503.676757812 c 0
 179.694335938 509.305664062 182.2265625 519.66796875 182.2265625 534.900390625 c 2
153.7265625 822.75 m 1024
EndSplineSet
EndChar

StartChar: guillemotright
Encoding: 187 187 124
Width: 423
GlyphClass: 2
Flags: W
LayerCount: 2
Fore
SplineSet
58.7265625 363.61328125 m 1
 58.7265625 484.681640625 l 1
 269.791992188 268.900390625 l 1
 58.7265625 53.1181640625 l 1
 58.7265625 174.186523438 l 1
 150.784179688 268.900390625 l 1
 58.7265625 363.61328125 l 1
215.4765625 363.61328125 m 1
 215.4765625 484.850585938 l 1
 425.526367188 268.900390625 l 1
 215.4765625 52.94921875 l 1
 215.4765625 174.186523438 l 1
 307.534179688 268.900390625 l 1
 215.4765625 363.61328125 l 1
EndSplineSet
EndChar

StartChar: onequarter
Encoding: 188 188 125
Width: 627
GlyphClass: 3
Flags: MW
HStem: 1 21G<123.706 123.706 123.706 219.904 486.227 486.227 486.227 586.926> 71.2998 93.1006<466.096 486.227 466.096 486.227 586.926 616.376> 516.245 21G<22.626 22.626> 670.7 20G<92.6885 183.176 183.176 183.176 371.598 467.797 467.797 467.797>
VStem: 81.5264 101.649<259.4 563.745 563.745 563.745> 486.227 100.699<1 71.2998 1 71.2998 164.4 226.105 226.105 226.105>
LayerCount: 2
Fore
SplineSet
22.6259765625 516.245117188 m 1
 22.6259765625 635.328125 l 1
 92.6884765625 690.700195312 l 1
 183.17578125 690.700195312 l 1
 183.17578125 259.400390625 l 1
 81.5263671875 259.400390625 l 1
 81.5263671875 563.745117188 l 1
 22.6259765625 516.245117188 l 1
123.706054688 1 m 1
 371.59765625 690.700195312 l 1
 467.796875 690.700195312 l 1
 219.904296875 1 l 1
 123.706054688 1 l 1
586.92578125 164.400390625 m 1
 616.375976562 164.400390625 l 1
 616.375976562 71.2998046875 l 1
 586.92578125 71.2998046875 l 1
 586.92578125 1 l 1
 486.2265625 1 l 1
 486.2265625 71.2998046875 l 1
 358.92578125 71.2998046875 l 1
 358.92578125 150.029296875 l 1
 451.014648438 432.299804688 l 1
 553.495117188 432.299804688 l 1
 495.848632812 255.599609375 l 1
 586.92578125 255.599609375 l 1
 586.92578125 164.400390625 l 1
486.2265625 164.400390625 m 1
 486.2265625 226.10546875 l 1
 466.095703125 164.400390625 l 1
 486.2265625 164.400390625 l 1
EndSplineSet
Ligature2: "'frac' Diagonal Fractions lookup 2 subtable" one slash four
EndChar

StartChar: onehalf
Encoding: 189 189 126
Width: 635
GlyphClass: 3
Flags: MW
HStem: 1 93.0996<511.808 617.326 511.808 617.326> 516.245 21G<22.626 22.626> 670.7 20G<92.6885 183.176 183.176 183.176 371.598 467.797 467.797 467.797>
VStem: 81.5264 101.649<259.4 563.745 563.745 563.745> 389.326 97.8496<282.2 320.2 282.2 327.8 282.2 360.552> 517.576 99.75<305.95 324.95 324.95 326.85>
LayerCount: 2
Fore
SplineSet
22.6259765625 516.245117188 m 1
 22.6259765625 635.328125 l 1
 92.6884765625 690.700195312 l 1
 183.17578125 690.700195312 l 1
 183.17578125 259.400390625 l 1
 81.5263671875 259.400390625 l 1
 81.5263671875 563.745117188 l 1
 22.6259765625 516.245117188 l 1
371.59765625 690.700195312 m 1
 467.796875 690.700195312 l 1
 219.904296875 1 l 1
 123.706054688 1 l 1
 371.59765625 690.700195312 l 1
504.276367188 438.950195312 m 0
 573.321289062 438.950195312 617.326171875 392.37890625 617.326171875 326.849609375 c 2
 617.326171875 304.049804688 l 2
 617.326171875 273.26953125 610.400390625 247.02734375 583.280273438 205.536132812 c 0
 583.22265625 205.446289062 537.435546875 134.057617188 511.807617188 94.099609375 c 1
 617.326171875 94.099609375 l 1
 617.326171875 1 l 1
 387.42578125 1 l 1
 387.42578125 80.1416015625 l 1
 499.307617188 253.313476562 l 2
 515.012695312 278.1796875 517.576171875 290.172851562 517.576171875 305.950195312 c 2
 517.576171875 324.950195312 l 2
 517.576171875 346.799804688 507.609375 346.799804688 502.375976562 346.799804688 c 0
 494.977539062 346.799804688 493.188476562 345.11328125 491.186523438 341.727539062 c 0
 489.216796875 338.396484375 487.17578125 331.364257812 487.17578125 320.200195312 c 2
 487.17578125 282.200195312 l 1
 389.326171875 282.200195312 l 1
 389.326171875 327.799804688 l 2
 389.326171875 393.303710938 433.9140625 438.950195312 504.276367188 438.950195312 c 0
EndSplineSet
Ligature2: "'frac' Diagonal Fractions lookup 2 subtable" one slash two
EndChar

StartChar: threequarters
Encoding: 190 190 127
Width: 652
GlyphClass: 3
Flags: MW
HStem: 0.999023 21G<172.157 172.157 172.157 268.356 511.878 511.878 511.878 612.578> 71.2988 93.1006<491.747 511.878 491.747 511.878 612.578 642.028> 253.699 92.1504<141.381 147.682 141.381 178.845> 435.151 92.1494<106.227 140.427 106.227 140.427>
VStem: 31.1768 96.9004<364.85 366.75 366.75 405.7 356.3 405.7> 161.327 99.749<372.45 402.85 333.466 406.65 333.466 413.625> 511.878 100.7<0.999023 71.2988 0.999023 71.2988 164.399 226.104 226.104 226.104>
LayerCount: 2
Fore
SplineSet
261.076171875 369.599609375 m 2
 261.076171875 297.333007812 212.51171875 253.69921875 145.177734375 253.69921875 c 0
 111.123046875 253.69921875 82.15234375 263.094726562 61.36328125 283.884765625 c 0
 40.8095703125 304.438476562 31.1767578125 332.415039062 31.1767578125 364.849609375 c 2
 31.1767578125 405.700195312 l 1
 128.077148438 405.700195312 l 1
 128.077148438 366.75 l 2
 128.077148438 345.849609375 138.53515625 345.849609375 144.2265625 345.849609375 c 0
 151.13671875 345.849609375 161.327148438 345.849609375 161.327148438 372.450195312 c 2
 161.327148438 406.650390625 l 2
 161.327148438 420.598632812 158.296875 427.923828125 156.212890625 430.446289062 c 0
 154.526367188 432.48828125 150.8125 435.151367188 140.426757812 435.151367188 c 2
 106.2265625 435.151367188 l 1
 106.2265625 527.30078125 l 1
 140.426757812 527.30078125 l 2
 148.8359375 527.30078125 159.426757812 527.56640625 159.426757812 552.000976562 c 2
 159.426757812 580.500976562 l 2
 159.426757812 591.0234375 157.423828125 597.4609375 155.590820312 600.426757812 c 0
 153.755859375 603.39453125 151.91015625 605.201171875 144.2265625 605.201171875 c 0
 138.342773438 605.201171875 129.02734375 605.201171875 129.02734375 584.30078125 c 2
 129.02734375 545.350585938 l 1
 31.1767578125 545.350585938 l 1
 31.1767578125 587.151367188 l 2
 31.1767578125 652.505859375 74.701171875 697.350585938 145.17578125 697.350585938 c 0
 178.771484375 697.350585938 207.556640625 687.6484375 228.515625 666.690429688 c 0
 249.473632812 645.731445312 259.17578125 616.946289062 259.17578125 583.350585938 c 2
 259.17578125 560.55078125 l 2
 259.17578125 519.682617188 245.341796875 498.212890625 231.647460938 485.333984375 c 1
 245.5703125 473.456054688 261.076171875 452.770507812 261.076171875 402.849609375 c 2
 261.076171875 369.599609375 l 2
172.157226562 0.9990234375 m 1
 420.049804688 690.69921875 l 1
 516.248046875 690.69921875 l 1
 268.356445312 0.9990234375 l 1
 172.157226562 0.9990234375 l 1
612.578125 164.399414062 m 1
 642.028320312 164.399414062 l 1
 642.028320312 71.298828125 l 1
 612.578125 71.298828125 l 1
 612.578125 0.9990234375 l 1
 511.877929688 0.9990234375 l 1
 511.877929688 71.298828125 l 1
 384.578125 71.298828125 l 1
 384.578125 150.028320312 l 1
 476.666015625 432.298828125 l 1
 579.147460938 432.298828125 l 1
 521.5 255.598632812 l 1
 612.578125 255.598632812 l 1
 612.578125 164.399414062 l 1
511.877929688 164.399414062 m 1
 511.877929688 226.104492188 l 1
 491.747070312 164.399414062 l 1
 511.877929688 164.399414062 l 1
EndSplineSet
Ligature2: "'frac' Diagonal Fractions lookup 2 subtable" three slash four
EndChar

StartChar: questiondown
Encoding: 191 191 128
Width: 366
GlyphClass: 2
Flags: MW
HStem: -154.8 95.9512<185.692 206.283 185.692 223.339> 400 126.35<140.426 248.727 140.426 248.727>
VStem: 37.8262 103.549<-8.31348 33.8105 -19.8394 42.2456> 140.426 108.301<400 526.35 400 526.35> 249.675 103.733<40.9004 58 58 58>
LayerCount: 2
Fore
SplineSet
140.42578125 526.349609375 m 1xd8
 248.7265625 526.349609375 l 1
 248.7265625 400 l 1
 140.42578125 400 l 1
 140.42578125 526.349609375 l 1xd8
141.375 17.1513671875 m 0xe8
 141.375 -56.830078125 176.809570312 -58.8486328125 194.575195312 -58.8486328125 c 0
 217.990234375 -58.8486328125 229.4765625 -51.82421875 236.2265625 -39.9609375 c 0
 244.086914062 -26.1455078125 249.674804688 1.0244140625 249.674804688 40.900390625 c 2
 249.674804688 58 l 1
 353.408203125 58 l 1
 352.954101562 15.349609375 352.328125 -43.509765625 321.880859375 -91.693359375 c 0
 295.159179688 -133.98046875 251.151367188 -154.799804688 195.526367188 -154.799804688 c 0
 146.475585938 -154.799804688 106.075195312 -139.590820312 78.14453125 -107.616210938 c 0
 50.650390625 -76.142578125 37.826171875 -33.77734375 37.826171875 17.150390625 c 0
 37.826171875 67.3408203125 49.22265625 100.4765625 87.7294921875 165.541992188 c 2
 119.962890625 219.579101562 l 2
 139.33203125 252.62109375 143.275390625 267.131835938 143.275390625 300.25 c 2
 143.275390625 350.599609375 l 1
 246.825195312 350.599609375 l 1
 246.825195312 296.450195312 l 2
 246.825195312 245.484375 238.372070312 221.944335938 209.209960938 174.555664062 c 0
 209.149414062 174.456054688 171.165039062 111.782226562 171.165039062 111.782226562 c 2
 146.850585938 72.111328125 141.375 50.4697265625 141.375 17.1513671875 c 0xe8
EndSplineSet
EndChar

StartChar: Agrave
Encoding: 192 192 129
Width: 460
GlyphClass: 2
Flags: MW
HStem: 1 21G<5.94043 5.94043 5.94043 113.881 362.672 362.672 362.672 471.562> 168.2 94.0498<179.415 297.137 179.415 320.871 155.681 297.137> 670.7 20G<193.858 283.644 283.644 283.644>
LayerCount: 2
Fore
SplineSet
5.9404296875 1 m 1
 193.858398438 690.700195312 l 1
 283.643554688 690.700195312 l 1
 471.5625 1 l 1
 362.671875 1 l 1
 320.87109375 168.200195312 l 1
 155.680664062 168.200195312 l 1
 113.880859375 1 l 1
 5.9404296875 1 l 1
179.415039062 262.25 m 1
 297.13671875 262.25 l 1
 238.276367188 498.38671875 l 1
 179.415039062 262.25 l 1
96.9443359375 869.299804688 m 1
 212.9375 869.299804688 l 1
 323.513671875 712.549804688 l 1
 229.391601562 712.549804688 l 1
 96.9443359375 869.299804688 l 1
EndSplineSet
EndChar

StartChar: Aacute
Encoding: 193 193 130
Width: 460
GlyphClass: 2
Flags: MW
HStem: 1 21G<5.94043 5.94043 5.94043 113.881 362.672 362.672 362.672 471.562> 168.2 94.0498<179.415 297.137 179.415 320.871 155.681 297.137> 670.7 20G<193.858 283.644 283.644 283.644>
LayerCount: 2
Fore
SplineSet
5.9404296875 1 m 1
 193.858398438 690.700195312 l 1
 283.643554688 690.700195312 l 1
 471.5625 1 l 1
 362.671875 1 l 1
 320.87109375 168.200195312 l 1
 155.680664062 168.200195312 l 1
 113.880859375 1 l 1
 5.9404296875 1 l 1
179.415039062 262.25 m 1
 297.13671875 262.25 l 1
 238.276367188 498.38671875 l 1
 179.415039062 262.25 l 1
372.0078125 869.299804688 m 1
 239.560546875 712.549804688 l 1
 145.438476562 712.549804688 l 1
 256.014648438 869.299804688 l 1
 372.0078125 869.299804688 l 1
EndSplineSet
EndChar

StartChar: Acircumflex
Encoding: 194 194 131
Width: 460
GlyphClass: 2
Flags: MW
HStem: 1 21G<5.94043 5.94043 5.94043 113.881 362.672 362.672 362.672 471.562> 168.2 94.0498<179.415 297.137 179.415 320.871 155.681 297.137> 670.7 20G<193.858 283.644 283.644 283.644>
LayerCount: 2
Fore
SplineSet
5.9404296875 1 m 1
 193.858398438 690.700195312 l 1
 283.643554688 690.700195312 l 1
 471.5625 1 l 1
 362.671875 1 l 1
 320.87109375 168.200195312 l 1
 155.680664062 168.200195312 l 1
 113.880859375 1 l 1
 5.9404296875 1 l 1
179.415039062 262.25 m 1
 297.13671875 262.25 l 1
 238.276367188 498.38671875 l 1
 179.415039062 262.25 l 1
277.583007812 875 m 1
 396.499023438 704.950195312 l 1
 291.125 704.950195312 l 1
 240.06640625 777.890625 l 1
 188.197265625 704.950195312 l 1
 83.4658203125 704.950195312 l 1
 198.814453125 875 l 1
 277.583007812 875 l 1
EndSplineSet
EndChar

StartChar: Atilde
Encoding: 195 195 132
Width: 460
GlyphClass: 2
Flags: MW
HStem: 1 21G<5.94043 5.94043 5.94043 113.881 362.672 362.672 362.672 471.562> 168.2 94.0498<179.415 297.137 179.415 320.871 155.681 297.137> 670.7 20G<193.858 283.644 283.644 283.644> 708.75 97.8496<284.816 293.07 284.816 301.536> 742 98.7998<187.509 196.104>
LayerCount: 2
Fore
SplineSet
5.9404296875 1 m 1xe0
 193.858398438 690.700195312 l 1
 283.643554688 690.700195312 l 1
 471.5625 1 l 1
 362.671875 1 l 1
 320.87109375 168.200195312 l 1
 155.680664062 168.200195312 l 1
 113.880859375 1 l 1
 5.9404296875 1 l 1xe0
179.415039062 262.25 m 1
 297.13671875 262.25 l 1
 238.276367188 498.38671875 l 1
 179.415039062 262.25 l 1
195.528320312 840.799804688 m 0xe8
 214.502929688 840.799804688 227.360351562 837 252.2578125 820.994140625 c 0
 273.978515625 807.030273438 281.004882812 806.599609375 288.627929688 806.599609375 c 0
 297.512695312 806.599609375 302.69921875 806.599609375 327.932617188 835.818359375 c 2
 357.977539062 870.607421875 l 1
 357.977539062 751.913085938 l 1
 337.318359375 727.381835938 320.14453125 708.75 282.927734375 708.75 c 0xf0
 263.05859375 708.75 251.564453125 712.53125 222.2109375 729.041992188 c 0
 203.529296875 739.715820312 199.53125 742 192.67578125 742 c 0
 182.341796875 742 173.12890625 740.615234375 149.866210938 712.182617188 c 2
 119.526367188 675.099609375 l 1
 119.526367188 798.208984375 l 1
 143.5859375 823.606445312 161.139648438 840.799804688 195.528320312 840.799804688 c 0xe8
EndSplineSet
EndChar

StartChar: Adieresis
Encoding: 196 196 133
Width: 460
GlyphClass: 2
Flags: MW
HStem: 1 21G<5.94043 5.94043 5.94043 113.881 362.672 362.672 362.672 471.562> 168.2 94.0498<179.415 297.137 179.415 320.871 155.681 297.137> 670.7 20G<193.858 283.644 283.644 283.644> 715.4 115.899<113.826 219.276 113.826 219.276 113.826 258.227 258.227 363.676>
VStem: 113.826 105.45<715.4 831.3 715.4 831.3> 258.227 105.449<715.4 831.3 715.4 831.3>
LayerCount: 2
Fore
SplineSet
5.9404296875 1 m 1
 193.858398438 690.700195312 l 1
 283.643554688 690.700195312 l 1
 471.5625 1 l 1
 362.671875 1 l 1
 320.87109375 168.200195312 l 1
 155.680664062 168.200195312 l 1
 113.880859375 1 l 1
 5.9404296875 1 l 1
179.415039062 262.25 m 1
 297.13671875 262.25 l 1
 238.276367188 498.38671875 l 1
 179.415039062 262.25 l 1
113.826171875 831.299804688 m 1
 219.276367188 831.299804688 l 1
 219.276367188 715.400390625 l 1
 113.826171875 715.400390625 l 1
 113.826171875 831.299804688 l 1
258.2265625 831.299804688 m 1
 363.67578125 831.299804688 l 1
 363.67578125 715.400390625 l 1
 258.2265625 715.400390625 l 1
 258.2265625 831.299804688 l 1
EndSplineSet
EndChar

StartChar: Aring
Encoding: 197 197 134
Width: 460
GlyphClass: 2
Flags: MW
HStem: 1 21G<362.672 471.562 362.672 362.672> 168.201 94.0498<179.415 183.212> 783.802 70.2988<233.699 243.288>
VStem: 137.576 72.2002<747.286 757.611 747.286 781.157> 267.727 73.1494<747.286 757.613>
LayerCount: 2
Fore
SplineSet
340.875976562 752.451171875 m 0
 340.875976562 735.22265625 336.287109375 689.9765625 290.840820312 664.286132812 c 1
 471.5625 1 l 1
 362.671875 1 l 1
 320.87109375 168.200195312 l 1
 265.807617188 168.200195312 210.744140625 168.201171875 155.680664062 168.201171875 c 1
 113.880859375 1.0009765625 l 1
 5.9404296875 1.0009765625 l 1
 186.719726562 664.499023438 l 1
 172.755859375 672.688476562 137.576171875 698.659179688 137.576171875 752.451171875 c 0
 137.576171875 809.86328125 180.043945312 854.100585938 238.276367188 854.100585938 c 0
 298.159179688 854.100585938 340.875976562 809.487304688 340.875976562 752.451171875 c 0
238.276367188 722.05078125 m 0
 248.459960938 722.05078125 254.626953125 724.86328125 259.692382812 730.1171875 c 0
 264.9140625 735.53125 267.7265625 742.120117188 267.7265625 752.451171875 c 0
 267.7265625 762.775390625 264.901367188 769.6640625 259.486328125 775.478515625 c 0
 254.362304688 780.982421875 248.298828125 783.801757812 238.276367188 783.801757812 c 0
 229.12109375 783.801757812 223.310546875 781.166015625 218.017578125 775.48046875 c 0
 212.600585938 769.662109375 209.776367188 762.771484375 209.776367188 752.451171875 c 0
 209.776367188 742.120117188 212.588867188 735.53125 217.809570312 730.1171875 c 0
 223.044921875 724.688476562 228.952148438 722.05078125 238.276367188 722.05078125 c 0
179.415039062 262.250976562 m 1
 297.13671875 262.250976562 l 1
 238.276367188 498.387695312 l 1
 179.415039062 262.250976562 l 1
EndSplineSet
EndChar

StartChar: AE
Encoding: 198 198 135
Width: 677
GlyphClass: 2
Flags: MW
HStem: 1 95.9502<441.576 656.276 441.576 656.276> 164.4 95<222.438 338.977 222.438 338.977 182.087 338.977> 303.1 96.9004<441.576 624.926 441.576 624.926> 594.75 95.9502<441.576 656.276 441.576 441.576>
VStem: 338.977 102.6<96.9502 164.4 164.4 164.4 259.4 303.1 400 530.629 530.629 530.629>
LayerCount: 2
Fore
SplineSet
2.2080078125 1 m 1
 303.077148438 690.700195312 l 1
 656.276367188 690.700195312 l 1
 656.276367188 594.75 l 1
 441.576171875 594.75 l 1
 441.576171875 400 l 1
 624.92578125 400 l 1
 624.92578125 303.099609375 l 1
 441.576171875 303.099609375 l 1
 441.576171875 96.9501953125 l 1
 656.276367188 96.9501953125 l 1
 656.276367188 1 l 1
 338.9765625 1 l 1
 338.9765625 164.400390625 l 1
 182.086914062 164.400390625 l 1
 111.787109375 1 l 1
 2.2080078125 1 l 1
338.9765625 259.400390625 m 1
 338.9765625 530.62890625 l 1
 222.4375 259.400390625 l 1
 338.9765625 259.400390625 l 1
EndSplineSet
EndChar

StartChar: Ccedilla
Encoding: 199 199 136
Width: 476
GlyphClass: 2
Flags: MW
HStem: 602.35 96.9004<223.614 262.965>
VStem: 52.0752 103.549<209.05 476> 338.024 101.649<200.5 226.15 171.751 226.15>
LayerCount: 2
Fore
SplineSet
248.724609375 90.2998046875 m 0
 301.061523438 90.2998046875 338.024414062 119.110351562 338.024414062 200.5 c 2
 338.024414062 226.150390625 l 1
 439.673828125 226.150390625 l 1
 439.673828125 199.549804688 l 2
 439.673828125 143.952148438 427.634765625 98.0400390625 401.5703125 63.4072265625 c 0
 377.880859375 31.9296875 345.913085938 10.8359375 307.317382812 0.7421875 c 1
 256.045898438 -143.400390625 l 1
 146.02734375 -143.400390625 l 1
 205.243164062 -2.6396484375 l 1
 163.05859375 4.978515625 127.456054688 24.2626953125 100.064453125 55.2275390625 c 0
 67.21875 92.3583984375 52.0751953125 144.440429688 52.0751953125 209.049804688 c 2
 52.0751953125 482.650390625 l 2
 52.0751953125 551.772460938 69.0322265625 606.66796875 105.89453125 644.24609375 c 0
 142.067382812 681.122070312 190.328125 699.25 247.775390625 699.25 c 0
 303.284179688 699.25 350.522460938 681.9765625 386.924804688 646.975585938 c 0
 424.315429688 611.021484375 441.576171875 557.938476562 441.576171875 491.200195312 c 2
 441.576171875 465.549804688 l 1
 338.03125 465.549804688 l 1
 338.026367188 482.645507812 l 1
 338.026367188 489.299804688 l 2
 338.026367188 532.096679688 328.590820312 560.268554688 313.58984375 576.5 c 0
 297.78125 593.604492188 277.206054688 602.349609375 248.724609375 602.349609375 c 0
 198.50390625 602.349609375 155.624023438 580.919921875 155.624023438 476 c 2
 155.624023438 208.099609375 l 2
 155.624023438 102.465820312 208.728515625 90.2998046875 248.724609375 90.2998046875 c 0
EndSplineSet
EndChar

StartChar: Egrave
Encoding: 200 200 137
Width: 404
GlyphClass: 2
Flags: MW
HStem: 1 95.9502<162.276 385.526 162.276 385.526> 303.1 96.9004<162.276 354.176 162.276 354.176> 594.75 95.9502<162.276 385.526 162.276 162.276>
VStem: 59.6758 102.601<96.9502 96.9502 96.9502 303.1 400 594.75>
LayerCount: 2
Fore
SplineSet
162.276367188 96.9501953125 m 1
 385.526367188 96.9501953125 l 1
 385.526367188 1 l 1
 59.67578125 1 l 1
 59.67578125 690.700195312 l 1
 385.526367188 690.700195312 l 1
 385.526367188 594.75 l 1
 162.276367188 594.75 l 1
 162.276367188 400 l 1
 354.17578125 400 l 1
 354.17578125 303.099609375 l 1
 162.276367188 303.099609375 l 1
 162.276367188 96.9501953125 l 1
79.84375 869.299804688 m 1
 195.837890625 869.299804688 l 1
 306.413085938 712.549804688 l 1
 212.291992188 712.549804688 l 1
 79.84375 869.299804688 l 1
EndSplineSet
EndChar

StartChar: Eacute
Encoding: 201 201 138
Width: 404
GlyphClass: 2
Flags: MW
HStem: 1 95.9502<162.276 385.526 162.276 385.526> 303.1 96.9004<162.276 354.176 162.276 354.176> 594.75 95.9502<162.276 385.526 162.276 162.276>
VStem: 59.6758 102.601<96.9502 96.9502 96.9502 303.1 400 594.75>
LayerCount: 2
Fore
SplineSet
162.276367188 96.9501953125 m 1
 385.526367188 96.9501953125 l 1
 385.526367188 1 l 1
 59.67578125 1 l 1
 59.67578125 690.700195312 l 1
 385.526367188 690.700195312 l 1
 385.526367188 594.75 l 1
 162.276367188 594.75 l 1
 162.276367188 400 l 1
 354.17578125 400 l 1
 354.17578125 303.099609375 l 1
 162.276367188 303.099609375 l 1
 162.276367188 96.9501953125 l 1
238.9140625 869.299804688 m 1
 354.908203125 869.299804688 l 1
 222.4609375 712.549804688 l 1
 128.338867188 712.549804688 l 1
 238.9140625 869.299804688 l 1
EndSplineSet
EndChar

StartChar: Ecircumflex
Encoding: 202 202 139
Width: 404
GlyphClass: 2
Flags: MW
HStem: 1 95.9502<162.276 385.526 162.276 385.526> 303.1 96.9004<162.276 354.176 162.276 354.176> 594.75 95.9502<162.276 385.526 162.276 162.276>
VStem: 59.6758 102.601<96.9502 96.9502 96.9502 303.1 400 594.75>
LayerCount: 2
Fore
SplineSet
162.276367188 96.9501953125 m 1
 385.526367188 96.9501953125 l 1
 385.526367188 1 l 1
 59.67578125 1 l 1
 59.67578125 690.700195312 l 1
 385.526367188 690.700195312 l 1
 385.526367188 594.75 l 1
 162.276367188 594.75 l 1
 162.276367188 400 l 1
 354.17578125 400 l 1
 354.17578125 303.099609375 l 1
 162.276367188 303.099609375 l 1
 162.276367188 96.9501953125 l 1
181.713867188 875 m 1
 260.482421875 875 l 1
 379.3984375 704.950195312 l 1
 274.024414062 704.950195312 l 1
 222.965820312 777.890625 l 1
 171.096679688 704.950195312 l 1
 66.365234375 704.950195312 l 1
 181.713867188 875 l 1
EndSplineSet
EndChar

StartChar: Edieresis
Encoding: 203 203 140
Width: 404
GlyphClass: 2
Flags: MW
HStem: 1 95.9502<162.276 385.526 162.276 385.526> 303.1 96.9004<162.276 354.176 162.276 354.176> 594.75 95.9502<162.276 385.526 162.276 162.276> 715.4 115.899<96.7266 202.176 96.7266 202.176 96.7266 241.126 241.126 346.576>
VStem: 59.6758 102.601<96.9502 96.9502 96.9502 303.1 400 594.75> 96.7266 105.449<715.4 831.3 715.4 831.3> 241.126 105.45<715.4 831.3 715.4 831.3>
LayerCount: 2
Fore
SplineSet
162.276367188 96.9501953125 m 1xfa
 385.526367188 96.9501953125 l 1
 385.526367188 1 l 1
 59.67578125 1 l 1
 59.67578125 690.700195312 l 1
 385.526367188 690.700195312 l 1
 385.526367188 594.75 l 1
 162.276367188 594.75 l 1
 162.276367188 400 l 1
 354.17578125 400 l 1
 354.17578125 303.099609375 l 1
 162.276367188 303.099609375 l 1
 162.276367188 96.9501953125 l 1xfa
96.7265625 831.299804688 m 1xf6
 202.17578125 831.299804688 l 1
 202.17578125 715.400390625 l 1
 96.7265625 715.400390625 l 1
 96.7265625 831.299804688 l 1xf6
241.125976562 831.299804688 m 1
 346.576171875 831.299804688 l 1
 346.576171875 715.400390625 l 1
 241.125976562 715.400390625 l 1
 241.125976562 831.299804688 l 1
EndSplineSet
EndChar

StartChar: Igrave
Encoding: 204 204 141
Width: 214
GlyphClass: 2
Flags: MW
HStem: 1 21G<65.376 167.977 65.376 65.376> 670.7 20G<65.376 167.977 167.977 167.977>
VStem: 65.376 102.601<1 690.7 1 690.7>
LayerCount: 2
Fore
SplineSet
65.3759765625 690.700195312 m 1
 167.9765625 690.700195312 l 1
 167.9765625 1 l 1
 65.3759765625 1 l 1
 65.3759765625 690.700195312 l 1
-25.60546875 869.299804688 m 1
 90.3876953125 869.299804688 l 1
 200.963867188 712.549804688 l 1
 106.841796875 712.549804688 l 1
 -25.60546875 869.299804688 l 1
EndSplineSet
EndChar

StartChar: Iacute
Encoding: 205 205 142
Width: 214
GlyphClass: 2
Flags: MW
HStem: 1 21G<65.376 167.977 65.376 65.376> 670.7 20G<65.376 167.977 167.977 167.977>
VStem: 65.376 102.601<1 690.7 1 690.7>
LayerCount: 2
Fore
SplineSet
65.3759765625 690.700195312 m 1
 167.9765625 690.700195312 l 1
 167.9765625 1 l 1
 65.3759765625 1 l 1
 65.3759765625 690.700195312 l 1
133.463867188 869.299804688 m 1
 249.458007812 869.299804688 l 1
 117.010742188 712.549804688 l 1
 22.888671875 712.549804688 l 1
 133.463867188 869.299804688 l 1
EndSplineSet
EndChar

StartChar: Icircumflex
Encoding: 206 206 143
Width: 214
GlyphClass: 2
Flags: MW
HStem: 1 21G<65.376 167.977 65.376 65.376> 670.7 20G<65.376 167.977 167.977 167.977>
VStem: 65.376 102.601<1 690.7 1 690.7>
LayerCount: 2
Fore
SplineSet
65.3759765625 690.700195312 m 1
 167.9765625 690.700195312 l 1
 167.9765625 1 l 1
 65.3759765625 1 l 1
 65.3759765625 690.700195312 l 1
76.263671875 875 m 1
 155.032226562 875 l 1
 273.948242188 704.950195312 l 1
 168.575195312 704.950195312 l 1
 117.515625 777.890625 l 1
 65.646484375 704.950195312 l 1
 -39.0849609375 704.950195312 l 1
 76.263671875 875 l 1
EndSplineSet
EndChar

StartChar: Idieresis
Encoding: 207 207 144
Width: 214
GlyphClass: 2
Flags: MW
HStem: 1 21G<65.376 167.977 65.376 65.376> 670.7 20G<65.376 167.977 167.977 167.977> 715.4 115.899<-8.72363 96.7266 -8.72363 96.7266 -8.72363 135.676 135.676 241.126>
VStem: -8.72363 105.45<715.4 831.3 715.4 831.3> 65.376 102.601<1 690.7 1 690.7> 135.676 105.45<715.4 831.3 715.4 831.3>
LayerCount: 2
Fore
SplineSet
65.3759765625 690.700195312 m 1xe8
 167.9765625 690.700195312 l 1
 167.9765625 1 l 1
 65.3759765625 1 l 1
 65.3759765625 690.700195312 l 1xe8
-8.7236328125 831.299804688 m 1xf0
 96.7265625 831.299804688 l 1
 96.7265625 715.400390625 l 1
 -8.7236328125 715.400390625 l 1
 -8.7236328125 831.299804688 l 1xf0
135.67578125 831.299804688 m 1xe4
 241.125976562 831.299804688 l 1
 241.125976562 715.400390625 l 1
 135.67578125 715.400390625 l 1
 135.67578125 831.299804688 l 1xe4
EndSplineSet
EndChar

StartChar: Eth
Encoding: 208 208 145
Width: 502
GlyphClass: 2
Flags: MW
HStem: 1 95.9502<189.826 273.426 189.826 273.426> 303.1 95.9502<31.1758 86.2764 31.1758 86.2764 189.826 291.477> 594.75 95.9502<189.826 273.426 189.826 189.826>
VStem: 86.2764 103.55<96.9502 303.1 96.9502 303.1 96.9502 303.1 399.05 594.75> 363.676 103.551<215.7 216.65 216.65 468.4 468.4 475.05>
LayerCount: 2
Fore
SplineSet
467.2265625 475.049804688 m 2
 467.2265625 216.650390625 l 2
 467.2265625 148.15234375 450.420898438 93.6171875 413.940429688 56.0634765625 c 0
 378.106445312 19.1748046875 330.291992188 1 273.42578125 1 c 2
 86.2763671875 1 l 1
 86.2763671875 303.099609375 l 1
 31.17578125 303.099609375 l 1
 31.17578125 399.049804688 l 1
 86.2763671875 399.049804688 l 1
 86.2763671875 690.700195312 l 1
 273.42578125 690.700195312 l 2
 330.25 690.700195312 378.034179688 672.72265625 413.8828125 636.169921875 c 0
 450.463867188 598.87109375 467.2265625 544.1328125 467.2265625 475.049804688 c 2
273.42578125 96.9501953125 m 2
 305.891601562 96.9501953125 363.67578125 107.299804688 363.67578125 215.700195312 c 2
 363.67578125 468.400390625 l 2
 363.67578125 582.146484375 309.689453125 594.75 273.42578125 594.75 c 2
 189.826171875 594.75 l 1
 189.826171875 399.049804688 l 1
 291.4765625 399.049804688 l 1
 291.4765625 303.099609375 l 1
 189.826171875 303.099609375 l 1
 189.826171875 96.9501953125 l 1
 273.42578125 96.9501953125 l 2
EndSplineSet
EndChar

StartChar: Ntilde
Encoding: 209 209 146
Width: 499
GlyphClass: 2
Flags: MW
HStem: 1 21G<59.6758 163.227 59.6758 59.6758 359.22 456.776 359.22 359.22> 670.7 20G<59.6758 157.241 157.241 157.241 353.227 456.776 456.776 456.776> 708.75 97.8496<304.766 313.02 304.766 321.489> 742 98.7998<207.459 216.053>
VStem: 59.6758 103.551<1 441.154 1 690.7> 353.227 103.55<249.734 690.7 1 690.7>
LayerCount: 2
Fore
SplineSet
456.776367188 690.700195312 m 1xcc
 456.776367188 1 l 1
 359.219726562 1 l 1
 163.2265625 441.154296875 l 1
 163.2265625 1 l 1
 59.67578125 1 l 1
 59.67578125 690.700195312 l 1
 157.241210938 690.700195312 l 1
 353.2265625 249.734375 l 1
 353.2265625 690.700195312 l 1
 456.776367188 690.700195312 l 1xcc
215.4765625 840.799804688 m 0xdc
 234.452148438 840.799804688 247.309570312 837 272.206054688 820.994140625 c 0
 293.927734375 807.030273438 300.954101562 806.599609375 308.577148438 806.599609375 c 0
 317.461914062 806.599609375 322.647460938 806.599609375 347.881835938 835.818359375 c 2
 377.926757812 870.607421875 l 1
 377.926757812 751.913085938 l 1
 357.279296875 727.39453125 340.1015625 708.75 302.876953125 708.75 c 0xec
 283.0078125 708.75 271.513671875 712.53125 242.16015625 729.041992188 c 0
 223.47265625 739.71875 219.48046875 742 212.625976562 742 c 0
 202.291992188 742 193.078125 740.615234375 169.81640625 712.182617188 c 2
 139.4765625 675.099609375 l 1
 139.4765625 798.208984375 l 1
 163.53515625 823.60546875 181.087890625 840.799804688 215.4765625 840.799804688 c 0xdc
EndSplineSet
EndChar

StartChar: Ograve
Encoding: 210 210 147
Width: 476
GlyphClass: 2
Flags: MW
HStem: -6.59961 96.9004<228.292 267.009 228.292 275.261> 602.351 96.9004<225.675 265.908>
VStem: 52.0762 103.55<209.051 476.001> 338.026 103.55<208.101 209.05 209.05 476.001 476.001 482.65>
LayerCount: 2
Fore
SplineSet
52.076171875 209.05078125 m 2
 52.076171875 482.651367188 l 2
 52.076171875 552.328125 68.8017578125 607.38671875 105.418945312 644.720703125 c 0
 141.311523438 681.317382812 189.423828125 699.250976562 246.826171875 699.250976562 c 0
 304.228515625 699.250976562 352.340820312 681.317382812 388.233398438 644.720703125 c 0
 424.849609375 607.385742188 441.576171875 552.327148438 441.576171875 482.650390625 c 2
 441.576171875 209.049804688 l 2
 441.576171875 140.521484375 424.583007812 85.9453125 387.756835938 48.4033203125 c 0
 351.626953125 11.572265625 303.6953125 -6.599609375 246.826171875 -6.599609375 c 0
 189.3828125 -6.599609375 141.239257812 11.5302734375 105.361328125 48.4638671875 c 0
 68.880859375 86.017578125 52.076171875 140.553710938 52.076171875 209.05078125 c 2
247.776367188 90.30078125 m 0
 286.2421875 90.30078125 338.026367188 105.444335938 338.026367188 208.100585938 c 2
 338.026367188 476.000976562 l 2
 338.026367188 589.747070312 284.040039062 602.350585938 247.776367188 602.350585938 c 0
 203.57421875 602.350585938 155.625976562 586.370117188 155.625976562 476.000976562 c 2
 155.625976562 208.100585938 l 2
 155.625976562 101.9140625 208.80859375 90.30078125 247.776367188 90.30078125 c 0
220.538085938 869.30078125 m 1
 331.11328125 712.55078125 l 1
 236.9921875 712.55078125 l 1
 104.543945312 869.30078125 l 1
 220.538085938 869.30078125 l 1
EndSplineSet
EndChar

StartChar: Oacute
Encoding: 211 211 148
Width: 476
GlyphClass: 2
Flags: MW
HStem: -6.59961 96.9004<228.292 267.009 228.292 275.261> 602.351 96.9004<225.675 265.908>
VStem: 52.0762 103.55<209.051 476.001> 338.026 103.55<208.101 209.05 209.05 476.001 476.001 482.65>
LayerCount: 2
Fore
SplineSet
52.076171875 209.05078125 m 2
 52.076171875 482.651367188 l 2
 52.076171875 552.328125 68.8017578125 607.38671875 105.418945312 644.720703125 c 0
 141.311523438 681.317382812 189.423828125 699.250976562 246.826171875 699.250976562 c 0
 304.228515625 699.250976562 352.340820312 681.317382812 388.233398438 644.720703125 c 0
 424.849609375 607.385742188 441.576171875 552.327148438 441.576171875 482.650390625 c 2
 441.576171875 209.049804688 l 2
 441.576171875 140.521484375 424.583007812 85.9453125 387.756835938 48.4033203125 c 0
 351.626953125 11.572265625 303.6953125 -6.599609375 246.826171875 -6.599609375 c 0
 189.3828125 -6.599609375 141.239257812 11.5302734375 105.361328125 48.4638671875 c 0
 68.880859375 86.017578125 52.076171875 140.553710938 52.076171875 209.05078125 c 2
247.776367188 90.30078125 m 0
 286.2421875 90.30078125 338.026367188 105.444335938 338.026367188 208.100585938 c 2
 338.026367188 476.000976562 l 2
 338.026367188 589.747070312 284.040039062 602.350585938 247.776367188 602.350585938 c 0
 203.57421875 602.350585938 155.625976562 586.370117188 155.625976562 476.000976562 c 2
 155.625976562 208.100585938 l 2
 155.625976562 101.9140625 208.80859375 90.30078125 247.776367188 90.30078125 c 0
263.614257812 869.30078125 m 1
 379.608398438 869.30078125 l 1
 247.16015625 712.55078125 l 1
 153.0390625 712.55078125 l 1
 263.614257812 869.30078125 l 1
EndSplineSet
EndChar

StartChar: Ocircumflex
Encoding: 212 212 149
Width: 476
GlyphClass: 2
Flags: MW
HStem: -6.59961 96.9004<228.292 267.009 228.292 275.261> 602.351 96.9004<225.675 265.908>
VStem: 52.0762 103.55<209.051 476.001> 338.026 103.55<208.101 209.05 209.05 476.001 476.001 482.65>
LayerCount: 2
Fore
SplineSet
52.076171875 209.05078125 m 2
 52.076171875 482.651367188 l 2
 52.076171875 552.328125 68.8017578125 607.38671875 105.418945312 644.720703125 c 0
 141.311523438 681.317382812 189.423828125 699.250976562 246.826171875 699.250976562 c 0
 304.228515625 699.250976562 352.340820312 681.317382812 388.233398438 644.720703125 c 0
 424.849609375 607.385742188 441.576171875 552.327148438 441.576171875 482.650390625 c 2
 441.576171875 209.049804688 l 2
 441.576171875 140.521484375 424.583007812 85.9453125 387.756835938 48.4033203125 c 0
 351.626953125 11.572265625 303.6953125 -6.599609375 246.826171875 -6.599609375 c 0
 189.3828125 -6.599609375 141.239257812 11.5302734375 105.361328125 48.4638671875 c 0
 68.880859375 86.017578125 52.076171875 140.553710938 52.076171875 209.05078125 c 2
247.776367188 90.30078125 m 0
 286.2421875 90.30078125 338.026367188 105.444335938 338.026367188 208.100585938 c 2
 338.026367188 476.000976562 l 2
 338.026367188 589.747070312 284.040039062 602.350585938 247.776367188 602.350585938 c 0
 203.57421875 602.350585938 155.625976562 586.370117188 155.625976562 476.000976562 c 2
 155.625976562 208.100585938 l 2
 155.625976562 101.9140625 208.80859375 90.30078125 247.776367188 90.30078125 c 0
206.4140625 875.000976562 m 1
 285.182617188 875.000976562 l 1
 404.098632812 704.951171875 l 1
 298.724609375 704.951171875 l 1
 247.666015625 777.891601562 l 1
 195.796875 704.951171875 l 1
 91.0654296875 704.951171875 l 1
 206.4140625 875.000976562 l 1
EndSplineSet
EndChar

StartChar: Otilde
Encoding: 213 213 150
Width: 476
GlyphClass: 2
Flags: MW
HStem: -6.59961 96.9004<228.292 267.009 228.292 275.261> 602.351 96.9004<225.675 265.908> 708.751 97.8496<292.416 300.67 292.416 309.137> 742.001 98.7998<195.109 203.704>
VStem: 52.0762 103.55<209.051 476.001> 338.026 103.55<208.101 209.05 209.05 476.001 476.001 482.65>
LayerCount: 2
Fore
SplineSet
52.076171875 209.05078125 m 2xcc
 52.076171875 482.651367188 l 2
 52.076171875 552.328125 68.8017578125 607.38671875 105.418945312 644.720703125 c 0
 141.311523438 681.317382812 189.423828125 699.250976562 246.826171875 699.250976562 c 0
 304.228515625 699.250976562 352.340820312 681.317382812 388.233398438 644.720703125 c 0
 424.849609375 607.385742188 441.576171875 552.327148438 441.576171875 482.650390625 c 2
 441.576171875 209.049804688 l 2
 441.576171875 140.521484375 424.583007812 85.9453125 387.756835938 48.4033203125 c 0
 351.626953125 11.572265625 303.6953125 -6.599609375 246.826171875 -6.599609375 c 0
 189.3828125 -6.599609375 141.239257812 11.5302734375 105.361328125 48.4638671875 c 0
 68.880859375 86.017578125 52.076171875 140.553710938 52.076171875 209.05078125 c 2xcc
247.776367188 90.30078125 m 0
 286.2421875 90.30078125 338.026367188 105.444335938 338.026367188 208.100585938 c 2
 338.026367188 476.000976562 l 2
 338.026367188 589.747070312 284.040039062 602.350585938 247.776367188 602.350585938 c 0
 203.57421875 602.350585938 155.625976562 586.370117188 155.625976562 476.000976562 c 2
 155.625976562 208.100585938 l 2
 155.625976562 101.9140625 208.80859375 90.30078125 247.776367188 90.30078125 c 0
203.127929688 840.80078125 m 0xdc
 222.103515625 840.80078125 234.959960938 837.000976562 259.857421875 820.995117188 c 0
 281.579101562 807.03125 288.604492188 806.600585938 296.227539062 806.600585938 c 0
 305.11328125 806.600585938 310.298828125 806.600585938 335.532226562 835.819335938 c 2
 365.578125 870.608398438 l 1
 365.578125 751.9140625 l 1
 344.91796875 727.3828125 327.745117188 708.750976562 290.528320312 708.750976562 c 0xec
 270.658203125 708.750976562 259.1640625 712.532226562 229.811523438 729.04296875 c 0
 211.129882812 739.716796875 207.130859375 742.000976562 200.276367188 742.000976562 c 0
 189.94140625 742.000976562 180.728515625 740.616210938 157.466796875 712.18359375 c 2
 127.125976562 675.100585938 l 1
 127.125976562 798.209960938 l 1
 151.186523438 823.607421875 168.740234375 840.80078125 203.127929688 840.80078125 c 0xdc
EndSplineSet
EndChar

StartChar: Odieresis
Encoding: 214 214 151
Width: 476
GlyphClass: 2
Flags: MW
HStem: -6.59961 96.9004<228.292 267.009 228.292 275.261> 602.351 96.9004<225.675 265.908> 715.401 115.899<121.426 226.876 121.426 226.876 121.426 265.826 265.826 371.276>
VStem: 52.0762 103.55<209.051 476.001> 121.426 105.45<715.401 831.301 715.401 831.301> 265.826 105.45<715.401 831.301 715.401 831.301> 338.026 103.55<208.101 209.05 209.05 476.001 476.001 482.65>
LayerCount: 2
Fore
SplineSet
52.076171875 209.05078125 m 2xf2
 52.076171875 482.651367188 l 2
 52.076171875 552.328125 68.8017578125 607.38671875 105.418945312 644.720703125 c 0
 141.311523438 681.317382812 189.423828125 699.250976562 246.826171875 699.250976562 c 0
 304.228515625 699.250976562 352.340820312 681.317382812 388.233398438 644.720703125 c 0
 424.849609375 607.385742188 441.576171875 552.327148438 441.576171875 482.650390625 c 2
 441.576171875 209.049804688 l 2
 441.576171875 140.521484375 424.583007812 85.9453125 387.756835938 48.4033203125 c 0
 351.626953125 11.572265625 303.6953125 -6.599609375 246.826171875 -6.599609375 c 0
 189.3828125 -6.599609375 141.239257812 11.5302734375 105.361328125 48.4638671875 c 0
 68.880859375 86.017578125 52.076171875 140.553710938 52.076171875 209.05078125 c 2xf2
247.776367188 90.30078125 m 0
 286.2421875 90.30078125 338.026367188 105.444335938 338.026367188 208.100585938 c 2
 338.026367188 476.000976562 l 2
 338.026367188 589.747070312 284.040039062 602.350585938 247.776367188 602.350585938 c 0
 203.57421875 602.350585938 155.625976562 586.370117188 155.625976562 476.000976562 c 2
 155.625976562 208.100585938 l 2
 155.625976562 101.9140625 208.80859375 90.30078125 247.776367188 90.30078125 c 0
121.42578125 831.30078125 m 1xe8
 226.875976562 831.30078125 l 1
 226.875976562 715.401367188 l 1
 121.42578125 715.401367188 l 1
 121.42578125 831.30078125 l 1xe8
265.826171875 831.30078125 m 1xe4
 371.276367188 831.30078125 l 1
 371.276367188 715.401367188 l 1
 265.826171875 715.401367188 l 1
 265.826171875 831.30078125 l 1xe4
EndSplineSet
EndChar

StartChar: multiply
Encoding: 215 215 152
Width: 421
GlyphClass: 2
Flags: MW
HStem: 116.609 327.324<121.506 121.564>
VStem: 55.3076 327.738<181.36 181.441 181.441 379.24>
LayerCount: 2
Fore
SplineSet
220.16796875 215.212890625 m 1
 121.564453125 116.609375 l 1
 55.3076171875 181.360351562 l 1
 154.248046875 280.299804688 l 1
 55.3076171875 379.240234375 l 1
 121.505859375 443.93359375 l 1
 220.16796875 346.219726562 l 1
 318.076171875 444.127929688 l 1
 383.045898438 379.158203125 l 1
 285.138671875 280.299804688 l 1
 383.045898438 181.44140625 l 1
 318.017578125 116.413085938 l 1
 220.16796875 215.212890625 l 1
EndSplineSet
EndChar

StartChar: Oslash
Encoding: 216 216 153
Width: 476
GlyphClass: 2
Flags: MW
HStem: -6.59863 96.9004<233.979 267.008 233.979 275.26> 602.352 96.8984<225.674 261.364>
VStem: 52.0752 103.55<235.167 476.002 235.167 482.65 235.167 517.489> 338.025 103.55<208.102 209.051 209.051 450.145 450.145 450.145>
LayerCount: 2
Fore
SplineSet
364.911132812 709.700195312 m 1
 452.595703125 709.700195312 l 1
 410.55078125 614.24609375 l 1
 431.659179688 578.907226562 441.575195312 534.733398438 441.575195312 482.651367188 c 2
 441.575195312 209.05078125 l 2
 441.575195312 140.522460938 424.58203125 85.9462890625 387.755859375 48.404296875 c 0
 351.625976562 11.572265625 303.694335938 -6.5986328125 246.825195312 -6.5986328125 c 0
 209.774414062 -6.5986328125 176.290039062 1.169921875 147.1484375 17.0068359375 c 1
 131.590820312 -17.9990234375 l 1
 43.939453125 -17.9990234375 l 1
 84.931640625 75.37109375 l 1
 62.6171875 111.326171875 52.0751953125 156.236328125 52.0751953125 209.049804688 c 2
 52.0751953125 482.650390625 l 2
 52.0751953125 552.327148438 68.80078125 607.385742188 105.41796875 644.720703125 c 0
 141.310546875 681.31640625 189.422851562 699.25 246.825195312 699.25 c 0
 285.768554688 699.25 320.286132812 691.362304688 349.497070312 675.01953125 c 1
 364.911132812 709.700195312 l 1
247.775390625 602.3515625 m 0
 203.573242188 602.3515625 155.625 586.37109375 155.625 476.001953125 c 2
 155.625 235.166992188 l 1
 307.65625 580.549804688 l 1
 293.908203125 594.90234375 274.953125 602.3515625 247.775390625 602.3515625 c 0
247.775390625 90.3017578125 m 0
 286.241210938 90.3017578125 338.025390625 105.4453125 338.025390625 208.1015625 c 2
 338.025390625 450.14453125 l 1
 187.283203125 109.032226562 l 1
 200.88671875 96.96484375 220.181640625 90.3017578125 247.775390625 90.3017578125 c 0
EndSplineSet
EndChar

StartChar: Ugrave
Encoding: 217 217 154
Width: 478
GlyphClass: 2
Flags: MW
HStem: -6.59961 96.8994<207.079 263.765 207.079 274.969> 670.7 20G<59.6748 163.226 163.226 163.226 332.325 435.875 435.875 435.875>
VStem: 59.6748 103.551<185.3 189.1 189.1 690.7> 332.325 103.55<189.1 690.7>
LayerCount: 2
Fore
SplineSet
247.776367188 -6.599609375 m 0
 137.922851562 -6.599609375 59.6748046875 71.6552734375 59.6748046875 185.299804688 c 2
 59.6748046875 690.700195312 l 1
 163.225585938 690.700195312 l 1
 163.225585938 189.099609375 l 2
 163.225585938 164.809570312 166.381835938 90.2998046875 247.775390625 90.2998046875 c 0
 279.754882812 90.2998046875 332.325195312 103.341796875 332.325195312 189.099609375 c 2
 332.325195312 690.700195312 l 1
 435.875 690.700195312 l 1
 435.875 185.299804688 l 2
 435.875 129.223632812 418.637695312 82.0126953125 383.424804688 46.4462890625 c 0
 348.301757812 10.9716796875 302.162109375 -6.599609375 247.776367188 -6.599609375 c 0
105.4921875 869.299804688 m 1
 221.486328125 869.299804688 l 1
 332.061523438 712.549804688 l 1
 237.939453125 712.549804688 l 1
 105.4921875 869.299804688 l 1
EndSplineSet
EndChar

StartChar: Uacute
Encoding: 218 218 155
Width: 478
GlyphClass: 2
Flags: MW
HStem: -6.59961 96.8994<207.079 263.765 207.079 274.969> 670.7 20G<59.6748 163.226 163.226 163.226 332.325 435.875 435.875 435.875>
VStem: 59.6748 103.551<185.3 189.1 189.1 690.7> 332.325 103.55<189.1 690.7>
LayerCount: 2
Fore
SplineSet
247.776367188 -6.599609375 m 0
 137.922851562 -6.599609375 59.6748046875 71.6552734375 59.6748046875 185.299804688 c 2
 59.6748046875 690.700195312 l 1
 163.225585938 690.700195312 l 1
 163.225585938 189.099609375 l 2
 163.225585938 164.809570312 166.381835938 90.2998046875 247.775390625 90.2998046875 c 0
 279.754882812 90.2998046875 332.325195312 103.341796875 332.325195312 189.099609375 c 2
 332.325195312 690.700195312 l 1
 435.875 690.700195312 l 1
 435.875 185.299804688 l 2
 435.875 129.223632812 418.637695312 82.0126953125 383.424804688 46.4462890625 c 0
 348.301757812 10.9716796875 302.162109375 -6.599609375 247.776367188 -6.599609375 c 0
264.5625 869.299804688 m 1
 380.556640625 869.299804688 l 1
 248.108398438 712.549804688 l 1
 153.987304688 712.549804688 l 1
 264.5625 869.299804688 l 1
EndSplineSet
EndChar

StartChar: Ucircumflex
Encoding: 219 219 156
Width: 478
GlyphClass: 2
Flags: MW
HStem: -6.59961 96.8994<207.079 263.765 207.079 274.969> 670.7 20G<59.6748 163.226 163.226 163.226 332.325 435.875 435.875 435.875>
VStem: 59.6748 103.551<185.3 189.1 189.1 690.7> 332.325 103.55<189.1 690.7>
LayerCount: 2
Fore
SplineSet
247.776367188 -6.599609375 m 0
 137.922851562 -6.599609375 59.6748046875 71.6552734375 59.6748046875 185.299804688 c 2
 59.6748046875 690.700195312 l 1
 163.225585938 690.700195312 l 1
 163.225585938 189.099609375 l 2
 163.225585938 164.809570312 166.381835938 90.2998046875 247.775390625 90.2998046875 c 0
 279.754882812 90.2998046875 332.325195312 103.341796875 332.325195312 189.099609375 c 2
 332.325195312 690.700195312 l 1
 435.875 690.700195312 l 1
 435.875 185.299804688 l 2
 435.875 129.223632812 418.637695312 82.0126953125 383.424804688 46.4462890625 c 0
 348.301757812 10.9716796875 302.162109375 -6.599609375 247.776367188 -6.599609375 c 0
207.362304688 875 m 1
 286.130859375 875 l 1
 405.046875 704.950195312 l 1
 299.672851562 704.950195312 l 1
 248.614257812 777.890625 l 1
 196.745117188 704.950195312 l 1
 92.013671875 704.950195312 l 1
 207.362304688 875 l 1
EndSplineSet
EndChar

StartChar: Udieresis
Encoding: 220 220 157
Width: 478
GlyphClass: 2
Flags: MW
HStem: -6.59961 96.8994<207.079 263.765 207.079 274.969> 670.7 20G<59.6748 163.226 163.226 163.226 332.325 435.875 435.875 435.875> 715.4 115.899<122.374 227.824 122.374 227.824 122.374 266.774 266.774 372.225>
VStem: 59.6748 103.551<185.3 189.1 189.1 690.7> 122.374 105.45<715.4 831.3 715.4 831.3> 266.774 105.45<715.4 831.3 715.4 831.3> 332.325 103.55<189.1 690.7>
LayerCount: 2
Fore
SplineSet
247.776367188 -6.599609375 m 0xf2
 137.922851562 -6.599609375 59.6748046875 71.6552734375 59.6748046875 185.299804688 c 2
 59.6748046875 690.700195312 l 1
 163.225585938 690.700195312 l 1
 163.225585938 189.099609375 l 2
 163.225585938 164.809570312 166.381835938 90.2998046875 247.775390625 90.2998046875 c 0
 279.754882812 90.2998046875 332.325195312 103.341796875 332.325195312 189.099609375 c 2
 332.325195312 690.700195312 l 1
 435.875 690.700195312 l 1
 435.875 185.299804688 l 2
 435.875 129.223632812 418.637695312 82.0126953125 383.424804688 46.4462890625 c 0
 348.301757812 10.9716796875 302.162109375 -6.599609375 247.776367188 -6.599609375 c 0xf2
122.374023438 831.299804688 m 1xe8
 227.82421875 831.299804688 l 1
 227.82421875 715.400390625 l 1
 122.374023438 715.400390625 l 1
 122.374023438 831.299804688 l 1xe8
266.774414062 831.299804688 m 1xe4
 372.224609375 831.299804688 l 1
 372.224609375 715.400390625 l 1
 266.774414062 715.400390625 l 1
 266.774414062 831.299804688 l 1xe4
EndSplineSet
EndChar

StartChar: Yacute
Encoding: 221 221 158
Width: 394
GlyphClass: 2
Flags: MW
HStem: 1 21G<154.676 257.276 154.676 154.676> 670.7 20G<3.6543 116.593 116.593 116.593 295.359 408.298 408.298 408.298>
VStem: 154.676 102.601<1 287.643 1 287.643>
LayerCount: 2
Fore
SplineSet
408.297851562 690.700195312 m 1
 257.276367188 287.642578125 l 1
 257.276367188 1 l 1
 154.67578125 1 l 1
 154.67578125 287.642578125 l 1
 3.654296875 690.700195312 l 1
 116.592773438 690.700195312 l 1
 205.9765625 426.727539062 l 1
 295.359375 690.700195312 l 1
 408.297851562 690.700195312 l 1
226.564453125 869.299804688 m 1
 342.55859375 869.299804688 l 1
 210.110351562 712.549804688 l 1
 115.98828125 712.549804688 l 1
 226.564453125 869.299804688 l 1
EndSplineSet
EndChar

StartChar: Thorn
Encoding: 222 222 159
Width: 440
GlyphClass: 2
Flags: MW
HStem: 1 21G<59.6758 162.276 59.6758 59.6758> 158.7 95.001<162.276 239.227 239.227 243.026 162.276 239.227> 475.051 95.9492<162.276 239.227 162.276 243.026> 670.7 20G<59.6758 162.276 162.276 162.276>
VStem: 59.6758 102.601<1 158.7 1 253.701 253.701 475.051 571 690.7> 325.676 103.551<341.709 384.512>
LayerCount: 2
Fore
SplineSet
243.026367188 571 m 2
 326.86328125 571 429.2265625 540.0703125 429.2265625 362.950195312 c 0
 429.2265625 308.000976562 421.377929688 158.700195312 243.026367188 158.700195312 c 2
 162.276367188 158.700195312 l 1
 162.276367188 1 l 1
 59.67578125 1 l 1
 59.67578125 690.700195312 l 1
 162.276367188 690.700195312 l 1
 162.276367188 571 l 1
 243.026367188 571 l 2
325.67578125 362.951171875 m 0
 325.67578125 406.073242188 317.227539062 434.678710938 304.342773438 450.481445312 c 0
 291.681640625 466.008789062 271.495117188 475.05078125 239.2265625 475.05078125 c 2
 162.276367188 475.05078125 l 1
 162.276367188 253.701171875 l 1
 239.2265625 253.701171875 l 2
 271.626953125 253.701171875 291.92578125 262.565429688 304.510742188 277.524414062 c 0
 317.220703125 292.631835938 325.67578125 320.467773438 325.67578125 362.951171875 c 0
EndSplineSet
EndChar

StartChar: germandbls
Encoding: 223 223 160
Width: 414
GlyphClass: 2
Flags: MW
HStem: -2.7998 93.0996<202.176 237.324 237.324 244.926 202.176 237.324> 358.2 92.1494<199.325 236.375 199.325 236.375> 606.15 93.0996<204.094 236.467>
VStem: 58.7256 99.75<1 514 514 535.85 1 542.629> 281.975 99.752<199.269 280.4 199.269 283.077>
LayerCount: 2
Fore
SplineSet
333.814453125 410.875976562 m 1
 373.928710938 379.045898438 381.7265625 333.702148438 381.7265625 227.098632812 c 0
 381.7265625 171.439453125 379.2421875 128.817382812 373.8671875 98.248046875 c 0
 357.236328125 3.6552734375 285.669921875 -2.7998046875 244.92578125 -2.7998046875 c 2
 202.17578125 -2.7998046875 l 1
 202.17578125 90.2998046875 l 1
 237.32421875 90.2998046875 l 2
 254.530273438 90.2998046875 263.00390625 94.568359375 266.88671875 98.8818359375 c 0
 277.006835938 110.126953125 281.974609375 129.568359375 281.974609375 227.099609375 c 0
 281.974609375 339.053710938 274.84765625 358.200195312 236.375 358.200195312 c 2
 199.325195312 358.200195312 l 1
 199.325195312 450.349609375 l 1
 236.375 450.349609375 l 2
 255.224609375 450.349609375 262.7421875 455.823242188 267.145507812 464.630859375 c 0
 272.999023438 476.337890625 277.225585938 498.787109375 277.225585938 531.099609375 c 0
 277.225585938 591.916992188 253.658203125 606.150390625 219.275390625 606.150390625 c 0
 188.912109375 606.150390625 158.475585938 596.6484375 158.475585938 535.849609375 c 2
 158.475585938 1 l 1
 58.7255859375 1 l 1
 58.7255859375 514 l 2
 58.7255859375 571.2578125 70.224609375 617.15625 96.1181640625 649.978515625 c 0
 122.934570312 683.970703125 165.983398438 699.25 220.225585938 699.25 c 0
 266.2265625 699.25 305.177734375 684.796875 334.114257812 655.137695312 c 0
 363.19921875 625.327148438 376.9765625 584.60546875 376.9765625 535.849609375 c 0
 376.9765625 468.287109375 364.497070312 436.336914062 333.814453125 410.875976562 c 1
EndSplineSet
EndChar

StartChar: agrave
Encoding: 224 224 161
Width: 402
GlyphClass: 2
Flags: MW
HStem: -6.59961 90.249<185.771 199.206> 1 21G<265.826 361.776 265.826 265.826> 232.799 82.6514<204.075 210.727 210.727 262.976 204.075 262.977> 442.75 91.2002<191.906 219.877>
VStem: 40.6748 98.8018<132.405 180.571> 53.0254 95<362.95 387.65 362.95 388.6 362.95 434.563> 262.977 98.7998<158.699 232.799 232.799 232.799>
LayerCount: 2
Fore
SplineSet
53.025390625 388.599609375 m 2xb6
 53.025390625 480.526367188 115.795898438 533.950195312 204.076171875 533.950195312 c 0
 252.732421875 533.950195312 292.790039062 520.39453125 320.8984375 491.17578125 c 0
 348.762695312 462.211914062 361.776367188 422.3203125 361.776367188 374.349609375 c 2
 361.776367188 1 l 1
 265.826171875 1 l 1x76
 265.826171875 19.4736328125 l 1
 243.225585938 2.208984375 215.236328125 -6.599609375 183.17578125 -6.599609375 c 0
 138.977539062 -6.599609375 102.258789062 7.8720703125 76.9736328125 37.990234375 c 0
 52.03515625 67.6962890625 40.6748046875 108.009765625 40.6748046875 156.799804688 c 0xba
 40.6748046875 204.342773438 54.34765625 244.05078125 83.2109375 272.9140625 c 0
 112.333984375 302.037109375 153.668945312 315.450195312 204.075195312 315.450195312 c 2
 262.975585938 315.450195312 l 1
 262.975585938 377.200195312 l 2
 262.975585938 432.194335938 235.6796875 442.75 204.075195312 442.75 c 0
 179.736328125 442.75 148.025390625 435.084960938 148.025390625 387.650390625 c 2
 148.025390625 362.950195312 l 1
 53.025390625 362.950195312 l 1
 53.025390625 388.599609375 l 2xb6
198.375976562 83.6494140625 m 0xba
 228.985351562 83.6494140625 262.9765625 97.44140625 262.9765625 158.69921875 c 2
 262.9765625 232.798828125 l 1
 210.7265625 232.798828125 l 2
 168.805664062 232.798828125 139.4765625 216.921875 139.4765625 157.749023438 c 0
 139.4765625 89.9912109375 173.165039062 83.6494140625 198.375976562 83.6494140625 c 0xba
68.4443359375 704.94921875 m 1
 184.4375 704.94921875 l 1
 295.013671875 548.19921875 l 1
 200.891601562 548.19921875 l 1
 68.4443359375 704.94921875 l 1
EndSplineSet
EndChar

StartChar: aacute
Encoding: 225 225 162
Width: 402
GlyphClass: 2
Flags: MW
HStem: -6.59961 90.249<185.771 199.206> 1 21G<265.826 361.776 265.826 265.826> 232.799 82.6514<204.075 210.727 210.727 262.976 204.075 262.977> 442.75 91.2002<191.906 219.877>
VStem: 40.6748 98.8018<132.405 180.571> 53.0254 95<362.95 387.65 362.95 388.6 362.95 434.563> 262.977 98.7998<158.699 232.799 232.799 232.799>
LayerCount: 2
Fore
SplineSet
53.025390625 388.599609375 m 2xb6
 53.025390625 480.526367188 115.795898438 533.950195312 204.076171875 533.950195312 c 0
 252.732421875 533.950195312 292.790039062 520.39453125 320.8984375 491.17578125 c 0
 348.762695312 462.211914062 361.776367188 422.3203125 361.776367188 374.349609375 c 2
 361.776367188 1 l 1
 265.826171875 1 l 1x76
 265.826171875 19.4736328125 l 1
 243.225585938 2.208984375 215.236328125 -6.599609375 183.17578125 -6.599609375 c 0
 138.977539062 -6.599609375 102.258789062 7.8720703125 76.9736328125 37.990234375 c 0
 52.03515625 67.6962890625 40.6748046875 108.009765625 40.6748046875 156.799804688 c 0xba
 40.6748046875 204.342773438 54.34765625 244.05078125 83.2109375 272.9140625 c 0
 112.333984375 302.037109375 153.668945312 315.450195312 204.075195312 315.450195312 c 2
 262.975585938 315.450195312 l 1
 262.975585938 377.200195312 l 2
 262.975585938 432.194335938 235.6796875 442.75 204.075195312 442.75 c 0
 179.736328125 442.75 148.025390625 435.084960938 148.025390625 387.650390625 c 2
 148.025390625 362.950195312 l 1
 53.025390625 362.950195312 l 1
 53.025390625 388.599609375 l 2xb6
198.375976562 83.6494140625 m 0xba
 228.985351562 83.6494140625 262.9765625 97.44140625 262.9765625 158.69921875 c 2
 262.9765625 232.798828125 l 1
 210.7265625 232.798828125 l 2
 168.805664062 232.798828125 139.4765625 216.921875 139.4765625 157.749023438 c 0
 139.4765625 89.9912109375 173.165039062 83.6494140625 198.375976562 83.6494140625 c 0xba
227.514648438 704.94921875 m 1
 343.5078125 704.94921875 l 1
 211.060546875 548.19921875 l 1
 116.938476562 548.19921875 l 1
 227.514648438 704.94921875 l 1
EndSplineSet
EndChar

StartChar: acircumflex
Encoding: 226 226 163
Width: 402
GlyphClass: 2
Flags: MW
HStem: -6.59961 90.249<185.771 199.206> 1 21G<265.826 361.776 265.826 265.826> 232.799 82.6514<204.075 210.727 210.727 262.976 204.075 262.977> 442.75 91.2002<191.906 219.877>
VStem: 40.6748 98.8018<132.405 180.571> 53.0254 95<362.95 387.65 362.95 388.6 362.95 434.563> 262.977 98.7998<158.699 232.799 232.799 232.799>
LayerCount: 2
Fore
SplineSet
53.025390625 388.599609375 m 2xb6
 53.025390625 480.526367188 115.795898438 533.950195312 204.076171875 533.950195312 c 0
 252.732421875 533.950195312 292.790039062 520.39453125 320.8984375 491.17578125 c 0
 348.762695312 462.211914062 361.776367188 422.3203125 361.776367188 374.349609375 c 2
 361.776367188 1 l 1
 265.826171875 1 l 1x76
 265.826171875 19.4736328125 l 1
 243.225585938 2.208984375 215.236328125 -6.599609375 183.17578125 -6.599609375 c 0
 138.977539062 -6.599609375 102.258789062 7.8720703125 76.9736328125 37.990234375 c 0
 52.03515625 67.6962890625 40.6748046875 108.009765625 40.6748046875 156.799804688 c 0xba
 40.6748046875 204.342773438 54.34765625 244.05078125 83.2109375 272.9140625 c 0
 112.333984375 302.037109375 153.668945312 315.450195312 204.075195312 315.450195312 c 2
 262.975585938 315.450195312 l 1
 262.975585938 377.200195312 l 2
 262.975585938 432.194335938 235.6796875 442.75 204.075195312 442.75 c 0
 179.736328125 442.75 148.025390625 435.084960938 148.025390625 387.650390625 c 2
 148.025390625 362.950195312 l 1
 53.025390625 362.950195312 l 1
 53.025390625 388.599609375 l 2xb6
198.375976562 83.6494140625 m 0xba
 228.985351562 83.6494140625 262.9765625 97.44140625 262.9765625 158.69921875 c 2
 262.9765625 232.798828125 l 1
 210.7265625 232.798828125 l 2
 168.805664062 232.798828125 139.4765625 216.921875 139.4765625 157.749023438 c 0
 139.4765625 89.9912109375 173.165039062 83.6494140625 198.375976562 83.6494140625 c 0xba
170.314453125 710.649414062 m 1
 249.083007812 710.649414062 l 1
 367.999023438 540.598632812 l 1
 262.625 540.598632812 l 1
 211.56640625 613.540039062 l 1
 159.697265625 540.598632812 l 1
 54.9658203125 540.598632812 l 1
 170.314453125 710.649414062 l 1
EndSplineSet
EndChar

StartChar: atilde
Encoding: 227 227 164
Width: 402
GlyphClass: 2
Flags: MW
HStem: -6.59961 90.249<185.771 199.206> 1 21G<265.826 361.776 265.826 265.826> 232.799 82.6514<204.075 210.727 210.727 262.976 204.075 262.977> 442.75 91.2002<191.906 219.877> 544.399 97.8496<256.317 264.571 256.317 273.036> 577.649 98.7998<159.009 167.604>
VStem: 40.6748 98.8018<132.405 180.571> 53.0254 95<362.95 387.65 362.95 388.6 362.95 434.563> 262.977 98.7998<158.699 232.799 232.799 232.799>
LayerCount: 2
Fore
SplineSet
53.025390625 388.599609375 m 2xb180
 53.025390625 480.526367188 115.795898438 533.950195312 204.076171875 533.950195312 c 0
 252.732421875 533.950195312 292.790039062 520.39453125 320.8984375 491.17578125 c 0
 348.762695312 462.211914062 361.776367188 422.3203125 361.776367188 374.349609375 c 2
 361.776367188 1 l 1
 265.826171875 1 l 1x7180
 265.826171875 19.4736328125 l 1
 243.225585938 2.208984375 215.236328125 -6.599609375 183.17578125 -6.599609375 c 0
 138.977539062 -6.599609375 102.258789062 7.8720703125 76.9736328125 37.990234375 c 0
 52.03515625 67.6962890625 40.6748046875 108.009765625 40.6748046875 156.799804688 c 0xb280
 40.6748046875 204.342773438 54.34765625 244.05078125 83.2109375 272.9140625 c 0
 112.333984375 302.037109375 153.668945312 315.450195312 204.075195312 315.450195312 c 2
 262.975585938 315.450195312 l 1
 262.975585938 377.200195312 l 2
 262.975585938 432.194335938 235.6796875 442.75 204.075195312 442.75 c 0
 179.736328125 442.75 148.025390625 435.084960938 148.025390625 387.650390625 c 2
 148.025390625 362.950195312 l 1
 53.025390625 362.950195312 l 1
 53.025390625 388.599609375 l 2xb180
198.375976562 83.6494140625 m 0xb280
 228.985351562 83.6494140625 262.9765625 97.44140625 262.9765625 158.69921875 c 2
 262.9765625 232.798828125 l 1
 210.7265625 232.798828125 l 2
 168.805664062 232.798828125 139.4765625 216.921875 139.4765625 157.749023438 c 0
 139.4765625 89.9912109375 173.165039062 83.6494140625 198.375976562 83.6494140625 c 0xb280
167.029296875 676.44921875 m 0x3480
 186.00390625 676.44921875 198.861328125 672.649414062 223.7578125 656.643554688 c 0
 245.479492188 642.6796875 252.505859375 642.249023438 260.12890625 642.249023438 c 0
 269.013671875 642.249023438 274.19921875 642.249023438 299.43359375 671.466796875 c 2
 329.478515625 706.255859375 l 1
 329.478515625 587.5625 l 1
 308.818359375 563.030273438 291.64453125 544.399414062 254.427734375 544.399414062 c 0x3880
 234.559570312 544.399414062 223.063476562 548.180664062 193.7109375 564.690429688 c 0
 175.029296875 575.364257812 171.03125 577.649414062 164.17578125 577.649414062 c 0
 153.841796875 577.649414062 144.62890625 576.263671875 121.366210938 547.83203125 c 2
 91.0263671875 510.748046875 l 1
 91.0263671875 633.858398438 l 1
 115.087890625 659.256835938 132.642578125 676.44921875 167.029296875 676.44921875 c 0x3480
EndSplineSet
EndChar

StartChar: adieresis
Encoding: 228 228 165
Width: 402
GlyphClass: 2
Flags: MW
HStem: -6.59961 90.249<185.771 199.206> 1 21G<265.826 361.776 265.826 265.826> 232.799 82.6514<204.075 210.727 210.727 262.976 204.075 262.977> 442.75 91.2002<191.906 219.877> 551.049 115.9<85.3262 190.776 85.3262 190.776 85.3262 229.727 229.727 335.176>
VStem: 40.6748 98.8018<132.405 180.571> 53.0254 95<362.95 387.65 362.95 388.6 362.95 434.563> 85.3262 105.45<551.049 666.949 551.049 666.949> 229.727 105.449<551.049 666.949 551.049 666.949> 262.977 98.7998<158.699 232.799 232.799 232.799>
LayerCount: 2
Fore
SplineSet
53.025390625 388.599609375 m 2xba
 53.025390625 480.526367188 115.795898438 533.950195312 204.076171875 533.950195312 c 0
 252.732421875 533.950195312 292.790039062 520.39453125 320.8984375 491.17578125 c 0
 348.762695312 462.211914062 361.776367188 422.3203125 361.776367188 374.349609375 c 2
 361.776367188 1 l 1
 265.826171875 1 l 1x7a40
 265.826171875 19.4736328125 l 1
 243.225585938 2.208984375 215.236328125 -6.599609375 183.17578125 -6.599609375 c 0
 138.977539062 -6.599609375 102.258789062 7.8720703125 76.9736328125 37.990234375 c 0
 52.03515625 67.6962890625 40.6748046875 108.009765625 40.6748046875 156.799804688 c 0xbc40
 40.6748046875 204.342773438 54.34765625 244.05078125 83.2109375 272.9140625 c 0
 112.333984375 302.037109375 153.668945312 315.450195312 204.075195312 315.450195312 c 2
 262.975585938 315.450195312 l 1
 262.975585938 377.200195312 l 2
 262.975585938 432.194335938 235.6796875 442.75 204.075195312 442.75 c 0
 179.736328125 442.75 148.025390625 435.084960938 148.025390625 387.650390625 c 2
 148.025390625 362.950195312 l 1
 53.025390625 362.950195312 l 1
 53.025390625 388.599609375 l 2xba
198.375976562 83.6494140625 m 0xbc40
 228.985351562 83.6494140625 262.9765625 97.44140625 262.9765625 158.69921875 c 2
 262.9765625 232.798828125 l 1
 210.7265625 232.798828125 l 2
 168.805664062 232.798828125 139.4765625 216.921875 139.4765625 157.749023438 c 0
 139.4765625 89.9912109375 173.165039062 83.6494140625 198.375976562 83.6494140625 c 0xbc40
85.326171875 666.94921875 m 1x39
 190.776367188 666.94921875 l 1
 190.776367188 551.048828125 l 1
 85.326171875 551.048828125 l 1
 85.326171875 666.94921875 l 1x39
229.7265625 666.94921875 m 1x3880
 335.17578125 666.94921875 l 1
 335.17578125 551.048828125 l 1
 229.7265625 551.048828125 l 1
 229.7265625 666.94921875 l 1x3880
EndSplineSet
EndChar

